<?xml version="1.0" standalone="no"?>
<!DOCTYPE svg PUBLIC "-//W3C//DTD SVG 1.1//EN" "http://www.w3.org/Graphics/SVG/1.1/DTD/svg11.dtd" >
<svg xmlns="http://www.w3.org/2000/svg">
<metadata></metadata>
<defs>
<font id="garagegothic-blackregular" horiz-adv-x="839" >
<font-face units-per-em="2048" ascent="1638" descent="-410" />
<missing-glyph horiz-adv-x="409" />
<glyph horiz-adv-x="2048" />
<glyph horiz-adv-x="2048" />
<glyph unicode="&#xd;" horiz-adv-x="2048" />
<glyph unicode=" "  horiz-adv-x="409" />
<glyph unicode="&#x09;" horiz-adv-x="409" />
<glyph unicode="&#xa0;" horiz-adv-x="409" />
<glyph unicode="!" horiz-adv-x="458" d="M76 139q-9 76 41 138t119 53q93 -11 124.5 -56.5t26.5 -123.5q-5 -67 -46.5 -113.5t-104.5 -50.5q-46 -3 -78 8.5t-48 36t-23.5 49t-10.5 59.5zM76 461v934q0 28 19 32.5t128 4.5q118 0 139 -5.5t21 -33.5v-928q0 -25 -21.5 -30t-138.5 -5q-108 0 -127.5 4.5t-19.5 26.5z " />
<glyph unicode="&#x22;" horiz-adv-x="538" d="M43 1161v176q-3 89 33 95q34 6 125 6q9 0 12 -0.5t9.5 -3.5t8.5 -11.5t2 -23.5q0 -74 -1 -137t-1 -117q0 -15 -9 -33t-29 -14q-34 7 -119 0q-18 -1 -24.5 13.5t-6.5 49.5zM305 1161v176q-2 42 7 68.5t26 26.5q102 0 125 6q15 4 24 -3.5t9 -35.5q0 -74 -1 -137t-1 -117 q0 -14 -9.5 -32.5t-29.5 -14.5q-34 7 -119 0q-18 -1 -24.5 13.5t-6.5 49.5z" />
<glyph unicode="#" horiz-adv-x="1128" d="M23 771q1 81 18 89q25 6 58 2.5t48 -5.5t35 11q12 8 33 115t12 119q-7 8 -30.5 8.5t-52.5 -1t-66 6.5q-17 3 -15 82.5t19 85.5q30 9 91 4t69 4q9 8 14 27.5t10 59.5t10 63q2 16 106.5 14.5t104.5 -20.5q-1 -8 -4 -33t-4.5 -38t-3 -31t-0.5 -28.5t4 -13.5 q12 -11 119.5 -9.5t120.5 9.5q4 3 7 12.5t4.5 25t3 31.5t3.5 39.5t4 41.5q3 16 106.5 14.5t104.5 -20.5q1 -21 -4.5 -60t-8 -57.5t2.5 -28.5q5 -4 13.5 -6t23 -2.5t24.5 -0.5t32 1.5t30 1.5q15 0 23 -78t-7 -82q-22 -4 -62 -5.5t-66.5 -4t-32.5 -10.5q-10 -7 -27.5 -117 t-11.5 -125q2 -5 20 -5.5t58 1.5t65 2q9 0 18 -41t9 -76.5t-9 -42.5q-25 -5 -69.5 -8.5t-77 -6t-37.5 -5.5q-8 -5 -13.5 -43.5t-12.5 -90.5t-17 -79q-6 -15 -108.5 -13t-106.5 19q-1 14 7 62t14.5 90t3.5 47q-5 12 -116 12.5t-122 -12.5q-4 -4 -6 -36.5t-8 -76t-19 -72.5 q-6 -16 -108.5 -17.5t-102.5 17.5q-3 25 3.5 69.5t11.5 77.5t2 38q-8 10 -24.5 11t-39 -1t-57.5 6q-17 2 -16 83zM416 854q4 -10 118 -10t125 10q10 22 23.5 133t7.5 123q-4 10 -120 10t-128 -10q-11 -11 -23.5 -126.5t-2.5 -129.5z" />
<glyph unicode="$" d="M70 336v115q0 10 22.5 12t114.5 2h43q75 0 101 -1.5t26 -8.5v-58q0 -82 8.5 -108.5t42.5 -26.5q51 0 51 100q0 55 -14 100t-43 82t-56 62.5t-70.5 62.5t-68.5 62q-96 96 -126.5 168.5t-30.5 218.5q0 99 52 173t142 112q12 6 12 31v122q0 23 144 23q164 0 164 -16v-140 q0 -22 16 -30q76 -38 121 -110t45 -165v-106q0 -9 -69 -8h-56q-101 0 -136.5 1.5t-35.5 8.5v92q0 34 -15 53t-36 19t-36 -19t-15 -51q0 -57 2.5 -83t22.5 -59.5t47 -58.5t93 -80q33 -28 40 -34t38 -34t40.5 -40t34.5 -42t34.5 -51t26 -56t23 -68t12 -76t5.5 -90 q0 -225 -194 -307q-10 -5 -10 -29v-111q0 -26 -162 -26q-48 0 -96 6.5t-48 19.5v107q0 31 -16 37q-82 30 -136 113.5t-54 189.5z" />
<glyph unicode="%" horiz-adv-x="960" d="M61 1067v197q0 75 50.5 121.5t128.5 46.5q83 0 131.5 -44.5t48.5 -123.5v-197q0 -78 -49 -123t-131 -45q-77 0 -128 47t-51 121zM63 27q431 955 617 1378q6 13 35.5 20t64.5 7q41 0 74 -10.5t25 -28.5q-95 -220 -192 -438t-222.5 -496t-192.5 -428q-12 -31 -102 -31 q-38 0 -75 7.5t-32 19.5zM214.5 1085q0.5 -4 1 -11t2 -10.5t4 -7.5t7.5 -5.5t11 -1.5t11 1.5t8 5.5t4.5 7.5t2 10.5t0.5 11v13v12v113v12v13t-0.5 11t-2 10.5t-4.5 7.5t-8 5.5t-11 1.5t-11 -1.5t-7.5 -5.5t-4 -7.5t-2 -10.5t-1 -11t0 -12.5t0.5 -12.5v-113q0 -4 -0.5 -12.5 t0 -12.5zM541 168v197q0 75 50 121t128 46q83 0 131.5 -44t48.5 -123v-197q0 -78 -49 -123t-131 -45q-77 0 -127.5 47t-50.5 121zM693.5 186q0.5 -4 1 -11t2 -10.5t4 -7.5t7.5 -5.5t11 -1.5t11 1.5t8 5.5t4.5 7.5t2 10.5t0.5 11v13v12v113v12v13t-0.5 11t-2 10.5t-4.5 7.5 t-8 5.5t-11 1.5t-11 -1.5t-7.5 -5.5t-4 -7.5t-2 -10.5t-1 -11t0 -12.5t0.5 -12.5v-113q0 -4 -0.5 -12.5t0 -12.5z" />
<glyph unicode="&#x26;" horiz-adv-x="1024" d="M66 336q0 122 33.5 202.5t101.5 155.5q7 10 10 15q0 8 -4 16q-121 228 -121 315v78q0 144 94.5 230t243.5 86q145 0 241.5 -88t96.5 -228q0 -49 -14 -95t-32.5 -80.5t-56.5 -78t-64 -69t-77 -72.5q-8 -8 -8 -12q0 -9 4 -17q25 -45 115 -194l4 -6t2.5 -4.5t2 -2.5t3 -1.5 t4.5 -0.5q7 0 10 16v3q4 36 4 61v78q0 8 5 9q6 1 104 1q92 0 114.5 -2t22.5 -12v-115q0 -147 -78 -270q-10 -15 -10 -23q0 -12 6 -20q99 -133 142 -184q18 -20 -2 -25q-12 -2 -111 -2q-68 0 -93 5t-44 20q-15 12 -37 34q-17 17 -23 17q-7 0 -34 -15q-107 -61 -197 -61 q-163 0 -260.5 89.5t-97.5 246.5zM344 342q0 -39 24 -69.5t56 -30.5q26 0 63 18q11 6 11 14q0 6 -9 19q-96 136 -114 160q-1 0 -3.5 4.5t-6.5 5.5q-6 1 -8 -2.5t-5 -18.5q-8 -41 -8 -100zM373 1014q0 -28 22 -84q1 -3 2 -7t2 -5.5t2.5 -3t4.5 -1.5q8 0 16 19q43 101 43 196 q0 70 -41 70q-21 0 -36 -19t-15 -53v-112z" />
<glyph unicode="'" horiz-adv-x="276" d="M43 1161v176q-2 42 7 68.5t26 26.5q102 0 125 6q15 4 23.5 -3.5t8.5 -35.5q0 -74 -1 -137t-1 -117q0 -15 -9 -33t-29 -14q-34 7 -119 0q-18 -1 -24.5 13.5t-6.5 49.5z" />
<glyph unicode="(" horiz-adv-x="544" d="M59 1227q0 101 27.5 170.5t83.5 108.5t128 55t173 16q4 0 6.5 -8.5t3 -25t1 -29t0 -33t-0.5 -25.5q0 -119 -10 -119q-71 0 -103 -30.5t-32 -94.5q0 -190 1 -490.5t1 -500.5q0 -64 32 -94.5t103 -30.5q10 0 10 -119q0 -5 0.5 -25t0 -33t-1 -29t-3 -24.5t-6.5 -8.5 q-101 0 -173 16t-128 55t-83.5 108.5t-27.5 170.5q0 197 -1 512t-1 508z" />
<glyph unicode=")" horiz-adv-x="544" d="M61 -23q0 119 11 119q71 0 103 30.5t32 94.5v991q0 64 -32 94.5t-103 30.5q-11 0 -11 119v17.5v22v22.5t1 22.5t2 18.5t3 13.5t5 4.5q101 0 173 -16t127.5 -55t83 -108.5t27.5 -170.5v-1020q0 -101 -27.5 -170.5t-83 -108.5t-127.5 -55t-173 -16q-3 0 -5 4.5t-3 13.5 l-2 18t-1 22v22.5v22v17.5z" />
<glyph unicode="*" horiz-adv-x="608" d="M40.5 1083.5q-6.5 28.5 8.5 38.5q13 5 39 13t39.5 13t29.5 12t23.5 12.5t7.5 11.5q0 8 -18 19.5t-56 30.5t-55 28q-18 15 -14 41t26 45.5t40 7.5q61 -37 83.5 -47.5t32.5 -3.5q4 2 6 6.5t2.5 13t0.5 16t-1.5 21t-2.5 22t-3.5 25.5t-3.5 25q-1 16 38 22t78 -1.5t38 -24.5 q-1 -20 -4 -44t-5 -37.5t-2.5 -27t2 -20.5t9.5 -9q5 -2 13.5 1t20.5 10.5t23 15.5t29 21t31 22q15 11 37 -16t29.5 -56t-5.5 -39q-35 -13 -53.5 -20t-40 -16.5t-30.5 -17.5t-9 -15q0 -12 37 -36.5t92 -49.5q17 -12 12 -36t-28 -43.5t-41 -10.5q-67 36 -90 44t-31 -1 q-11 -8 -12 -36.5t2 -70.5q2 -16 -30.5 -23t-65.5 0t-31 23q11 100 -11 119q-8 2 -12 2.5t-18 -6.5t-23.5 -12.5t-29 -16.5t-33.5 -18q-17 -8 -40.5 18.5t-30 55z" />
<glyph unicode="+" horiz-adv-x="559" d="M53 514.5q1 72.5 10 75.5q14 4 80 0.5t66 3.5q4 4 3.5 31.5t-2 55t2.5 48.5q2 9 74 8t75 -10q3 -13 2 -47t-2.5 -56.5t3.5 -33.5q4 -4 25.5 -4t53 2t43.5 2q8 0 12 -70.5t-3 -73.5q-11 -5 -44 -5h-61t-31 -5q-3 -14 -3 -35t2.5 -61.5t2.5 -52.5q0 -8 -70 -11.5t-73 3.5 q-6 14 -3.5 84t-2.5 73q-5 6 -37 5.5t-63 -3t-52 1.5q-9 2 -8 74.5z" />
<glyph unicode="," horiz-adv-x="421" d="M61 125q0 82 36 139.5t98 57.5q78 0 120.5 -41t42.5 -107q0 -50 -1 -71t-7 -53.5t-20 -65.5q-11 -26 -21.5 -48.5t-33 -60.5t-44 -63t-51.5 -42t-59 -12q-16 3 -19 22t5 47.5t18 55.5t20.5 53t12.5 33q4 16 -5 25.5t-26.5 15.5t-22.5 10q-20 16 -31.5 46.5t-11.5 58.5z " />
<glyph unicode="-" horiz-adv-x="559" d="M61 463q7 34 0 119q-1 18 13.5 24t50.5 6h268q94 3 94 -32q0 -98 7 -125q4 -15 -3.5 -24t-35.5 -9q-74 0 -183 1t-163 1q-15 0 -33.5 9.5t-14.5 29.5z" />
<glyph unicode="." horiz-adv-x="421" d="M61 139q-8 74 39 132t113 51q58 -6 91.5 -22t43 -38t11.5 -50.5t-3 -61.5q-3 -64 -42.5 -108t-100.5 -48q-44 -3 -74 7.5t-45.5 34t-22 46.5t-10.5 57z" />
<glyph unicode="/" horiz-adv-x="636" d="M61 27q44 254 118.5 694t117.5 690q4 21 143 21q48 0 93.5 -9.5t41.5 -29.5q-105 -619 -237 -1362q-5 -31 -170 -31q-20 0 -35.5 1t-34 3t-28.5 8t-9 15z" />
<glyph unicode="0" d="M61 336v762q0 151 101 243.5t258 92.5q163 0 260.5 -89.5t97.5 -246.5v-762q0 -157 -97.5 -246.5t-260.5 -89.5q-157 0 -258 92.5t-101 243.5zM368.5 370q0.5 -8 1.5 -22t4.5 -21t9 -15t14.5 -11.5t22 -3.5q10 0 17.5 2t13 7t9 10t6 14t4 15t1.5 18v18.5v19.5v19 q-1 25 -0.5 297t0.5 297v19v19.5v18.5t-1.5 18t-4 15t-6 14t-9 10t-13 7t-17.5 2q-13 0 -22 -3.5t-14.5 -11.5t-9 -15t-4.5 -21t-1.5 -22t0 -25.5t0.5 -24.5v-594q0 -7 -0.5 -24.5t0 -25.5z" />
<glyph unicode="1" horiz-adv-x="755" d="M61 117q0 125 33 125h80q30 0 37 4q10 6 10 61v748q0 49 -8 49q-10 0 -24.5 -8.5t-34.5 -24.5t-23 -18q-2 -2 -7.5 -7t-9.5 -8.5t-9.5 -8t-9.5 -6.5t-8 -2t-7 3t-4 10q-5 36 -7 97t3 98q0 3 2 7t5.5 8.5t7 8.5t9.5 10t10 9.5t12 10t12 10t12.5 10.5t11.5 10 q18 14 36.5 58t26.5 46q54 17 289 17q6 0 10 -2t6.5 -6.5t3.5 -8.5t1.5 -11t0.5 -11.5v-12v-10.5v-1065q0 -46 7 -55q8 -10 34 -10h107q18 0 18 -123q0 -119 -22 -119h-582q-29 0 -29 117z" />
<glyph unicode="2" d="M61 36v9.5v11.5v303q0 106 68 185q49 59 99.5 115t82.5 96q71 86 119 155q41 56 41 103v20.5v20t-0.5 18t-1.5 18t-3.5 15t-6 13.5t-9 9.5t-13 6.5t-17.5 2q-13 0 -22 -4t-14.5 -12.5t-9 -16.5t-4.5 -22.5t-1.5 -22.5t0 -24t0.5 -21v-33q0 -27 -162 -27q-137 0 -137 29 v115q0 151 97 243.5t253 92.5q162 0 256 -89.5t94 -246.5v-84q0 -49 -16.5 -101.5t-34.5 -88t-54.5 -84.5t-51 -65.5t-50.5 -56.5q-44 -48 -87.5 -93.5t-76.5 -80.5q-30 -30 -30 -51v-47q0 -24 0.5 -27t9.5 -12q10 -10 47 -10h322q30 0 30 -143q0 -154 -35 -154h-618 q-5 0 -15 -0.5t-13.5 0t-9.5 2.5t-11 6q-4 3 -6.5 5.5t-4.5 5.5t-2.5 4.5t-1 6t-0.5 6.5z" />
<glyph unicode="3" d="M61 336v135q0 41 148 41q160 0 160 -39v-53v-10q0 -26 1 -40t5 -34t15.5 -29.5t29.5 -9.5t29.5 10t15.5 30.5t5 35t1 41.5v6v121q0 123 -63 123q-18 0 -29.5 -2.5t-15 -4.5t-10 -9t-9.5 -9q-10 -11 -84 63q-96 96 -86 105q33 40 110 127.5t130 152.5q21 27 4 50 q-7 10 -309 10q-27 0 -27 139q0 148 27 148h641q18 0 23 -13t5 -47q0 -6 1 -52.5t1.5 -80.5t-3.5 -72t-13 -49q-63 -83 -195 -241q-14 -18 2 -21q5 -1 22 -3l25.5 -3t24 -5t26 -9t23.5 -13.5t23 -19.5q63 -70 63 -270v-199q0 -157 -97.5 -246.5t-260.5 -89.5 q-157 0 -258 92.5t-101 243.5z" />
<glyph unicode="4" horiz-adv-x="897" d="M61 303v148q0 29 5 63q6 31 16 57q21 54 95 246.5t124 316.5t107 257q11 27 44 37t128 10q109 0 150.5 -6t41.5 -21v-858q0 -25 4 -29q6 -6 47 -6q13 0 13 -160q0 -106 -13 -106h-9.5h-8h-5.5t-5 -0.5l-4 -1t-3.5 -1.5t-3.5 -2t-4 -3q-6 -6 -6 -25v-194q0 -25 -108 -25 q-53 0 -109.5 6t-56.5 21v161q0 41 -4 50q-7 10 -56 10h-340q-27 0 -32 8q-7 12 -7 47zM387 545q0 -10 1.5 -13.5t5.5 -5t7 -4.5q0 -1 1 -2q2 -3 5.5 -3.5t22.5 -0.5q52 0 64 6q6 3 6 37q2 95 3 186.5t3 186.5q0 59 -8 59q-15 0 -25 -59q-14 -61 -36.5 -143.5t-33.5 -129.5 q-8 -32 -12 -53q-4 -28 -4 -33v-28z" />
<glyph unicode="5" d="M61 671v24.5v21.5v643q0 40 9 53q2 3 4.5 6t4.5 5t5 3.5t4.5 2.5t5 2t4.5 1.5t5.5 0.5h5.5h7h7h614q35 0 35 -125q0 -148 -31 -148h-313q-35 0 -47 -14t-12 -43v-135q0 -4 -0.5 -14t-0.5 -15.5t0.5 -14.5t2.5 -14t5 -10.5t8.5 -7.5t12.5 -2q8 0 25 8.5t47.5 16.5t73.5 8 q64 0 103.5 -21t76.5 -63q55 -63 55 -162v-201q0 -62 -24 -137t-58 -123q-35 -49 -106.5 -100.5t-143.5 -71.5q-110 -31 -222 -45t-150 2q-11 6 -11 143q0 118 9 127q14 14 34.5 18t66 7.5t91.5 13.5q72 15 139 45q28 12 48 39t20 56v100v15q0 31 -0.5 45t-5 31t-15 23.5 t-28.5 6.5q-21 0 -33 -7t-14.5 -13t-5.5 -19q-1 -4 -12 -5.5t-28 -1.5t-22 -1q-24 -3 -107 -3.5t-132 5.5q-3 1 -4.5 6.5t-2 17t-0.5 20.5z" />
<glyph unicode="6" d="M61 336v563q0 96 14.5 154t67.5 129q18 25 30 40t41 44t58 48t78.5 43t104.5 39t134 26.5t169 13.5q12 0 12 -129t-12 -131q-178 -22 -239.5 -39t-112.5 -68q-37 -37 -37 -115v-63q0 -3 -0.5 -8.5t-0.5 -10.5t0.5 -10t2.5 -7.5t6 -2.5q2 0 7 5.5t16.5 14t29 16.5t50 13.5 t73.5 5.5q30 0 58 -7.5t59.5 -30.5t54.5 -59.5t38 -99.5t15 -145v-231q0 -155 -97.5 -244.5t-260.5 -89.5q-157 0 -258 92.5t-101 243.5zM368.5 370q0.5 -8 1.5 -22t4.5 -21t9 -15t14.5 -11.5t22 -3.5q10 0 17.5 2t13 7t9 10t6 14t4 15t1.5 18v18.5v19.5v19v139v19v19.5 v18.5t-1.5 18t-4 15t-6 14t-9 10t-13 7t-17.5 2q-13 0 -22 -3.5t-14.5 -11.5t-9 -15t-4.5 -21t-1.5 -22t0 -25.5t0.5 -24.5v-139q0 -7 -0.5 -24.5t0 -25.5z" />
<glyph unicode="7" d="M61 1305q0 129 21 129h661q23 0 29 -19q4 -10 4 -78v-104q0 -17 -6 -33t-17 -34.5t-37.5 -70t-56.5 -116.5q-58 -125 -116 -361q-60 -246 -86 -481q-1 -8 -3.5 -40.5t-6 -55.5t-7.5 -27q-18 -14 -164 -14q-3 0 -18.5 -0.5t-26.5 0t-25.5 1t-24.5 3t-15 6.5q-5 5 -6.5 20 t-0.5 47.5t1 39.5q15 261 84 555q58 260 135 405q10 22 8 46t-10 36q-6 8 -107 8h-184q-13 0 -19 46.5t-6 91.5z" />
<glyph unicode="8" d="M61 336v244q0 90 39 129q34 37 78 51q-30 10 -76 59q-41 41 -41 129v150q0 151 101 243.5t258 92.5q163 0 260.5 -89.5t97.5 -246.5v-156q0 -94 -45 -135q-54 -43 -78 -51q24 -8 70 -47q53 -46 53 -152v-221q0 -157 -97.5 -246.5t-260.5 -89.5q-157 0 -258 92.5 t-101 243.5zM368.5 370q0.5 -8 1.5 -22t4.5 -21t9 -15t14.5 -11.5t22 -3.5q10 0 17.5 2t13 7t9 10t6 14t4 15t1.5 18v18.5v19.5v19v110v19v19.5v18.5t-1.5 18t-4 15t-6 14t-9 10t-13 7t-17.5 2q-13 0 -22 -3.5t-14.5 -11.5t-9 -15t-4.5 -21t-1.5 -22t0 -25.5t0.5 -24.5v-110 q0 -7 -0.5 -24.5t0 -25.5zM368.5 911q0.5 -8 1.5 -22t4.5 -21t9 -15t14.5 -11.5t22 -3.5q10 0 17.5 2t13 7t9 10t6 14t4 15t1.5 18v18.5v19.5v19v53v19v19.5v18.5t-1.5 18t-4 15t-6 14t-9 10t-13 7t-17.5 2q-13 0 -22 -3.5t-14.5 -11.5t-9 -15t-4.5 -21t-1.5 -22t0 -25.5 t0.5 -24.5v-53q0 -7 -0.5 -24.5t0 -25.5z" />
<glyph unicode="9" d="M61 850v252q0 155 98 244.5t261 89.5q157 0 257.5 -92.5t100.5 -243.5v-563q0 -96 -14.5 -154t-67.5 -129q-18 -25 -30 -40t-41 -44t-58 -48t-78 -43t-104 -39t-134 -26.5t-169 -13.5q-12 0 -12 129t12 131q178 22 239.5 39t112.5 68q17 17 25.5 34t10 28t1.5 32v63 q0 3 0.5 8.5t0.5 10.5t-0.5 10t-2.5 7.5t-6 2.5q-2 0 -5.5 -5.5t-13 -13.5t-25 -16.5t-46.5 -14t-72 -5.5q-26 0 -54.5 8.5t-62.5 32.5t-60.5 60.5t-44.5 99t-18 141.5zM369 820q0 -12 1.5 -18t4 -15t6 -14t9 -10t13 -7t17.5 -2q13 0 22 3.5t14.5 11.5t9 15t4.5 21t1.5 22 t0 25.5t-0.5 24.5v139q0 7 0.5 24.5t0 25.5t-1.5 22t-4.5 21t-9 15t-14.5 11.5t-22 3.5q-10 0 -17.5 -2t-13 -7t-9 -10t-6 -14t-4 -15t-1.5 -18v-18.5v-19.5v-19v-139v-19v-19.5v-18.5z" />
<glyph unicode=":" horiz-adv-x="421" d="M61 139q-8 74 39 132t113 51q58 -6 91.5 -22t43 -38t11.5 -50.5t-3 -61.5q-3 -64 -42.5 -108t-100.5 -48q-44 -3 -74 7.5t-45.5 34t-22 46.5t-10.5 57zM61 700q-8 74 39 132t113 51q58 -6 91.5 -22t43 -38t11.5 -50.5t-3 -61.5q-3 -64 -42.5 -108t-100.5 -48 q-44 -3 -74 7.5t-45.5 34t-22 46.5t-10.5 57z" />
<glyph unicode=";" horiz-adv-x="421" d="M61 125q0 82 36 139.5t98 57.5q78 0 120.5 -41t42.5 -107q0 -50 -1 -71t-7 -53.5t-20 -65.5q-11 -26 -21.5 -48.5t-33 -60.5t-44 -63t-51.5 -42t-59 -12q-16 3 -19 22t5 47.5t18 55.5t20.5 53t12.5 33q4 16 -5 25.5t-26.5 15.5t-22.5 10q-20 16 -31.5 46.5t-11.5 58.5z M61 700q-8 74 39 132t113 51q58 -6 91.5 -22t43 -38t11.5 -50.5t-3 -61.5q-3 -64 -42.5 -108t-100.5 -48q-44 -3 -74 7.5t-45.5 34t-22 46.5t-10.5 57z" />
<glyph unicode="&#x3c;" horiz-adv-x="620" d="M55 506q0 20 182 247t195 218q72 -36 115 -49q16 -4 21 -15t-11 -35q-16 -20 -56.5 -71.5t-75 -94.5t-71 -89.5t-57.5 -75.5t-21 -33q0 -13 269 -369q30 -40 -10 -49q-23 -7 -119 -55q-13 -9 -187 221t-174 250z" />
<glyph unicode="=" horiz-adv-x="600" d="M46 690.5q-3 75.5 17 83.5q14 5 25 5.5t27 -0.5t24 -1q37 1 157.5 -0.5t131.5 -1.5q18 0 49 -1t49 -1q8 0 12 -78.5t-3 -81.5q-12 -5 -23.5 -7t-29 -2.5t-23.5 -0.5q-48 -4 -154 -5t-155 1q-5 0 -22.5 -0.5t-23 0t-18.5 3t-25 7.5t-15 80.5zM50.5 345q-0.5 77 12.5 85 q13 7 24.5 8t27 -1.5t24.5 -2.5q37 1 157.5 -0.5t131.5 -1.5q12 0 38.5 2.5t41.5 2t18 -6.5q9 -23 13 -90t-4 -70q-12 -5 -23.5 -7t-29 -2.5t-23.5 -0.5q-48 -4 -154 -5t-155 1q-45 0 -89 10q-10 2 -10.5 79z" />
<glyph unicode="&#x3e;" horiz-adv-x="620" d="M45 906q5 12 21 16q40 12 114 49q13 9 195 -218t182 -247t-163.5 -250t-176.5 -221q-103 51 -115 55q-37 8 -10 49q11 16 85 124.5t116.5 173.5t42.5 71t-49 70t-139 177t-93 117q-15 22 -10 34z" />
<glyph unicode="?" horiz-adv-x="831" d="M70 991v115q0 151 97 243.5t253 92.5q162 0 256 -89.5t94 -246.5v-84q0 -50 -10 -94t-20 -71t-36.5 -63.5t-37.5 -49t-45 -48.5q-24 -26 -39.5 -48.5t-24 -36t-12.5 -38t-4.5 -33t0 -42t0.5 -45.5q0 -32 -160 -27q-8 0 -26.5 0.5t-29 1t-27 1.5t-26.5 3.5t-20 7 t-14.5 11.5t-4.5 16q0 21 1.5 39t1.5 47q0 85 12.5 117t62.5 94q4 5 33.5 39t44.5 54t37.5 52.5t33.5 60.5t11 52v20.5v20t-0.5 18t-1.5 18t-3.5 15t-6 13.5t-9 9.5t-13 6.5t-17.5 2q-13 0 -22 -4t-14.5 -12.5t-9 -16.5t-4.5 -22.5t-1.5 -22.5t0 -24t0.5 -21v-33 q0 -26 -162 -26q-137 0 -137 28zM236 139q-8 74 38.5 132t112.5 51q58 -6 91.5 -22t43 -38t11.5 -50.5t-3 -61.5q-3 -64 -42.5 -108t-100.5 -48q-44 -3 -74 7.5t-45 34t-21.5 46.5t-10.5 57z" />
<glyph unicode="@" horiz-adv-x="1134" d="M72 745q0 134 66 248t180 181t249 67q104 0 192.5 -31t157 -91.5t107.5 -159t39 -224.5q0 -63 -9.5 -111t-28 -76t-37 -46t-44 -25.5t-41.5 -9.5t-37 -2q-34 0 -60 8.5t-40 21t-23 25t-13.5 21t-6.5 8.5q-1 0 -5 -8.5t-14.5 -21t-26.5 -25t-47 -21t-71 -8.5 q-55 0 -99 22.5t-68.5 56.5t-37 70t-12.5 68v119q0 82 60.5 149.5t156.5 67.5q19 0 35 -3t26.5 -6.5t21.5 -10.5t15.5 -10.5t13 -11.5t9.5 -9q8 -7 11 -4.5t3 16.5q0 20 7.5 29.5t29.5 9.5q30 0 39.5 -1.5t9.5 -8.5v-316q0 -57 25.5 -88t52.5 -31q47 0 73.5 36t26.5 143 q0 173 -111 279t-276 106q-162 0 -276.5 -114t-114.5 -278q0 -158 115 -270.5t276 -112.5h146q20 0 20 -47q0 -65 -14 -65h-156q-205 0 -350 145.5t-145 349.5zM442 682q0 -59 38.5 -88t80.5 -29q40 0 79.5 29t39.5 88v121q0 48 -30.5 84.5t-88.5 36.5q-59 0 -89 -40 t-30 -81v-121z" />
<glyph unicode="A" horiz-adv-x="802" d="M18 18q159 972 220 1387q4 31 155 31q144 0 150 -37l239 -1380q0 -12 -42 -16q-26 -3 -119 -3h-19.5h-20.5h-19t-19 1t-16.5 2t-15 3t-11 4.5t-8 6t-3.5 8.5q-7 51 -18 134t-20 144q0 4 -1.5 7t-4.5 5t-5.5 3t-8 1h-9.5h-12h-13h-12h-11h-9.5h-8.5t-6.5 -1t-5.5 -2t-4 -3 t-3 -4.5t-1 -5.5q-27 -257 -29 -283q-1 -7 -9.5 -11.5t-30 -6.5t-34 -2h-44.5h-21q-150 0 -150 18zM352 530q0 -12 6 -14t33 -2q6 0 15.5 -1t13 -0.5t8.5 2t6.5 4.5t1.5 9q-2 54 -5 102t-8 115.5t-9 128.5q0 17 -6 53t-15 36q-8 0 -13 -45t-3 -54q-4 -73 -13 -172t-12 -162z " />
<glyph unicode="B" horiz-adv-x="849" d="M82 61v1311q0 46 8 54t53 8h289q163 0 261 -89.5t98 -246.5v-164q0 -51 -15.5 -89.5t-38 -57t-45 -29.5t-38 -15t-15.5 -6q0 -1 16.5 -4.5t40 -13t47 -26.5t40 -53t16.5 -85v-219q0 -157 -98 -246.5t-261 -89.5h-297q-46 0 -53.5 7t-7.5 54zM389 322q0 -20 5.5 -22.5 t45.5 -2.5q31 0 41.5 17.5t10.5 66.5v82v19v20t-0.5 18t-2 18t-3.5 15t-6 14t-9.5 10t-13 7t-17.5 2h-8q-28 0 -35.5 -3.5t-7.5 -21.5v-239zM389 887q0 -18 7 -21.5t30 -3.5h6q51 0 51 68v84v19v19.5v18.5t-1.5 18t-4 15t-6 14t-9 10t-13 7t-17.5 2h-7q-23 0 -29.5 -3.5 t-6.5 -21.5v-225z" />
<glyph unicode="C" horiz-adv-x="792" d="M51 336v762q0 151 101 243.5t258 92.5q161 0 251.5 -89t90.5 -247v-131q0 -11 -6.5 -16t-41.5 -9t-108 -4h-48h-24q-34 0 -46 2q-18 3 -17 18v119q0 10 -2.5 21.5t-15 25t-33.5 13.5q-13 0 -22 -3t-15 -12t-9.5 -15t-4.5 -21t-1.5 -22t0 -26t0.5 -24v-594q0 -28 1 -44.5 t5.5 -37.5t16 -31t29.5 -10q22 0 34.5 14t14.5 24.5t2 20.5v93q0 25 16 29.5t96 4.5h13.5h14h15.5q91 0 113.5 -9.5t22.5 -49.5v-88q0 -158 -90.5 -247t-251.5 -89q-157 0 -258 92.5t-101 243.5z" />
<glyph unicode="D" horiz-adv-x="849" d="M82 61v1311q0 46 8 54t53 8h297q163 0 261 -89.5t98 -246.5v-762q0 -157 -98 -246.5t-261 -89.5h-297q-46 0 -53.5 7t-7.5 54zM389 322q0 -20 5.5 -22.5t45.5 -2.5q10 0 17.5 2t13 7t9.5 10t6 14t3.5 15t2 18t0.5 18v20v19v594v19v20t-0.5 18t-2 18t-3.5 15t-6 14 t-9.5 10t-13 7t-17.5 2q-40 0 -45.5 -2.5t-5.5 -22.5v-790z" />
<glyph unicode="E" horiz-adv-x="718" d="M82 46v8v9v15v1294q0 19 2 25.5t12 19.5q13 17 47 17h510q18 0 21.5 -18t3.5 -113q0 -113 -3.5 -134.5t-23.5 -21.5h-205q-40 0 -47 -10q-8 -11 -9 -15t-1 -24v-150q0 -3 -0.5 -11t0 -12.5t1.5 -10.5t3.5 -11t7.5 -8q11 -8 45 -8h101q16 0 19 -15t3 -91v-40v-52v-28 q0 -37 -2 -47q-3 -12 -20 -12h-92q-40 0 -52 -6q-5 -3 -8.5 -7.5t-4.5 -11.5l-1.5 -10.5t0 -14.5t0.5 -15v-170q0 -66 10 -72q13 -8 62 -8h194q19 0 23 -19.5t4 -117.5q0 -108 -3.5 -129t-21.5 -21h-481q-7 0 -19.5 -0.5t-20 -0.5t-16.5 1t-15.5 3t-10.5 5q-5 4 -7.5 9.5 t-3.5 14t-1 14.5z" />
<glyph unicode="F" horiz-adv-x="696" d="M82 39v1333q0 19 2 25.5t12 19.5q13 17 47 17h510q18 0 21.5 -18t3.5 -113q0 -113 -3.5 -134.5t-23.5 -21.5h-205q-40 0 -47 -10q-8 -11 -9 -15t-1 -24v-174q0 -3 -0.5 -11t0 -12.5t1.5 -11t3.5 -11.5t7.5 -8q11 -8 45 -8h101q16 0 19 -15t3 -90v-40v-52v-28 q0 -37 -2 -47q-3 -12 -20 -12h-92q-38 0 -52 -7q-5 -3 -8.5 -7.5t-4.5 -11.5l-1.5 -10.5t0 -14.5t0.5 -15v-473q0 -30 -23 -34.5t-151 -4.5q-100 0 -116.5 4.5t-16.5 34.5z" />
<glyph unicode="G" horiz-adv-x="815" d="M51 336v762q0 151 101 243.5t258 92.5q163 0 260.5 -89.5t97.5 -246.5v-131q0 -10 -10.5 -15.5t-49.5 -9.5t-112 -4h-48h-24q-32 0 -46 2q-17 3 -17 18v119q0 10 -2.5 21.5t-15 25t-33.5 13.5q-13 0 -22 -3t-15 -12t-9.5 -15t-4.5 -21t-1.5 -22t0 -26t0.5 -24v-594 q0 -5 -0.5 -24t0 -26t1.5 -22t4.5 -21t9.5 -15t15 -12t22 -3q22 0 34.5 14t14.5 24.5t2 20.5v185q0 13 -5 20t-9.5 7.5t-14.5 0.5q-19 0 -26 5t-7 16v121q0 25 23 29.5t109 4.5h44q115 0 154 -12t39 -47v-649q0 -37 -20 -37h-41q-15 0 -45.5 53t-34.5 53q-5 0 -17.5 -16.5 t-30.5 -36.5t-62.5 -36.5t-106.5 -16.5q-157 0 -258 92.5t-101 243.5z" />
<glyph unicode="H" horiz-adv-x="880" d="M82 31v1364q0 28 19 32.5t128 4.5q118 0 139 -5.5t21 -33.5v-475q0 -26 5 -31.5t24 -5.5h53q9 0 12 1t6 7.5t3 21.5v490q0 23 20.5 27t132.5 4q115 0 134.5 -4t19.5 -29v-1356q0 -32 -19 -37.5t-133 -5.5q-112 0 -133.5 6.5t-21.5 36.5v524q0 19 -4 23t-21 4h-64 q-10 0 -13 -5t-3 -24v-530q0 -25 -21 -30t-137 -5q-108 0 -127.5 4.5t-19.5 26.5z" />
<glyph unicode="I" horiz-adv-x="471" d="M82 31v1364q0 28 19 32.5t128 4.5q118 0 139 -5.5t21 -33.5v-1358q0 -25 -21.5 -30t-138.5 -5q-108 0 -127.5 4.5t-19.5 26.5z" />
<glyph unicode="J" horiz-adv-x="778" d="M41 336v84v7q0 40 18 47t121 7q46 0 68.5 -1t40 -3t22.5 -10t6.5 -15t1.5 -25v-7q0 -123 66 -123t66 123q-1 103 -1 280.5t0.5 391t0.5 280.5q0 43 20 52.5t111 9.5q110 0 128.5 -7t18.5 -46v-9v-1036q0 -158 -91.5 -247t-252.5 -89q-155 0 -249.5 92t-94.5 244z" />
<glyph unicode="K" horiz-adv-x="927" d="M82 33v1370q0 29 151 29q156 0 156 -31v-496v-5.5v-6v-6.5v-6.5t0.5 -6t1.5 -5t2 -3.5t2.5 -2h3.5q4 1 15 39q30 104 72 256.5t69 245.5q4 15 20 17.5t93 2.5h14h13.5h15.5q160 0 161 -17v-3q-124 -349 -186 -504q-20 -57 -20 -67q0 -17 18 -74q87 -278 223 -735 q1 -3 1 -6q0 -5 -2 -7q-4 -4 -40 -8t-108 -4q-129 0 -144 4q-17 5 -22 25q-127 511 -143 577q-5 25 -23 2q-10 -13 -20 -35q-17 -41 -17 -86v-450q0 -37 -153 -37q-154 0 -154 33z" />
<glyph unicode="L" horiz-adv-x="724" d="M82 46v8v9v15v1315q0 17 5.5 24t36.5 12t101 5q61 0 92 -1t48 -6.5t20.5 -12t3.5 -21.5v-1026q0 -66 10 -72q13 -8 62 -8h194q19 0 23 -19.5t4 -117.5q0 -108 -3.5 -129t-21.5 -21h-481q-7 0 -19.5 -0.5t-20 -0.5t-16.5 1t-15.5 3t-10.5 5q-5 4 -7.5 9.5t-3.5 14t-1 14.5 z" />
<glyph unicode="M" horiz-adv-x="1077" d="M82 31v1364q0 27 19 32t112 5q96 0 125 -7.5t35 -31.5q7 -25 33.5 -115t39.5 -137q69 -252 93 -252q18 0 88 252q1 4 73 254q6 23 33 30t115 7q100 0 123.5 -6t23.5 -33v-1358v-8q-1 -19 -19 -23q-20 -4 -128 -4t-128 4.5t-20 26.5v717q0 27 -18 33q-14 4 -18 -13v-2 q-40 -238 -62 -287q-12 -28 -37 -28h-49q-24 0 -37 26q-17 37 -59 285q-2 12 -13.5 15t-22.5 -5.5t-11 -23.5v-713q0 -25 -21.5 -30t-138.5 -5t-127 8q-4 5 -4 18v5z" />
<glyph unicode="N" horiz-adv-x="946" d="M82 27v2v2v1364v4q0 25 17.5 29t121.5 4q88 0 108 -5.5t27 -33.5q88 -307 164 -533q16 -55 29 -55q16 0 16 75v9v506q0 28 19.5 32.5t128.5 4.5q128 0 143 -9q8 -9 8 -30v-1358v-4q0 -22 -20 -26.5t-131 -4.5h-21q-35 0 -47.5 1t-23 7.5t-15.5 22.5q-27 76 -48.5 142.5 t-34 110.5t-38 131.5t-47.5 162.5q-26 90 -43 90q-4 0 -6.5 -3.5t-4 -10t-2.5 -13.5t-1 -18v-19v-20.5v-18.5v-530q0 -25 -21.5 -30t-138.5 -5q-102 0 -120.5 4t-18.5 23z" />
<glyph unicode="O" horiz-adv-x="819" d="M51 336v762q0 151 101 243.5t258 92.5q163 0 260.5 -89.5t97.5 -246.5v-762q0 -157 -97.5 -246.5t-260.5 -89.5q-157 0 -258 92.5t-101 243.5zM358 370q0 -7 1 -22t4.5 -21t9.5 -15t15 -12t22 -3q10 0 17.5 2t13 7t9 10t6 14t4 15t1.5 18v18.5v19.5v19q-1 17 -1 143v154 q0 272 1 297v19v19.5v18.5t-1.5 18t-4 15t-6 14t-9 10t-13 7t-17.5 2q-13 0 -22 -3t-15 -12t-9.5 -15t-4.5 -21t-1 -22v-10v-16v-24v-594v-24v-16v-10z" />
<glyph unicode="P" d="M82 61v1311q0 46 8 54t53 8h297q163 0 261 -89.5t98 -246.5v-271q0 -156 -98 -245.5t-261 -89.5q-27 0 -39 -16.5t-12 -69.5v-371q0 -25 -21 -30t-104 -5h-33q-104 0 -126.5 8t-22.5 53zM389 793q0 -20 5.5 -22.5t45.5 -2.5q10 0 17.5 2t13 7t9.5 10t6 14t3.5 15t2 18 t0.5 18v20v19v123v19v20t-0.5 18t-2 18t-3.5 15t-6 14t-9.5 10t-13 7t-17.5 2q-40 0 -45.5 -2.5t-5.5 -22.5v-319z" />
<glyph unicode="Q" horiz-adv-x="819" d="M51 336v762q0 151 101 243.5t258 92.5q163 0 260.5 -89.5t97.5 -246.5v-762q0 -109 -49 -187t-121 -108q-35 -16 -35 -31q0 -45 21 -58t98 -13q31 0 31 -103v-10q0 -22 -0.5 -33t-2.5 -25t-7.5 -20t-14.5 -6h-74q-37 0 -68 1.5t-69 8t-68 16.5t-59.5 28.5t-49.5 43.5 t-32 62.5t-12 83.5q0 39 -41 61q-164 93 -164 289zM358 370q0 -7 1 -22t4.5 -21t9.5 -15t15 -12t22 -3q10 0 17.5 2t13 7t9 10t6 14t4 15t1.5 18v18.5v19.5v19q-1 17 -1 143v154q1 272 1 297v19v19.5v18.5t-1.5 18t-4 15t-6 14t-9 10t-13 7t-17.5 2q-13 0 -22 -3t-15 -12 t-9.5 -15t-4.5 -21t-1 -22q-1 -4 -1 -10t1 -16v-24v-594v-24q-1 -10 -1 -16t1 -10z" />
<glyph unicode="R" horiz-adv-x="860" d="M82 61v1311q0 46 8 54t53 8h289q163 0 261 -89.5t98 -246.5v-164q0 -51 -15.5 -90.5t-38 -59.5t-45 -32.5t-38 -17.5t-15.5 -7q0 -1 16.5 -3.5t40 -10.5t47 -23.5t40 -50.5t16.5 -84v-524q0 -24 -21.5 -27.5t-134.5 -3.5h-19q-97 0 -114.5 5t-17.5 36v422v19v20t-0.5 18 t-2 18t-3.5 15t-6 14t-9.5 10t-13 7t-17.5 2h-9q-30 0 -36 -3.5t-6 -21.5v-516q0 -32 -27 -38.5t-139 -6.5q-97 0 -119 8t-22 53zM389 887q0 -19 7 -22t36 -3q51 0 51 68v84v19v19.5v18.5t-1.5 18t-4 15t-6 14t-9 10t-13 7t-17.5 2h-7q-24 0 -30 -3.5t-6 -21.5v-225z" />
<glyph unicode="S" horiz-adv-x="798" d="M41 336v115q0 10 22.5 12t114.5 2h43q75 0 101 -1.5t26 -8.5v-58q0 -82 8.5 -108.5t42.5 -26.5q52 0 52 100q0 55 -14 100t-43 82t-56 62.5t-70.5 62.5t-68.5 62q-96 96 -127 168.5t-31 218.5q0 139 101 227.5t247 88.5q150 0 249 -86.5t99 -229.5v-106q0 -8 -56 -8h-13 h-56q-102 0 -137 1.5t-35 8.5v92q0 34 -15 53t-36 19t-36 -19t-15 -51q0 -46 3 -71t9.5 -48t29 -47.5t46.5 -47t78 -67.5q33 -28 40 -34t38 -34t40.5 -40t34.5 -42t34.5 -51t26 -56t23 -68t12 -76t5.5 -90q0 -157 -98 -246.5t-261 -89.5q-156 0 -257 91t-101 245z" />
<glyph unicode="T" horiz-adv-x="798" d="M41 1292q0 51 1 77t4.5 42t8.5 19.5t15 3.5h661q19 0 23 -21t4 -110q0 -59 -0.5 -86t-3.5 -45t-7.5 -21.5t-13.5 -3.5h-88q-68 0 -78 -4q-5 -4 -8.5 -10t-4.5 -15.5t-1.5 -15t0 -19t0.5 -16.5v-1047q0 -14 -25.5 -17t-138.5 -3q-103 0 -124 2.5t-21 17.5v1047v11.5v13 t-0.5 12t-1.5 12.5t-2.5 10.5t-4 9.5t-6.5 7q-10 4 -75 4h-76q-24 0 -30.5 25.5t-6.5 119.5z" />
<glyph unicode="U" d="M61 336v1057q0 31 21.5 36t144.5 5q96 0 119 -6t23 -35v-973q0 -7 -0.5 -24.5t0 -25.5t1.5 -22t4.5 -21t9 -15t14.5 -11.5t22 -3.5q10 0 17.5 2t13 7t9 10t6 14t4 15t1.5 18v18.5v19.5v19q-1 103 -1 285.5t0.5 401.5t0.5 286q0 30 19 35.5t122 5.5q80 0 115.5 -4.5 t43 -11.5t7.5 -25v-1057q0 -157 -97.5 -246.5t-260.5 -89.5q-157 0 -258 92.5t-101 243.5z" />
<glyph unicode="V" horiz-adv-x="811" d="M31 1395q-1 4 -1 7q0 20 21 25q24 5 137 5q112 0 133 -4.5t26 -29.5q1 -3 1 -5q5 -23 14 -215t19.5 -367.5t19.5 -175.5t24 175t29 369t17 214q0 1 1 4q4 25 24.5 30t134.5 5q111 0 132 -5q18 -4 18 -24q0 -4 -1 -8q-41 -251 -131 -751t-106 -611q-4 -24 -23 -28.5 t-100 -4.5h-35q-56 0 -81.5 0.5t-44.5 4.5t-23.5 10.5t-6.5 19.5q0 2 -41.5 299t-81 569t-75.5 492z" />
<glyph unicode="W" horiz-adv-x="995" d="M41 1410q0 7 25 12q26 6 56.5 9t53.5 3q27 0 50 -1t47 -3t38 -7t13 -12q8 -193 27 -485.5t26 -462.5q0 -21 12 -21q14 0 14 23q4 60 29 496q3 24 66 24q75 0 77 -24q4 -68 8.5 -162t9.5 -173t13 -169q0 -21 12 -21q8 0 11.5 8t1.5 15q7 208 23 535t20 419q0 21 133 21 h19.5h21.5h21t22 -0.5t19.5 -1.5t17 -3t13 -4.5t9 -6t2.5 -7.5q-15 -181 -58.5 -714t-55.5 -674q0 -4 -2.5 -7.5t-7.5 -6t-10.5 -4.5t-14.5 -3t-15.5 -1.5t-17.5 -0.5h-18h-19h-18q-128 0 -133 23q-15 60 -34.5 156t-23.5 116q0 1 -1 6.5t-2 8t-4 5t-7 2.5q-5 0 -7 -3 t-3 -10l-2 -7q-36 -184 -54 -272q-6 -25 -149 -25h-10h-15h-22t-24 0.5t-25.5 2t-20.5 4t-16.5 6.5t-5.5 10q-115 1381 -115 1387z" />
<glyph unicode="X" horiz-adv-x="868" d="M37 1395q-2 6 -2 11q0 15 20 20q27 6 140 6t134 -5t24 -29q1 -3 1 -5q28 -172 56 -263q13 -40 20 -40t13 11t8 21q20 76 55 271q0 1 1 4q4 25 24.5 30t134.5 5q129 0 145 -10q11 -6 4 -27q-36 -100 -197 -586q-5 -15 -11 -28.5t-8.5 -21t-2.5 -14.5q0 -26 12 -63 q40 -121 112.5 -335t106.5 -314q2 -5 2 -9q0 -16 -25 -20q-22 -4 -142 -4q-71 0 -100 2.5t-40 9t-16 23.5q-7 21 -15.5 63t-21 108.5t-18.5 98.5q-12 47 -17 47q-3 0 -5.5 -1t-4.5 -3.5t-3 -4.5t-2.5 -6.5t-2 -7.5t-1 -10t-1.5 -10q-33 -192 -60 -274q-5 -17 -16 -23.5 t-39.5 -9t-99.5 -2.5q-128 0 -146.5 6.5t-11.5 26.5q19 58 91.5 288t117.5 359q14 41 14 61q0 6 -18 58q-92 271 -209 596z" />
<glyph unicode="Y" horiz-adv-x="835" d="M41 1405q0 8 13 13q15 7 41 9.5t45 3.5t38 1q162 0 166 -33q12 -87 36 -246t36 -244q0 -18 12 -18q10 0 10 20q15 103 35 262t29 226q5 33 153 33q26 0 46.5 -1t45.5 -3.5t37 -8.5q11 -5 11 -13v-3q-104 -411 -181 -662q-6 -21 -14.5 -61.5t-13.5 -56.5q-11 -33 -11 -119 v-488q0 -16 -153 -16q-154 0 -154 23q0 81 1 231.5t1 243.5q0 88 -2 100q-2 15 -14 58t-16 63q-20 71 -90 308q-107 359 -107 378z" />
<glyph unicode="Z" horiz-adv-x="704" d="M40 126v47.5v35.5q0 30 1 70t3.5 64t6.5 34q276 649 311 733q7 17 3.5 35t-17.5 29q-10 4 -43 4h-227q-25 0 -25 116q0 140 25 140h551q27 0 33 -9t6 -49q0 -215 -4 -231q-88 -218 -182.5 -451t-143.5 -356q-9 -27 2 -41q2 -3 4.5 -5t4 -4t4 -2.5t3.5 -1.5t5 -1h5.5h7 h7.5h258q23 0 23 -152q0 -131 -23 -131h-559q-39 0 -39 53q-1 19 -1 73z" />
<glyph unicode="[" horiz-adv-x="550" d="M61 -102v1634q0 17 27 28t82 14.5t96 4.5t114.5 -0.5t90.5 -1.5q8 0 12 -10t5 -26.5t1 -32t-1 -33t-1 -21.5q0 -117 -16 -117h-17.5h-17t-14.5 -0.5t-14 -1t-11.5 -2.5t-10.5 -4.5t-7.5 -6.5t-6.5 -9t-3.5 -12t-1.5 -15v-1136q0 -19 4 -31t8.5 -18.5t17.5 -9.5t19.5 -3.5 t26.5 0t28 0.5q5 0 8 -8t4 -22.5t1 -26.5t-0.5 -28t-0.5 -19q0 -127 -12 -127q-27 0 -92.5 -2t-112 -2.5t-98 2.5t-79.5 13.5t-28 29.5z" />
<glyph unicode="\" horiz-adv-x="636" d="M61 1393q-4 20 42 29.5t94 9.5q139 0 143 -21q43 -250 117 -690t118 -694q1 -9 -8.5 -15t-28 -8t-34 -3t-35.5 -1q-165 0 -170 31q-156 880 -238 1362z" />
<glyph unicode="]" horiz-adv-x="550" d="M59 1508.5q0 14.5 1 31.5t5.5 27t12.5 10q18 0 91 1.5t113.5 0.5t95.5 -4.5t82 -14.5t27 -28v-1634q0 -14 -15 -23t-43 -14t-60 -7t-73.5 -1.5t-76.5 1.5t-76 2t-65 1q-12 0 -12 127q0 3 -0.5 19t-0.5 28t1 26.5t4 22.5t8 8q8 0 28 -0.5t26.5 0t19.5 3.5t17.5 9.5 t8.5 18.5t4 31v1136q0 8 -1.5 15t-3.5 12t-6.5 9t-7.5 6.5t-10.5 4.5t-11.5 2.5t-14 1t-14.5 0.5h-17h-17.5q-17 0 -17 117q0 4 -1 22t-1 32.5z" />
<glyph unicode="^" horiz-adv-x="669" d="M43 1075q12 19 61.5 87.5t85.5 111.5q14 17 51 66t59.5 72.5t37.5 23.5q8 0 19.5 -10t26.5 -29.5t28.5 -37.5t33 -46.5t31.5 -44.5q147 -204 152 -213q8 -14 -10 -33.5t-41 -32.5q-18 -11 -46.5 -21t-33.5 -1q-47 83 -100 166.5t-62 83.5q-4 0 -16 -14.5t-31 -43 l-37 -55.5t-44 -67t-42 -64q-5 -9 -34 4t-44 27q-57 50 -45 71z" />
<glyph unicode="_" horiz-adv-x="559" d="M-12 -105q1 32 10 37q14 4 35.5 4.5t49 -1t34.5 -1.5q36 1 89 -0.5t75 -1.5q19 0 142 -1t142 -1q8 0 11.5 -32t-3.5 -35q-12 -5 -70.5 -5.5t-121 1t-70.5 0.5q-58 -5 -184 2q-11 0 -39 -0.5t-52 -0.5t-40 1q-9 2 -8 34z" />
<glyph unicode="`" d="M203 1282q14 29 43 111q4 18 19.5 19t47.5 -11q6 -2 110 -41t142 -49q41 -15 62.5 -32t15.5 -32q-35 -101 -37 -121q-4 -34 -47 -18q-68 24 -170.5 63t-155.5 58q-12 2 -26 18.5t-4 34.5z" />
<glyph unicode="a" horiz-adv-x="819" d="M41 336v311q0 92 24.5 160t66.5 105t89.5 54t102.5 17q46 0 87 -28t58 -60q11 -17 12 6v37q0 34 16 40q14 6 63 6h16q12 0 19 -0.5t20 -0.5h24q22 0 54 1h31t20 -1.5t11 -5.5t3 -12v-947q0 -14 -12 -17q-9 -2 -34 -2h-19q-10 0 -16 0.5t-17 0.5h-21q-25 0 -63 -1h-48.5 t-28.5 4.5t-14 13.5t-4 28q0 44 -5 44q-3 0 -9 -9q-17 -31 -56 -55.5t-85 -24.5q-43 0 -82.5 10t-77 34.5t-65 62t-44 96.5t-16.5 133zM338 386q0 -8 1.5 -26t5.5 -26t10.5 -17.5t17.5 -13.5t26 -4t26.5 4t18 13.5t11 17.5t5.5 25q2 17 2 27v12.5v17.5q0 22 -1 30v91 q1 7 1 29v19v13q0 10 -1.5 26.5t-6 24.5t-11 17.5t-18 13.5t-26.5 4t-26 -4t-17.5 -13.5t-10.5 -17.5t-5.5 -25.5t-1.5 -25.5v-12v-20v-29v-91v-30v-18.5v-11.5z" />
<glyph unicode="b" horiz-adv-x="819" d="M61 18v1397q0 4 1.5 7.5t5 6t7.5 3.5t11.5 2t14.5 1h18.5t21.5 -0.5t25.5 -0.5h28.5h27t25 0.5t22 0.5t20 -0.5t16.5 -1.5t14 -2t10 -3.5t6.5 -5.5t2 -7v-477q0 -32 4 -33t12 13q13 25 68 45t82 20q55 0 101.5 -17t86.5 -54t63 -105t23 -160v-311q0 -92 -23 -160 t-63 -105t-86.5 -54t-101.5 -17q-27 0 -82 20.5t-68 45.5q-13 21 -15 5q-1 -7 -1 -26q0 -35 -16 -41q-14 -6 -63 -5h-16q-12 0 -19 0.5t-20 0.5h-24q-22 0 -54 -1h-31t-20 1.5t-11 5.5t-3 12zM358 399q0 -8 0.5 -22t2 -21.5t4 -18t7.5 -16t11.5 -11.5t15.5 -8.5t21 -2.5 q15 0 26.5 4t18 13.5t10.5 18t5.5 25t1.5 26.5t-0.5 30.5t-0.5 29.5v91q0 9 0.5 29.5t0.5 30.5t-1.5 26.5t-5.5 25t-10.5 18t-18 13.5t-26.5 4q-12 0 -21 -2.5t-15.5 -8.5t-11.5 -11.5t-7.5 -16t-4 -18t-2 -21.5t-0.5 -22v-10v-14v-23v-91v-24v-13.5v-9.5z" />
<glyph unicode="c" horiz-adv-x="788" d="M41 336v311q0 151 100.5 243.5t257.5 92.5q163 0 261 -89.5t98 -246.5q0 -24 -23 -28.5t-151 -4.5q-49 0 -72.5 0.5t-35.5 5t-13.5 8.5t-1.5 15q0 82 -62 82q-15 0 -26.5 -4t-18 -13.5t-10.5 -18t-5.5 -25t-1.5 -26.5t0.5 -30.5t0.5 -29.5v-172q0 -9 -0.5 -29.5 t-0.5 -30.5t1.5 -27t5.5 -25.5t10.5 -18t18 -13.5t26.5 -4q62 0 62 82v4q0 15 5 21t36.5 11t99.5 5q40 0 63 -0.5t42.5 -2.5t28 -4t14.5 -8t7 -12t1 -18q0 -157 -98 -246.5t-261 -89.5q-157 0 -257.5 92.5t-100.5 243.5z" />
<glyph unicode="d" horiz-adv-x="819" d="M41 336v311q0 92 23 160t63 105t86.5 54t101.5 17q27 0 82 -20t68 -45q13 -21 15 -7l1 27v477q0 4 2 7t6.5 5.5t10 3.5t14 2t16.5 1.5t20.5 0.5t22.5 -0.5t25 -0.5h27h28.5t25.5 0.5t21 0.5h18t14.5 -1t11.5 -2t7.5 -3.5t5 -6t1.5 -7.5v-1397q0 -14 -12 -17q-9 -2 -34 -2 h-19q-10 0 -16 0.5t-17 0.5h-21q-25 0 -63 -1h-48.5t-28.5 4.5t-14 13.5t-4 28q0 33 -5 34q-4 -2 -11 -13q-13 -25 -68 -45.5t-82 -20.5q-55 0 -101.5 17t-86.5 54t-63 105t-23 160zM338 386q0 -8 1.5 -26t5.5 -26t10.5 -17.5t17.5 -13.5t26 -4t26.5 4t18 13.5t11 17.5 t5.5 25q2 17 2 27v12.5v17.5q0 22 -1 30v91q1 7 1 29v19v13q0 10 -1.5 26.5t-6 24.5t-11 17.5t-18 13.5t-26.5 4t-26 -4t-17.5 -13.5t-10.5 -17.5t-5.5 -25.5t-1.5 -25.5v-12v-20v-29v-91v-30v-18.5v-11.5z" />
<glyph unicode="e" horiz-adv-x="798" d="M41 336v311q0 151 100.5 243.5t257.5 92.5q163 0 261 -89.5t98 -246.5v-174q0 -21 -5.5 -25t-37.5 -4h-344h-8.5h-8t-6 -1t-5 -2.5t-2.5 -5t-2.5 -9t-0.5 -12.5v-22.5v-23t0.5 -20.5t2 -19.5t4 -16t7.5 -14.5t11 -10t15.5 -7t20.5 -2q62 0 62 81q0 10 22 11.5t111 1.5h32 q86 0 109 -5t23 -32q0 -157 -98 -246.5t-261 -89.5q-157 0 -257.5 92.5t-100.5 243.5zM338 641q0 -49 9.5 -61.5t51.5 -12.5t52 13t10 65q0 57 -16 77.5t-46 20.5q-31 0 -46 -22t-15 -80z" />
<glyph unicode="f" horiz-adv-x="606" d="M41 813q0 107 3 129.5t22 22.5q5 0 15.5 -0.5t17 -0.5t14 1t10.5 4q4 4 5 22.5t1 106.5q0 151 100.5 243.5t257.5 92.5h74q19 0 22 -22.5t3 -129.5q0 -69 -4 -101.5t-9.5 -38t-17.5 -5.5h-68q-19 0 -30 -9.5t-15.5 -32.5t-5 -36t-0.5 -45q0 -39 6 -45q3 -2 14 -3.5 t27 -1.5h30t29 0.5t19 0.5q19 0 22 -22.5t3 -129.5q0 -35 -1 -58t-2.5 -35.5t-5 -17.5t-5.5 -6t-8 0.5t-9 1.5q-60 0 -83 -3t-29.5 -10.5t-6.5 -27.5v-620q0 -27 -22 -32t-129 -5h-22q-96 0 -115 4.5t-19 28.5v624q0 30 -7.5 35.5t-49.5 5.5q-3 0 -9 -1.5t-8 -0.5t-5.5 6 t-5 17.5t-2.5 35.5t-1 58z" />
<glyph unicode="g" horiz-adv-x="819" d="M41 -74q0 17 15 20q10 2 43 2h24q45 -1 76 -1q15 0 30 0.5t25 1.5t19.5 1.5t16 1t12 0.5t8.5 -1t5 -3t3 -5.5t1 -8.5q0 -47 25.5 -72.5t54.5 -25.5q82 0 82 174q0 67 -6 67q-4 -2 -10 -11q-15 -27 -56 -46.5t-83 -19.5q-43 0 -82.5 10t-77 34.5t-65 62t-44 96.5 t-16.5 133v311q0 74 16.5 133t44 96.5t65 62t77 34.5t82.5 10q51 0 87.5 -27.5t55.5 -62.5q11 -18 12 9v36q0 34 16 40q14 6 63 6h16q12 0 19 -0.5t20 -0.5h24q22 0 54 1h31t20 -1.5t11 -5.5t3 -12v-1039q0 -157 -98 -246.5t-261 -89.5q-157 0 -257.5 92.5t-100.5 243.5z M338 386q0 -9 1.5 -26.5t5.5 -25.5t10.5 -17.5t17.5 -13.5t26 -4t26.5 4t18 13.5t11 17.5t5.5 25t2 27v12v18q-1 22 -1 30v91q0 8 1 29v19v13q-1 9 -2 26t-5.5 25t-11 17.5t-18 13.5t-26.5 4t-26 -4t-17.5 -13.5t-10.5 -17.5t-5.5 -25.5t-1.5 -25.5q-1 -5 -1 -12.5t1 -19.5 v-29v-91v-30q-1 -11 -1 -18.5t1 -11.5z" />
<glyph unicode="h" d="M61 18v1397q0 4 1.5 7.5t5 6t7.5 3.5t11.5 2t14.5 1h18.5t21.5 -0.5t25.5 -0.5h28.5h27t25 0.5t22 0.5t20 -0.5t16.5 -1.5t14 -2t10 -3.5t6.5 -5.5t2 -7v-477q0 -32 4 -33t12 13q14 25 67 45t83 20q55 0 101.5 -17t86.5 -54t63 -105t23 -160v-624q0 -15 -27 -19t-116 -4 q-109 0 -136.5 2.5t-27.5 13.5v547v19v19.5v18.5t-1.5 18t-4 15t-6 14t-9 10t-13 7t-17.5 2q-13 0 -22 -3.5t-14.5 -11.5t-9 -15t-4.5 -21t-1.5 -22t0 -25.5t0.5 -24.5v-538q0 -19 -18.5 -22t-115.5 -3h-30q-103 0 -123.5 2.5t-20.5 15.5z" />
<glyph unicode="i" horiz-adv-x="430" d="M47 1270q4 37 10.5 62t23 50.5t48.5 37.5q27 10 67 10h13q66 -3 108.5 -51t47.5 -117q3 -24 3 -46v-22q-2 -32 -13.5 -55t-47.5 -40t-100 -24q-7 -1 -14 -1q-63 0 -107 56q-40 51 -41 112q0 14 2 28zM61 31v915q0 28 19.5 32.5t128.5 4.5q118 0 139 -5.5t21 -33.5v-909 q0 -25 -21.5 -30t-138.5 -5q-108 0 -128 4.5t-20 26.5z" />
<glyph unicode="j" horiz-adv-x="430" d="M-88 -258q0 69 4 101.5t9.5 38t17.5 5.5h67q19 0 30 9.5t15.5 32.5t5 36t0.5 45v936q0 28 19.5 32.5t128.5 4.5q118 0 139 -5.5t21 -33.5v-1018q0 -151 -101 -243.5t-258 -92.5h-73q-19 0 -22 22.5t-3 129.5zM47 1270q4 37 10.5 62t23 50.5t48.5 37.5q27 10 67 10h13 q66 -3 108.5 -51t47.5 -117q3 -24 3 -46v-22q-3 -31 -14 -54.5t-47 -40.5t-100 -24q-7 -1 -14 -1q-63 0 -107 56q-41 51 -41 112q0 14 2 28z" />
<glyph unicode="k" horiz-adv-x="823" d="M61 33v1370q0 29 148 29q160 0 160 -31v-715q0 -35 10 -34l4 3q15 19 23 43q14 49 36.5 129.5t38.5 135.5q6 20 117 20h32t39.5 -0.5t44.5 -2t37 -3.5t28 -5.5t7 -8.5q-132 -307 -143 -332q-18 -40 -18 -53q0 -29 12 -56q184 -463 184 -500q0 -5 -5 -9q-7 -5 -48.5 -9 t-120.5 -4q-116 0 -125 29q-39 115 -80 245q-12 40 -29 40q-6 0 -12 -5q-2 -1 -8 -5.5t-9 -7.5t-7 -8.5t-6 -11.5t-2 -14v-225q0 -35 -160 -35q-148 0 -148 31z" />
<glyph unicode="l" horiz-adv-x="430" d="M61 31v1364q0 28 19.5 32.5t128.5 4.5q118 0 139 -5.5t21 -33.5v-1358q0 -25 -21.5 -30t-138.5 -5q-108 0 -128 4.5t-20 26.5z" />
<glyph unicode="m" horiz-adv-x="1249" d="M61 18v947q0 14 12 17q9 2 34 2h19q32 -1 54 -1q25 0 63 1h48.5t28.5 -4.5t14 -13.5t4 -28q0 -32 4 -33t12 13q14 27 60.5 46t89.5 19q49 0 85 -15t50 -33t24 -33t13 -15q6 0 18 15t28.5 33t58.5 33t102 15q55 0 106 -17.5t97 -54t74 -105t28 -159.5v-624q0 -15 -27 -19 t-117 -4q-109 0 -136 2.5t-27 13.5v547v19v20t-0.5 18t-2 18t-3.5 15t-6 14t-9.5 10t-13 7t-17.5 2q-13 0 -22 -3.5t-14.5 -11.5t-9 -15t-4.5 -21t-1.5 -22t0 -25.5t0.5 -24.5v-540q0 -15 -27 -19t-116 -4q-109 0 -136.5 2.5t-27.5 13.5v547v19v19.5v18.5t-1.5 18t-4 15 t-6 14t-9 10t-13 7t-17.5 2q-13 0 -22 -3.5t-14.5 -11.5t-9 -15t-4.5 -21t-1.5 -22t0 -25.5t0.5 -24.5v-538q0 -19 -18.5 -22t-115.5 -3h-30q-103 0 -123.5 2.5t-20.5 15.5z" />
<glyph unicode="n" d="M61 18v947q0 14 12 17q9 2 34 2h19q32 -1 54 -1q25 0 63 1h48.5t28.5 -4.5t14 -13.5t4 -28q0 -32 4 -33t12 13q13 25 68 45t82 20q55 0 101.5 -17t86.5 -54t63 -105t23 -160v-624q0 -15 -27 -19t-116 -4q-109 0 -136.5 2.5t-27.5 13.5v547v19v19.5v18.5t-1.5 18t-4 15 t-6 14t-9 10t-13 7t-17.5 2q-13 0 -22 -3.5t-14.5 -11.5t-9 -15t-4.5 -21t-1.5 -22t0 -25.5t0.5 -24.5v-538q0 -19 -18.5 -22t-115.5 -3h-30q-103 0 -123.5 2.5t-20.5 15.5z" />
<glyph unicode="o" horiz-adv-x="798" d="M41 336v311q0 151 100.5 243.5t257.5 92.5q163 0 261 -89.5t98 -246.5v-311q0 -157 -98 -246.5t-261 -89.5q-157 0 -257.5 92.5t-100.5 243.5zM338 386q0 -8 1.5 -26t5.5 -26t10.5 -17.5t17.5 -13.5t26 -4t26.5 4t18 13.5t11 17.5t5.5 25q2 17 2 27v12.5v17.5q0 22 -1 30 v91q1 7 1 29v19v13q0 10 -1.5 26.5t-6 24.5t-11 17.5t-18 13.5t-26.5 4t-26 -4t-17.5 -13.5t-10.5 -17.5t-5.5 -25.5t-1.5 -25.5v-12v-20v-29v-91v-30v-18.5v-11.5z" />
<glyph unicode="p" horiz-adv-x="819" d="M61 -391v1356q0 14 12 17q9 2 34 2h19q32 -1 54 -1q25 0 63 1h48.5t28.5 -4.5t14 -13.5t4 -28q0 -42 6 -43q4 0 9 8l1 2q16 30 55.5 54t84.5 24q55 0 103 -17t90 -54t66.5 -105t24.5 -160v-311q0 -78 -25 -143t-66 -106t-91 -64t-102 -23q-24 0 -75.5 21t-64.5 45 q-13 21 -15 5q-1 -7 -1 -26v-438q0 -2 1 -6q1 -8 -8 -9q-12 -2 -103 -2h-1h-1h-1h-1h-1h-1h-1h-1h-1h-1h-1h-1h-1h-10q-101 0 -122.5 3t-21.5 16zM358 399q0 -8 0.5 -22t2 -21.5t4 -18t7.5 -16t11.5 -11.5t15.5 -8.5t21 -2.5q15 0 26.5 4t18 13.5t10.5 18t5.5 25t1.5 26.5 t-0.5 30.5t-0.5 29.5v91q0 9 0.5 29.5t0.5 30.5t-1.5 26.5t-5.5 25t-10.5 18t-18 13.5t-26.5 4q-12 0 -21 -2.5t-15.5 -8.5t-11.5 -11.5t-7.5 -16t-4 -18t-2 -21.5t-0.5 -22q-1 -4 -1 -10t1 -14v-23v-91v-24q-1 -7 -1 -13t1 -10z" />
<glyph unicode="q" horiz-adv-x="819" d="M41 336v311q0 74 16.5 133t44 96.5t65 62t77 34.5t82.5 10q42 0 82.5 -25t56.5 -55q14 -23 16 13v22q0 34 16 40q14 6 63 6h16q12 0 19 -0.5t20 -0.5h24q22 0 54 1h31t20 -1.5t11 -5.5t3 -12v-1356q0 -13 -21.5 -16t-122.5 -3q-127 0 -133 4q-1 2 0 13v438q0 33 -5 34 q-4 -2 -11 -13q-13 -24 -64 -45t-75 -21q-111 0 -198 92t-87 244zM338 386q0 -9 1.5 -26.5t5.5 -25.5t10.5 -17.5t17.5 -13.5t26 -4t26.5 4t18 13.5t11 17.5t5.5 25t2 27v12v18q-1 22 -1 30v91q0 8 1 29v19v13q-1 9 -2 26t-5.5 25t-11 17.5t-18 13.5t-26.5 4t-26 -4 t-17.5 -13.5t-10.5 -17.5t-5.5 -25.5t-1.5 -25.5q-1 -5 -1 -12.5t1 -19.5v-29v-91v-30q-1 -11 -1 -18.5t1 -11.5z" />
<glyph unicode="r" horiz-adv-x="593" d="M61 18v947q0 14 12 17q9 2 34 2h19q32 -1 54 -1q25 0 63 1h48.5t28.5 -4.5t14 -13.5t4 -28q0 -36 5 -36q3 -1 10 9q0 1 1 2q18 33 58.5 51.5t132.5 18.5q17 0 21 -10q7 -18 7 -152v-13q0 -91 -3.5 -106.5t-24.5 -15.5h-94q-24 0 -40 -9.5t-24.5 -21t-12.5 -36t-4.5 -41 t-0.5 -48.5v-505q0 -19 -18.5 -22t-115.5 -3h-30q-103 0 -123.5 2.5t-20.5 15.5z" />
<glyph unicode="s" horiz-adv-x="747" d="M31 336q0 10 19 12t108 2h43q71 0 93.5 -1.5t22.5 -8.5q0 -59 8.5 -81.5t41.5 -22.5q28 0 38.5 18t10.5 51q0 22 -16.5 38.5t-43 26.5t-60.5 22t-69.5 24t-69.5 35.5t-60.5 53.5t-43 80t-16.5 113q0 115 100.5 200t231.5 85q133 0 232 -94.5t99 -241.5q0 -8 -56 -8h-13 h-56q-101 0 -136.5 1.5t-35.5 8.5q0 56 -9 77.5t-34 21.5q-21 0 -28.5 -16t-7.5 -50q0 -17 21.5 -31.5t56.5 -28.5t76.5 -30t83.5 -42t77 -59.5t56.5 -86.5t21.5 -119q0 -117 -96 -201t-246 -84t-247 90t-97 246z" />
<glyph unicode="t" horiz-adv-x="606" d="M20 815q0 60 4 90.5t10 37.5t17 7q40 0 49 6.5t9 34.5v131q0 12 3.5 17.5t20.5 9.5t45 5t86 1q105 0 128.5 -5.5t23.5 -31.5v-127q0 -13 1.5 -19t6.5 -11.5t19.5 -7t34.5 -2.5t57 -1q12 0 17.5 -7t9 -37t3.5 -91q0 -76 -3.5 -93t-20.5 -17q-113 0 -119 -5q-6 -6 -6 -45 v-268q0 -31 10 -52t26 -30t28 -12.5t24 -3.5h31q12 0 17 -6t9 -38t4 -100q0 -51 -1 -78t-4 -43t-7 -20t-12 -4h-74q-163 0 -260.5 84.5t-97.5 251.5q0 357 -7 364q-6 5 -57 5q-10 0 -15 7.5t-7.5 31.5t-2.5 71z" />
<glyph unicode="u" d="M61 336v625q0 15 26.5 18.5t117.5 3.5q53 0 82 -1t45.5 -3.5t21 -6.5t4.5 -11v-515q0 -7 -0.5 -22.5t0 -23.5t1 -22t2 -21.5t4 -18t7.5 -16.5t11.5 -12t15.5 -8.5t21 -2.5q15 0 26.5 4t18 13.5t10.5 18.5t5.5 25.5t1.5 26.5t-0.5 30t-0.5 29v504v1q0 23 20.5 27.5 t133.5 4.5q102 0 122.5 -2.5t20.5 -15.5v-947q0 -14 -12 -17q-9 -2 -34 -2h-19q-10 0 -16 0.5t-17 0.5h-21q-25 0 -63 -1h-47.5t-29 4.5t-14 13.5t-3.5 28q0 44 -8 44q-3 0 -9 -9q-17 -32 -54.5 -56t-84.5 -24q-43 0 -82.5 10t-77 34.5t-65 62t-44 96.5t-16.5 133z" />
<glyph unicode="v" horiz-adv-x="749" d="M10 958q0 8 10 12q12 6 35 7.5t42 2.5t42 1q168 0 170 -29q22 -238 45 -518q0 -20 13 -20q14 0 14 22q29 237 59 518q1 15 57 22t109 7q58 0 98 -8q36 -7 36 -23q0 -2 -1 -4q-141 -523 -250 -915q-9 -33 -131 -33h-8q-29 0 -44.5 0.5t-36.5 4t-32.5 12t-15.5 22.5 q-37 157 -107 463z" />
<glyph unicode="w" horiz-adv-x="946" d="M41 946q-1 12 35 22q38 10 88 11q135 0 135 -33q30 -296 45 -477q0 -20 12 -20q15 0 15 22q10 280 16 485q0 25 82 25q104 0 104 -25q8 -218 15 -479q0 -20 12 -20q8 0 11 7.5t1 14.5q30 463 31 482q0 22 109 22q151 0 151 -27v-2q-136 -892 -143 -934q-3 -20 -41 -22 q-13 -1 -25 -1q-24 0 -45 3q-4 0 -22.5 1t-33 2t-31.5 3.5t-27 7.5t-11 13q-10 107 -30 266q0 1 -1 4.5t-1.5 5l-1.5 4.5t-2.5 4.5t-3.5 2.5t-5 1q-12 0 -12 -20q-6 -43 -43 -277q-4 -19 -85 -19q-20 0 -46 1q-4 0 -21.5 1t-29.5 2t-27.5 3.5t-24.5 7.5t-10 13 q-25 169 -78 515q-61 400 -61 404z" />
<glyph unicode="x" horiz-adv-x="808" d="M205 449q6 14 6 47q0 39 -8 55q-110 265 -168 403q-3 9 38.5 17t82.5 8q177 0 182 -27q9 -44 24.5 -116.5t22.5 -106.5q6 -18 12 -18q4 0 6 3t3 10l2 7q41 200 47 232q4 16 166 16q19 0 39 -1.5t36.5 -4t29 -5.5t19 -6.5t5.5 -7.5q-31 -75 -87.5 -208.5t-80.5 -192.5 q-9 -21 -9 -55q0 -28 7 -45q15 -33 86.5 -189t111.5 -241v-1q0 -4 -10 -8q-40 -16 -117 -16q-171 0 -178 22q-15 53 -63 240q-6 19 -13 19q-9 0 -14 -21q-44 -167 -64 -233q-9 -27 -167 -27q-44 0 -84 8q-37 7 -37 17z" />
<glyph unicode="y" horiz-adv-x="763" d="M31 963q0 11 42 15q45 5 105 5q142 0 144 -29q9 -93 16.5 -173.5t16 -173.5t14.5 -163q0 -20 12 -20q14 0 14 22q10 104 24.5 256.5t24.5 255.5q2 25 154 25q49 0 94 -7q41 -6 41 -20v-2q-264 -1039 -338 -1337q-6 -27 -129 -27q-22 0 -40.5 1t-43 4t-38 10t-11.5 18 q32 151 80 383q8 36 8 62q0 43 -4 57q-31 134 -61 269t-66 296q-59 272 -59 273z" />
<glyph unicode="z" horiz-adv-x="702" d="M39 274q1 23 6 29q64 83 154 197t125 159q10 14 4.5 39.5t-19.5 36.5q-10 4 -43 4h-172q-33 0 -33 105q0 139 27 139h526q11 0 18.5 -2.5t12 -10t7 -14t4 -22.5t1.5 -27v-35q0 -7 0.5 -30.5t0.5 -42.5t-0.5 -41t-3 -37.5t-7.5 -22.5q-117 -161 -293 -385 q-6 -9 -1.5 -30.5t12.5 -26.5q10 -6 61 -6h213q17 0 24 -44t7 -93v-14q0 -23 -0.5 -35.5t-3 -30t-9.5 -25.5t-18 -8h-561q-23 0 -30 39t-7 108q1 17 -1 61q-1 26 -1 44v22z" />
<glyph unicode="{" horiz-adv-x="636" d="M39 713q0 88 10 88q39 0 72 39t33 84v303q0 101 27.5 170.5t83 108.5t127.5 55t173 16q4 0 6.5 -8.5t3 -25t1 -29t0 -33t-0.5 -25.5q0 -119 -10 -119q-69 0 -103 -34.5t-34 -90.5v-313q0 -50 -11 -88.5t-25 -55t-25 -28t-11 -14.5t11 -15t25 -29t25 -55t11 -88 q0 -68 1 -126.5t1 -178.5q0 -64 32 -94.5t103 -30.5q10 0 10 -119q0 -5 0.5 -25t0 -33t-1 -29t-3 -24.5t-6.5 -8.5q-101 0 -173 16t-127.5 55t-83 108.5t-27.5 170.5v299q0 44 -34 83.5t-71 39.5q-10 0 -10 84z" />
<glyph unicode="|" horiz-adv-x="430" d="M61 -117v1663q0 31 144 31q164 0 164 -33v-1657q0 -11 -13.5 -17.5t-43 -9t-46.5 -3t-53 -0.5h-13q-28 0 -45 0.5t-42.5 2.5t-38.5 8t-13 15z" />
<glyph unicode="}" horiz-adv-x="636" d="M61 -23q0 119 11 119q71 0 103 30.5t32 94.5q0 120 1 178.5t1 126.5q0 50 11.5 88t24.5 55t24.5 29t11.5 15t-11.5 14.5t-24.5 28t-24.5 55t-11.5 88.5v313q0 56 -34 90.5t-103 34.5q-11 0 -11 119v17.5v22v22.5t1 22.5t2 18.5t3 13.5t5 4.5q101 0 173 -16t127.5 -55 t83 -108.5t27.5 -170.5v-303q0 -45 33 -84t72 -39q10 0 10 -88q0 -84 -10 -84q-37 0 -71 -39.5t-34 -83.5v-299q0 -101 -27.5 -170.5t-83 -108.5t-127.5 -55t-173 -16q-3 0 -5 4.5t-3 13.5l-2 18t-1 22v22.5v22v17.5z" />
<glyph unicode="~" horiz-adv-x="739" d="M78 674q-17 27 74 100q37 30 83.5 56t73.5 26q29 0 58 -16t47 -39q4 -5 15.5 -20t15.5 -20t12 -13t14.5 -10.5t13.5 -2.5q25 0 119 82q42 37 62 4q47 -85 49 -88q9 -16 -31.5 -54.5t-91.5 -72.5q-72 -49 -117 -49q-7 0 -13.5 1.5t-11.5 3.5t-11.5 7t-10.5 8t-12 11.5 t-11.5 12.5t-13 15.5t-14.5 16.5q-36 40 -47 45q-11 6 -27 6q-5 0 -11 -2t-13 -6t-13 -8t-15 -12t-15.5 -14t-18.5 -16.5l-20 -17.5q-53 -46 -70 -20q-31 48 -49 86z" />
<glyph unicode="&#xa1;" horiz-adv-x="458" d="M72 1075q-5 -78 26.5 -123.5t124.5 -56.5q69 -9 119 52.5t41 137.5q-4 35 -11 59.5t-23 49.5t-48 36.5t-78 8.5q-63 -4 -104.5 -50.5t-46.5 -113.5zM76 -168q0 -28 21 -33.5t139 -5.5q109 0 128 4.5t19 32.5v934q0 22 -19.5 26.5t-127.5 4.5q-117 0 -138.5 -5t-21.5 -30 v-928z" />
<glyph unicode="&#xa2;" d="M61 336v311q0 55 14 102t30.5 75.5t48 57t47.5 39t49 30.5q8 5 12 7q7 4 10.5 9t4 7t0 8t-0.5 7v144q0 22 144 22q164 0 164 -16v-160q0 -2 -0.5 -6t0 -6t1.5 -5t3.5 -6t7.5 -6q67 -40 96 -68q86 -87 86 -235q0 -23 -24.5 -28t-149.5 -5q-94 0 -113.5 3t-19.5 18 q0 7 -3 17t-15.5 22t-32.5 12q-13 0 -22 -3.5t-14.5 -11.5t-9 -15t-4.5 -21t-1.5 -22t0 -25.5t0.5 -24.5v-143q0 -7 -0.5 -24.5t0 -25.5t1.5 -22t4.5 -21t9 -15t14.5 -11.5t22 -3.5q26 0 38.5 18.5t12.5 32.5t6 19.5t39.5 9.5t106.5 4q76 0 107 -3.5t39.5 -12t8.5 -29.5 q0 -68 -19 -124t-50.5 -92t-58.5 -57t-58 -36q-10 -5 -10 -27v-111q0 -26 -162 -26q-48 0 -96 6.5t-48 19.5v107q0 26 -8 29q-84 34 -145.5 113.5t-61.5 197.5z" />
<glyph unicode="&#xa3;" horiz-adv-x="860" d="M81.5 46.5q-0.5 5.5 0 16.5t0.5 15v1020q0 151 100.5 243.5t257.5 92.5q161 0 251.5 -89t90.5 -247v-131q0 -11 -6 -16t-41 -9t-108 -4h-48q-21 -1 -36.5 -1t-24.5 2t-13.5 6.5t-4.5 12.5v119q0 17 -15 42.5t-45 25.5q-59 0 -59 -131v-137q0 -3 -0.5 -11t0 -12.5t1.5 -11 t3.5 -11.5t7.5 -8q11 -8 45 -8h101q16 0 19 -15t3 -90v-40v-52q1 -63 -2 -75.5t-20 -12.5h-93q-39 0 -51 -6q-5 -3 -8.5 -7.5t-4.5 -11.5l-1.5 -10.5t0 -14.5t0.5 -15v-98q0 -76 10 -82q15 -9 70 -9h305h4q16 0 19.5 -16.5t3.5 -109.5q0 -108 -3.5 -129t-21.5 -21h-592 q-7 0 -19.5 -0.5t-20 -0.5t-16.5 1t-15.5 3t-10.5 5q-5 4 -7.5 9.5t-3.5 14.5t-1.5 14.5z" />
<glyph unicode="&#xa4;" horiz-adv-x="890" d="M31 735q0 -61 5 -77.5t25 -16.5h86q19 0 23 -5t4 -22v-340q0 -19 16.5 -34t40.5 -15h103q8 0 10 -2.5t2 -11.5v-184q0 -21 14 -24t89 -3q69 0 82.5 4t13.5 27v176q0 18 14 18h115q18 0 30.5 19.5t12.5 52.5v317q0 12 1 16.5t6.5 7.5t18.5 3h91q19 0 22.5 11.5t3.5 61.5 v21q0 74 -4 89.5t-27 15.5h-88q-7 0 -12 1.5t-7.5 2.5t-3.5 5.5t-1 6.5v10v279q0 27 -15.5 45t-35.5 18h-101q-20 0 -20 17v176q0 15 -12 22.5t-30 9t-54 1.5q-103 0 -103 -31v-180q0 -15 -16 -15h-101q-16 0 -35.5 -17t-19.5 -36v-283v-5q0 -11 -0.5 -15.5t-6 -8 t-17.5 -3.5h-87q-23 0 -27.5 -16.5t-4.5 -88.5zM373 459v520q0 19 4.5 25t17.5 6h101q13 0 17.5 -6t4.5 -25v-520q0 -20 -8.5 -27.5t-26.5 -7.5h-75q-18 0 -26.5 7.5t-8.5 27.5z" />
<glyph unicode="&#xa5;" horiz-adv-x="761" d="M0 1403q-3 9 12 15.5t41.5 9t45.5 3.5t38 1q162 0 166 -33q12 -87 36 -246t36 -244q0 -18 12 -18q10 0 10 20q15 103 35 262t29 226q5 33 153 33q26 0 46.5 -1t45.5 -3.5t37.5 -8.5t10.5 -16q-48 -182 -162 -561q-7 -23 18 -23q88 0 88 -33q0 -5 1 -27t0.5 -38.5 t-3.5 -26.5q-3 -12 -5 -16.5t-12.5 -10t-29.5 -5.5h-78q-19 0 -22 -2t-6 -15q-3 -10 -3.5 -15t0 -8t-0.5 -12v-53v-8t1.5 -5.5t4.5 -4t8 -1.5t14 -1q65 0 95 -4t36.5 -10t6.5 -19q0 -6 -1.5 -29t-1.5 -42.5t3 -29.5q4 -15 -3.5 -23.5t-35.5 -8.5h-115q-16 0 -16 -19v-336 q0 -16 -154 -16q-150 0 -150 23q0 90 -1 183t-1 142q0 16 -3 20.5t-15 4.5h-105q-14 0 -32.5 9.5t-14.5 29.5q5 27 0 94q-1 18 12 24.5t48 6.5h92q14 0 14 20q0 31 -2 43q-3 28 -6 43q-2 19 -27 19h-84q-15 0 -33 9t-14 29q5 25 0 88q-2 19 18.5 25t84.5 6q5 0 8 9t0 20 q-25 83 -80 260t-90 295z" />
<glyph unicode="&#xa6;" horiz-adv-x="890" d="M31 735q0 -61 5 -77.5t25 -16.5h86q19 0 23 -5t4 -22v-340q0 -19 16.5 -34t40.5 -15h103q8 0 10 -2.5t2 -11.5v-184q0 -21 14 -24t89 -3q69 0 82.5 4t13.5 27v176q0 18 14 18h115q18 0 30.5 19.5t12.5 52.5v317q0 12 1 16.5t6.5 7.5t18.5 3h91q19 0 22.5 11.5t3.5 61.5 v21q0 74 -4 89.5t-27 15.5h-88q-7 0 -12 1.5t-7.5 2.5t-3.5 5.5t-1 6.5v10v279q0 27 -15.5 45t-35.5 18h-101q-20 0 -20 17v176q0 15 -12 22.5t-30 9t-54 1.5q-103 0 -103 -31v-180q0 -15 -16 -15h-101q-16 0 -35.5 -17t-19.5 -36v-283v-5q0 -11 -0.5 -15.5t-6 -8 t-17.5 -3.5h-87q-23 0 -27.5 -16.5t-4.5 -88.5zM373 459v520q0 19 4.5 25t17.5 6h101q13 0 17.5 -6t4.5 -25v-520q0 -20 -8.5 -27.5t-26.5 -7.5h-75q-18 0 -26.5 7.5t-8.5 27.5z" />
<glyph unicode="&#xa7;" horiz-adv-x="821" d="M68 1087q0 88 30.5 156.5t81.5 109t111.5 61t126.5 20.5q147 0 242.5 -83t95.5 -247v-105q0 -12 -34.5 -16t-127.5 -4h-37q-49 -1 -62.5 2.5t-13.5 19.5v37q0 65 -11.5 94t-53.5 29q-45 0 -57.5 -26.5t-12.5 -83.5q0 -32 22.5 -57t59 -43.5t80 -38t87 -46.5t80 -62.5 t59 -92.5t22.5 -129q0 -65 -36.5 -107.5t-66.5 -42.5q-6 0 -7.5 -7t1.5 -11q5 -8 20.5 -18.5t32.5 -24.5t33.5 -36.5t27.5 -63.5t11 -95q0 -73 -23 -131t-58 -92.5t-82 -57t-90 -30.5t-87 -8q-43 0 -88.5 10t-94.5 35.5t-87.5 62.5t-63 97t-24.5 133v79q0 27 155 27h14 q117 1 117 -22v-62q0 -30 18 -58t56 -28q78 0 78 80q0 32 -23.5 57t-61.5 43.5t-84 37.5t-92 44t-84 57t-61.5 83t-23.5 116q0 58 36 94.5t66 36.5q10 0 3 12l-5 7q-57 60 -85.5 121t-28.5 167zM324 674q0 -43 36 -77.5t72 -49.5t55 -15q10 0 16.5 3t12.5 16.5t6 38.5 q0 41 -67.5 83t-108.5 42q-22 0 -22 -41z" />
<glyph unicode="&#xa8;" d="M129 1237q-6 58 31.5 104.5t91.5 40.5q62 -8 89.5 -27.5t28 -47t-0.5 -64.5q-3 -52 -35.5 -87t-81.5 -38q-36 -3 -60.5 5.5t-37 28t-17.5 38.5t-8 47zM471 1237q-6 58 31.5 104.5t91.5 40.5q62 -8 89.5 -27.5t28 -47t-0.5 -64.5q-3 -52 -35.5 -87t-81.5 -38 q-36 -3 -60.5 5.5t-37 28t-17.5 38.5t-8 47z" />
<glyph unicode="&#xa9;" horiz-adv-x="1134" d="M70 938q0 135 66.5 249.5t181 181.5t249.5 67q136 0 251 -67t182 -181.5t67 -249.5q0 -136 -67 -250t-182 -180t-251 -66q-135 0 -249.5 66t-181 180t-66.5 250zM180 940q0 -161 114.5 -274t276.5 -113t276 113t114 274t-114.5 276t-275.5 115t-276 -115t-115 -276z M399 838v217q0 79 55.5 125.5t116.5 46.5q64 0 118 -47t54 -117q0 -5 -17 -9.5t-30 -4.5q-45 0 -45 6q0 34 -26 54.5t-54 20.5q-27 0 -54.5 -19t-27.5 -56v-215q0 -34 25 -53t57 -19q30 0 55 17.5t25 52.5q0 8 45 8q4 0 11.5 0.5t13 0.5t11 -0.5t8.5 -2.5t3 -6 q0 -72 -52.5 -122t-119.5 -50t-119.5 46t-52.5 126z" />
<glyph unicode="&#xaa;" horiz-adv-x="368" d="M41 944q0 47 20 47h261q8 0 8 -49t-6 -49h-265q-12 0 -15 11t-3 40zM41 1178v125q0 71 32 102t79 31q18 0 36 -12t25 -25q3 -6 4 5v15q0 4 0.5 6.5t1.5 4.5t2.5 3.5t4.5 2l6 1t8.5 0.5t10.5 -0.5t13.5 -0.5h16.5q43 0 44 -1q3 -1 3 -5v-379q0 -7 -7.5 -8t-39.5 -1h-20 q-29 -1 -36.5 2t-7.5 17q0 19 -3 19q-1 0 -3 -3q-7 -12 -23.5 -23.5t-33.5 -11.5q-47 0 -80 32.5t-33 103.5zM164 1181.5q0 -5.5 1.5 -8.5t3.5 -6t6 -4.5t9 -1.5t9 1.5t6 4.5t3.5 6t2 8.5t0.5 8.5v10v10v58v10.5v10.5t-0.5 8.5t-2 8t-3.5 6t-6 4.5t-9 1t-9 -1.5t-6 -4 t-3.5 -5.5t-1.5 -8.5v-9v-10v-10.5v-58v-9.5v-10v-9z" />
<glyph unicode="&#xab;" horiz-adv-x="794" d="M20 506q0 20 131 206t144 177q6 -3 44.5 -24.5t49.5 -26.5q37 -8 10 -47q-178 -267 -178 -283q0 -10 60.5 -109.5t113.5 -177.5q27 -41 -10 -49q-9 -3 -30.5 -14t-45.5 -24.5t-30 -16.5q-13 -8 -136 180t-123 209zM362 506q0 20 131 206t144 177q6 -3 44.5 -24.5 t49.5 -26.5q37 -8 10 -47q-178 -267 -178 -283q0 -10 60.5 -109.5t113.5 -177.5q27 -41 -10 -49q-9 -3 -30.5 -14t-45.5 -24.5t-30 -16.5q-13 -8 -136 180t-123 209z" />
<glyph unicode="&#xac;" horiz-adv-x="890" d="M31 735q0 -61 5 -77.5t25 -16.5h86q19 0 23 -5t4 -22v-340q0 -19 16.5 -34t40.5 -15h103q8 0 10 -2.5t2 -11.5v-184q0 -21 14 -24t89 -3q69 0 82.5 4t13.5 27v176q0 18 14 18h115q18 0 30.5 19.5t12.5 52.5v317q0 12 1 16.5t6.5 7.5t18.5 3h91q19 0 22.5 11.5t3.5 61.5 v21q0 74 -4 89.5t-27 15.5h-88q-7 0 -12 1.5t-7.5 2.5t-3.5 5.5t-1 6.5v10v279q0 27 -15.5 45t-35.5 18h-101q-20 0 -20 17v176q0 15 -12 22.5t-30 9t-54 1.5q-103 0 -103 -31v-180q0 -15 -16 -15h-101q-16 0 -35.5 -17t-19.5 -36v-283v-5q0 -11 -0.5 -15.5t-6 -8 t-17.5 -3.5h-87q-23 0 -27.5 -16.5t-4.5 -88.5zM373 459v520q0 19 4.5 25t17.5 6h101q13 0 17.5 -6t4.5 -25v-520q0 -20 -8.5 -27.5t-26.5 -7.5h-75q-18 0 -26.5 7.5t-8.5 27.5z" />
<glyph unicode="&#xad;" horiz-adv-x="559" d="M61 463q7 34 0 119q-1 18 13.5 24t50.5 6h268q94 3 94 -32q0 -98 7 -125q4 -15 -3.5 -24t-35.5 -9q-74 0 -183 1t-163 1q-15 0 -33.5 9.5t-14.5 29.5z" />
<glyph unicode="&#xae;" horiz-adv-x="1134" d="M70 936q0 136 66.5 251t181 182t249.5 67q136 0 251 -67t182 -182t67 -251q0 -205 -146.5 -350.5t-353.5 -145.5q-135 0 -249.5 66.5t-181 180.5t-66.5 249zM180 940q0 -161 114.5 -274t276.5 -113t276 113t114 274t-114.5 275t-275.5 114t-276 -114t-115 -275zM408 682 v524q0 15 8 21q12 4 35 4h129q44 0 77 -11.5t50.5 -27.5t28 -37.5t13.5 -37t3 -30.5v-28q0 -40 -21.5 -65.5t-42.5 -31.5l-22 -6l22 -4q21 -5 42.5 -24.5t21.5 -57.5v-188q0 -8 -9.5 -10t-40.5 -2q-49 0 -49 12v172q0 20 -19 35.5t-54 15.5q-42 0 -59 -3t-17 -17v-203 q0 -8 -8.5 -10t-42.5 -2q-45 0 -45 12zM504 1014v100v27h43q58 0 78 -11.5t20 -46.5v-34q0 -31 -19 -41.5t-75 -10.5q-33 0 -41 2q-6 2 -6 15z" />
<glyph unicode="&#xaf;" d="M143 1050.5q-2 16.5 0 40.5t5.5 48t9.5 40.5t12 16.5q5 0 103.5 -1t156.5 -1t151 2t99 2q5 0 11 -17t10 -41t6 -48t0 -41t-9 -17q-4 0 -40 -2t-98 -4t-132 -2q-71 0 -133 2t-98.5 4t-44.5 2q-7 0 -9 16.5z" />
<glyph unicode="&#xb0;" horiz-adv-x="587" d="M49 1227q11 85 34 133.5t54.5 63.5t72.5 17.5t89 -3.5q92 -5 154.5 -63.5t68.5 -147.5q4 -53 -6.5 -92t-28.5 -61.5t-49.5 -37t-59 -20.5t-67.5 -10q-69 -8 -132.5 19t-100.5 82t-29 120zM184 1227q-6 -43 33.5 -73.5t85.5 -25.5q23 3 36.5 6.5t28.5 13.5t21 29.5t4 49.5 q-1 36 -28 61.5t-66 30.5h-10q-26 0 -38.5 -1.5t-29 -9.5t-25 -28t-12.5 -53z" />
<glyph unicode="&#xb1;" horiz-adv-x="1572" d="M41 813q0 107 3 129.5t22 22.5q5 0 15.5 -0.5t17 -0.5t14 1t10.5 4q4 4 5 22.5t1 106.5q0 151 100.5 243.5t257.5 92.5h74q19 0 22 -22.5t3 -129.5q0 -69 -4 -101.5t-9.5 -38t-17.5 -5.5h-68q-30 0 -40.5 -25.5t-10.5 -97.5q0 -39 6 -45q3 -2 14 -3.5t27 -1.5h30t29 0.5 t19 0.5h41q5 0 15.5 -0.5t17 -0.5t14 1t10.5 4q7 7 7 129q0 151 100.5 243.5t257.5 92.5h74q19 0 21.5 -21t2.5 -131q0 -69 -4 -101t-9 -38t-17 -6h-68q-19 0 -30 -9.5t-15.5 -32.5t-5 -36t-0.5 -45q0 -39 6 -45q3 -2 14 -3.5t27 -1.5h30t29 0.5t19 0.5q19 0 21.5 -21 t2.5 -131q0 -35 -1 -58t-2 -35.5t-4.5 -17.5t-5.5 -6t-8 0.5t-9 1.5q-60 0 -83 -3t-29.5 -10.5t-6.5 -27.5v-620q0 -27 -22.5 -32t-129.5 -5h-22q-95 0 -114 4.5t-19 28.5v624q0 30 -8 35.5t-50 5.5h-53q-60 0 -83 -3t-29.5 -10.5t-6.5 -27.5v-620q0 -27 -22 -32t-129 -5 h-22q-96 0 -115 4.5t-19 28.5v624q0 30 -7.5 35.5t-49.5 5.5q-3 0 -9 -1.5t-8 -0.5t-5.5 6t-5 17.5t-2.5 35.5t-1 58zM1190 1270q4 37 10.5 62t23 50.5t48.5 37.5t80 10q66 -3 108 -51t47 -117q5 -36 3 -67.5t-13 -55t-47 -40.5t-100 -24q-72 -7 -121.5 55t-38.5 140z M1204 31v915q0 28 19 32.5t129 4.5q117 0 138 -5.5t21 -32.5v-1v-909q0 -25 -21 -30t-138 -5q-108 0 -128 4.5t-20 26.5z" />
<glyph unicode="&#xb2;" horiz-adv-x="890" d="M31 735q0 -61 5 -77.5t25 -16.5h86q19 0 23 -5t4 -22v-340q0 -19 16.5 -34t40.5 -15h103q8 0 10 -2.5t2 -11.5v-184q0 -21 14 -24t89 -3q69 0 82.5 4t13.5 27v176q0 18 14 18h115q18 0 30.5 19.5t12.5 52.5v317q0 12 1 16.5t6.5 7.5t18.5 3h91q19 0 22.5 11.5t3.5 61.5 v21q0 74 -4 89.5t-27 15.5h-88q-7 0 -12 1.5t-7.5 2.5t-3.5 5.5t-1 6.5v10v279q0 27 -15.5 45t-35.5 18h-101q-20 0 -20 17v176q0 15 -12 22.5t-30 9t-54 1.5q-103 0 -103 -31v-180q0 -15 -16 -15h-101q-16 0 -35.5 -17t-19.5 -36v-283v-5q0 -11 -0.5 -15.5t-6 -8 t-17.5 -3.5h-87q-23 0 -27.5 -16.5t-4.5 -88.5zM373 459v520q0 19 4.5 25t17.5 6h101q13 0 17.5 -6t4.5 -25v-520q0 -20 -8.5 -27.5t-26.5 -7.5h-75q-18 0 -26.5 7.5t-8.5 27.5z" />
<glyph unicode="&#xb3;" horiz-adv-x="890" d="M31 735q0 -61 5 -77.5t25 -16.5h86q19 0 23 -5t4 -22v-340q0 -19 16.5 -34t40.5 -15h103q8 0 10 -2.5t2 -11.5v-184q0 -21 14 -24t89 -3q69 0 82.5 4t13.5 27v176q0 18 14 18h115q18 0 30.5 19.5t12.5 52.5v317q0 12 1 16.5t6.5 7.5t18.5 3h91q19 0 22.5 11.5t3.5 61.5 v21q0 74 -4 89.5t-27 15.5h-88q-7 0 -12 1.5t-7.5 2.5t-3.5 5.5t-1 6.5v10v279q0 27 -15.5 45t-35.5 18h-101q-20 0 -20 17v176q0 15 -12 22.5t-30 9t-54 1.5q-103 0 -103 -31v-180q0 -15 -16 -15h-101q-16 0 -35.5 -17t-19.5 -36v-283v-5q0 -11 -0.5 -15.5t-6 -8 t-17.5 -3.5h-87q-23 0 -27.5 -16.5t-4.5 -88.5zM373 459v520q0 19 4.5 25t17.5 6h101q13 0 17.5 -6t4.5 -25v-520q0 -20 -8.5 -27.5t-26.5 -7.5h-75q-18 0 -26.5 7.5t-8.5 27.5z" />
<glyph unicode="&#xb4;" d="M199 1247q-6 15 15 32t62 32q38 10 142 49t110 41q32 12 48 11t20 -19q29 -82 43 -111q10 -18 -4.5 -34.5t-26.5 -18.5q-52 -19 -154.5 -58t-170.5 -63q-43 -16 -47 18q-2 20 -37 121z" />
<glyph unicode="&#xb5;" horiz-adv-x="890" d="M31 735q0 -61 5 -77.5t25 -16.5h86q19 0 23 -5t4 -22v-340q0 -19 16.5 -34t40.5 -15h103q8 0 10 -2.5t2 -11.5v-184q0 -21 14 -24t89 -3q69 0 82.5 4t13.5 27v176q0 18 14 18h115q18 0 30.5 19.5t12.5 52.5v317q0 12 1 16.5t6.5 7.5t18.5 3h91q19 0 22.5 11.5t3.5 61.5 v21q0 74 -4 89.5t-27 15.5h-88q-7 0 -12 1.5t-7.5 2.5t-3.5 5.5t-1 6.5v10v279q0 27 -15.5 45t-35.5 18h-101q-20 0 -20 17v176q0 15 -12 22.5t-30 9t-54 1.5q-103 0 -103 -31v-180q0 -15 -16 -15h-101q-16 0 -35.5 -17t-19.5 -36v-283v-5q0 -11 -0.5 -15.5t-6 -8 t-17.5 -3.5h-87q-23 0 -27.5 -16.5t-4.5 -88.5zM373 459v520q0 19 4.5 25t17.5 6h101q13 0 17.5 -6t4.5 -25v-520q0 -20 -8.5 -27.5t-26.5 -7.5h-75q-18 0 -26.5 7.5t-8.5 27.5z" />
<glyph unicode="&#xb6;" horiz-adv-x="1011" d="M61 807v291q0 157 98 246.5t261 89.5h469q19 0 28 -1t18 -7t12 -18.5t3 -35.5v-1327q0 -22 -11.5 -32t-28 -11.5t-59.5 -1.5h-9h-23q-53 0 -63.5 4.5t-10.5 30.5v1024q0 58 -4.5 70t-29.5 12q-24 0 -29.5 -12.5t-5.5 -65.5v-1002q0 -16 -1.5 -26.5t-8.5 -17.5t-11 -10.5 t-21 -5t-25.5 -1.5h-35.5h-23q-54 0 -66.5 4.5t-12.5 30.5v350q0 53 -12 69.5t-39 16.5q-163 0 -261 89.5t-98 246.5zM369 834q0 -12 1.5 -18t4 -15t6 -14t9 -10t13 -7t17.5 -2q40 0 45.5 2.5t5.5 22.5v319q0 20 -5.5 22.5t-45.5 2.5q-10 0 -17.5 -2t-13 -7t-9 -10t-6 -14 t-4 -15t-1.5 -18v-18.5v-19.5v-19v-123v-19v-19.5v-18.5z" />
<glyph unicode="&#xb7;" horiz-adv-x="421" d="M61 782q4 -34 10.5 -57t22 -46.5t45.5 -34t74 -7.5q61 4 100.5 48t42.5 108q5 33 3 61.5t-11.5 50.5t-43 38t-91.5 22q-66 7 -113 -51t-39 -132z" />
<glyph unicode="&#xb8;" d="M268 -231q0 92 6 92q31 0 59.5 18.5t28.5 52.5v140q0 14 66 14q6 0 18.5 0.5t20 0.5t16 -1t13 -4t4.5 -8v-137q0 -93 -64.5 -160.5t-156.5 -67.5q-11 0 -11 60z" />
<glyph unicode="&#xb9;" horiz-adv-x="890" d="M31 735q0 -61 5 -77.5t25 -16.5h86q19 0 23 -5t4 -22v-340q0 -19 16.5 -34t40.5 -15h103q8 0 10 -2.5t2 -11.5v-184q0 -21 14 -24t89 -3q69 0 82.5 4t13.5 27v176q0 18 14 18h115q18 0 30.5 19.5t12.5 52.5v317q0 12 1 16.5t6.5 7.5t18.5 3h91q19 0 22.5 11.5t3.5 61.5 v21q0 74 -4 89.5t-27 15.5h-88q-7 0 -12 1.5t-7.5 2.5t-3.5 5.5t-1 6.5v10v279q0 27 -15.5 45t-35.5 18h-101q-20 0 -20 17v176q0 15 -12 22.5t-30 9t-54 1.5q-103 0 -103 -31v-180q0 -15 -16 -15h-101q-16 0 -35.5 -17t-19.5 -36v-283v-5q0 -11 -0.5 -15.5t-6 -8 t-17.5 -3.5h-87q-23 0 -27.5 -16.5t-4.5 -88.5zM373 459v520q0 19 4.5 25t17.5 6h101q13 0 17.5 -6t4.5 -25v-520q0 -20 -8.5 -27.5t-26.5 -7.5h-75q-18 0 -26.5 7.5t-8.5 27.5z" />
<glyph unicode="&#xba;" horiz-adv-x="368" d="M41 944q0 47 20 47h258q9 0 9 -49t-6 -49h-263q-12 0 -15 11t-3 40zM41 1176v122q0 61 40.5 98.5t102.5 37.5q65 0 104.5 -36t39.5 -100v-122q0 -64 -39.5 -100t-104.5 -36q-62 0 -102.5 37.5t-40.5 98.5zM164 1179.5q0 -5.5 1.5 -8.5t3.5 -6t6 -4.5t9 -1.5t9 1.5t6 4.5 t3.5 6t2 8.5t0.5 8.5v10v10v58v10v10t-0.5 8.5t-2 8.5t-3.5 6t-6 4.5t-9 1.5t-9 -1.5t-6 -4.5t-3.5 -6t-1.5 -8.5v-9v-10v-9.5v-58v-9.5v-10v-9z" />
<glyph unicode="&#xbb;" horiz-adv-x="794" d="M63 217q179 268 179 283q0 10 -60.5 108.5t-113.5 177.5q-27 42 10 50q9 3 30.5 14t45.5 24.5t30 16.5q13 8 135.5 -180t122.5 -209q0 -20 -130.5 -205.5t-143.5 -177.5q-6 3 -44.5 24.5t-49.5 26.5q-38 8 -11 47zM406 217q178 267 178 283q0 10 -60.5 108.5 t-113.5 177.5q-27 42 10 50q9 3 30.5 14t45.5 24.5t30 16.5q13 8 135.5 -180t122.5 -209q0 -20 -130.5 -205.5t-143.5 -177.5q-6 3 -44.5 24.5t-49.5 26.5q-37 8 -10 47z" />
<glyph unicode="&#xbc;" horiz-adv-x="890" d="M31 735q0 -61 5 -77.5t25 -16.5h86q19 0 23 -5t4 -22v-340q0 -19 16.5 -34t40.5 -15h103q8 0 10 -2.5t2 -11.5v-184q0 -21 14 -24t89 -3q69 0 82.5 4t13.5 27v176q0 18 14 18h115q18 0 30.5 19.5t12.5 52.5v317q0 12 1 16.5t6.5 7.5t18.5 3h91q19 0 22.5 11.5t3.5 61.5 v21q0 74 -4 89.5t-27 15.5h-88q-7 0 -12 1.5t-7.5 2.5t-3.5 5.5t-1 6.5v10v279q0 27 -15.5 45t-35.5 18h-101q-20 0 -20 17v176q0 15 -12 22.5t-30 9t-54 1.5q-103 0 -103 -31v-180q0 -15 -16 -15h-101q-16 0 -35.5 -17t-19.5 -36v-283v-5q0 -11 -0.5 -15.5t-6 -8 t-17.5 -3.5h-87q-23 0 -27.5 -16.5t-4.5 -88.5zM373 459v520q0 19 4.5 25t17.5 6h101q13 0 17.5 -6t4.5 -25v-520q0 -20 -8.5 -27.5t-26.5 -7.5h-75q-18 0 -26.5 7.5t-8.5 27.5z" />
<glyph unicode="&#xbd;" horiz-adv-x="890" d="M31 735q0 -61 5 -77.5t25 -16.5h86q19 0 23 -5t4 -22v-340q0 -19 16.5 -34t40.5 -15h103q8 0 10 -2.5t2 -11.5v-184q0 -21 14 -24t89 -3q69 0 82.5 4t13.5 27v176q0 18 14 18h115q18 0 30.5 19.5t12.5 52.5v317q0 12 1 16.5t6.5 7.5t18.5 3h91q19 0 22.5 11.5t3.5 61.5 v21q0 74 -4 89.5t-27 15.5h-88q-7 0 -12 1.5t-7.5 2.5t-3.5 5.5t-1 6.5v10v279q0 27 -15.5 45t-35.5 18h-101q-20 0 -20 17v176q0 15 -12 22.5t-30 9t-54 1.5q-103 0 -103 -31v-180q0 -15 -16 -15h-101q-16 0 -35.5 -17t-19.5 -36v-283v-5q0 -11 -0.5 -15.5t-6 -8 t-17.5 -3.5h-87q-23 0 -27.5 -16.5t-4.5 -88.5zM373 459v520q0 19 4.5 25t17.5 6h101q13 0 17.5 -6t4.5 -25v-520q0 -20 -8.5 -27.5t-26.5 -7.5h-75q-18 0 -26.5 7.5t-8.5 27.5z" />
<glyph unicode="&#xbe;" horiz-adv-x="890" d="M31 735q0 -61 5 -77.5t25 -16.5h86q19 0 23 -5t4 -22v-340q0 -19 16.5 -34t40.5 -15h103q8 0 10 -2.5t2 -11.5v-184q0 -21 14 -24t89 -3q69 0 82.5 4t13.5 27v176q0 18 14 18h115q18 0 30.5 19.5t12.5 52.5v317q0 12 1 16.5t6.5 7.5t18.5 3h91q19 0 22.5 11.5t3.5 61.5 v21q0 74 -4 89.5t-27 15.5h-88q-7 0 -12 1.5t-7.5 2.5t-3.5 5.5t-1 6.5v10v279q0 27 -15.5 45t-35.5 18h-101q-20 0 -20 17v176q0 15 -12 22.5t-30 9t-54 1.5q-103 0 -103 -31v-180q0 -15 -16 -15h-101q-16 0 -35.5 -17t-19.5 -36v-283v-5q0 -11 -0.5 -15.5t-6 -8 t-17.5 -3.5h-87q-23 0 -27.5 -16.5t-4.5 -88.5zM373 459v520q0 19 4.5 25t17.5 6h101q13 0 17.5 -6t4.5 -25v-520q0 -20 -8.5 -27.5t-26.5 -7.5h-75q-18 0 -26.5 7.5t-8.5 27.5z" />
<glyph unicode="&#xbf;" horiz-adv-x="831" d="M70 115q0 -157 94 -246.5t256 -89.5q156 0 253 92.5t97 243.5v114q0 29 -137 29q-162 0 -162 -27v-32q0 -5 0.5 -21t0 -24t-1.5 -22.5t-4.5 -22.5t-9 -16.5t-14.5 -12.5t-22 -4q-10 0 -17.5 2t-13 6.5t-9 9.5t-6 13.5t-3.5 15t-1.5 18t-0.5 18v20v20.5q0 24 10.5 52 t33.5 61t37.5 52t44.5 54.5t33 38.5q51 63 63.5 94.5t12.5 116.5q0 29 1 47t1 39q0 9 -4.5 16t-14.5 11.5t-20 7t-26 3.5t-26.5 1.5t-29 1t-26.5 0.5q-160 5 -160 -27q0 -14 0.5 -40t0.5 -36t-2 -30t-7 -31.5t-14 -30t-23.5 -36.5t-34.5 -40q-35 -38 -45 -49t-37 -48 t-37 -63.5t-20 -70.5t-10 -94v-84zM307.5 991.5q0.5 -34.5 35 -59.5t110.5 -33q66 -7 112.5 50.5t38.5 131.5q-4 34 -10.5 57t-21.5 46.5t-45 34.5t-74 8q-61 -4 -101 -48t-43 -108q-2 -45 -1.5 -79.5z" />
<glyph unicode="&#xc0;" horiz-adv-x="802" d="M18 18q159 972 220 1387q4 31 155 31q144 0 150 -37q117 -695 239 -1379q2 -13 -42 -17q-26 -3 -119 -3h-19.5h-20.5h-19t-19 1t-16.5 2t-15 3t-11 4.5t-8 6t-3.5 8.5q-7 51 -18 134t-20 144q0 4 -1.5 7t-4.5 5t-5.5 3t-8 1h-9.5h-12h-13h-12h-11h-9.5h-8.5t-6.5 -1 t-5.5 -2t-4 -3t-3 -4.5t-1 -5.5q-27 -257 -29 -283q-1 -7 -9.5 -11.5t-30 -6.5t-34 -2h-44.5h-21q-150 0 -150 18zM164 1671q14 29 43 111q4 18 19.5 19t47.5 -11q6 -2 110 -41t142 -49q41 -15 62.5 -32t15.5 -32q-35 -102 -37 -120q-4 -35 -47 -19q-68 24 -170.5 63 t-154.5 58q-12 2 -26.5 18.5t-4.5 34.5zM352 530q0 -12 6 -14t33 -2q6 0 15.5 -0.5t13 -0.5t8.5 1.5t6.5 4.5t1.5 9q-2 54 -5 102t-8 115.5t-9 128.5q0 17 -6 53t-15 36q-8 0 -13 -45t-3 -54q-4 -73 -13 -172t-12 -162z" />
<glyph unicode="&#xc1;" horiz-adv-x="802" d="M18 18q159 972 220 1387q4 31 155 31q144 0 150 -37q117 -695 239 -1379q2 -13 -42 -17q-26 -3 -119 -3h-19.5h-20.5h-19t-19 1t-16.5 2t-15 3t-11 4.5t-8 6t-3.5 8.5q-7 51 -18 134t-20 144q0 4 -1.5 7t-4.5 5t-5.5 3t-8 1h-9.5h-12h-13h-12h-11h-9.5h-8.5t-6.5 -1 t-5.5 -2t-4 -3t-3 -4.5t-1 -5.5q-27 -257 -29 -283q-1 -7 -9.5 -11.5t-30 -6.5t-34 -2h-44.5h-21q-150 0 -150 18zM240 1636q-6 15 15 32t62 32q38 10 142 49t110 41q32 12 48 11t20 -19q29 -82 43 -111q10 -18 -4.5 -34.5t-26.5 -18.5q-52 -19 -154.5 -58t-170.5 -63 q-44 -16 -48 19q-2 22 -36 120zM352 530q0 -12 6 -14t33 -2q6 0 15.5 -0.5t13 -0.5t8.5 1.5t6.5 4.5t1.5 9q-2 54 -5 102t-8 115.5t-9 128.5q0 17 -6 53t-15 36q-8 0 -13 -45t-3 -54q-4 -73 -13 -172t-12 -162z" />
<glyph unicode="&#xc2;" horiz-adv-x="802" d="M18 18q159 972 220 1387q4 31 155 31q144 0 150 -37q117 -695 239 -1379q2 -13 -42 -17q-26 -3 -119 -3h-19.5h-20.5h-19t-19 1t-16.5 2t-15 3t-11 4.5t-8 6t-3.5 8.5q-7 51 -18 134t-20 144q0 4 -1.5 7t-4.5 5t-5.5 3t-8 1h-9.5h-12h-13h-12h-11h-9.5h-8.5t-6.5 -1 t-5.5 -2t-4 -3t-3 -4.5t-1 -5.5q-27 -257 -29 -283q-1 -7 -9.5 -11.5t-30 -6.5t-34 -2h-44.5h-21q-150 0 -150 18zM121 1622q14 22 133 102q23 16 57 43t52.5 38.5t33.5 11.5q12 0 31.5 -13.5t60 -47.5t60.5 -50q17 -13 42 -32t37 -28t23.5 -20t16.5 -20t-6 -32.5 t-26.5 -49.5t-17.5 -33q-2 -10 -7.5 -17t-17 -6.5t-24.5 13.5q-18 17 -44 43.5t-44 44t-36.5 35.5t-30 27t-15.5 9q-3 0 -9.5 -4t-17.5 -13.5t-21 -18.5t-27.5 -25.5t-30 -28t-34.5 -32.5t-34 -33q-24 -18 -34.5 -12.5t-14.5 22.5q-2 6 -19 35.5t-29 56t-7 35.5zM352 530 q0 -12 6 -14t33 -2q6 0 15.5 -0.5t13 -0.5t8.5 1.5t6.5 4.5t1.5 9q-2 54 -5 102t-8 115.5t-9 128.5q0 17 -6 53t-15 36q-8 0 -13 -45t-3 -54q-4 -73 -13 -172t-12 -162z" />
<glyph unicode="&#xc3;" horiz-adv-x="802" d="M18 18q159 972 220 1387q4 31 155 31q144 0 150 -37q117 -695 239 -1379q2 -13 -42 -17q-26 -3 -119 -3h-19.5h-20.5h-19t-19 1t-16.5 2t-15 3t-11 4.5t-8 6t-3.5 8.5q-7 51 -18 134t-20 144q0 4 -1.5 7t-4.5 5t-5.5 3t-8 1h-9.5h-12h-13h-12h-11h-9.5h-8.5t-6.5 -1 t-5.5 -2t-4 -3t-3 -4.5t-1 -5.5q-27 -257 -29 -283q-1 -7 -9.5 -11.5t-30 -6.5t-34 -2h-44.5h-21q-150 0 -150 18zM166 1614q-13 19 90 90q61 41 88 41h11.5h12.5t11 -1.5t13 -3.5t11.5 -6.5t14.5 -11.5q11 -11 23 -26t19.5 -20t20.5 -5q5 0 9.5 1.5t10 5t9.5 6.5t10.5 10.5 t10.5 11.5t12.5 14t13.5 15q16 18 29.5 11.5t17.5 -22.5q4 -12 28 -55t25 -45q3 -5 -1 -12.5t-15 -17.5t-22.5 -19t-27.5 -22t-26 -21q-31 -25 -46.5 -31t-37.5 -6q-48 0 -73 25q-8 8 -18 19t-13.5 14.5t-11.5 6.5t-19 3q-10 0 -16.5 -3.5t-11.5 -9.5t-19.5 -20t-32.5 -29 q-15 -11 -30.5 -7.5t-18.5 17.5q-3 9 -13 29t-23 45t-15 29zM352 530q0 -12 6 -14t33 -2q6 0 15.5 -0.5t13 -0.5t8.5 1.5t6.5 4.5t1.5 9q-2 54 -5 102t-8 115.5t-9 128.5q0 17 -6 53t-15 36q-8 0 -13 -45t-3 -54q-4 -73 -13 -172t-12 -162z" />
<glyph unicode="&#xc4;" horiz-adv-x="802" d="M18 18q159 972 220 1387q4 31 155 31q144 0 150 -37q117 -695 239 -1379q2 -13 -42 -17q-26 -3 -119 -3h-19.5h-20.5h-19t-19 1t-16.5 2t-15 3t-11 4.5t-8 6t-3.5 8.5q-7 51 -18 134t-20 144q0 4 -1.5 7t-4.5 5t-5.5 3t-8 1h-9.5h-12h-13h-12h-11h-9.5h-8.5t-6.5 -1 t-5.5 -2t-4 -3t-3 -4.5t-1 -5.5q-27 -257 -29 -283q-1 -7 -9.5 -11.5t-30 -6.5t-34 -2h-44.5h-21q-150 0 -150 18zM111 1614q-6 59 31 105t91 40q62 -8 89.5 -27.5t28 -47t-0.5 -64.5q-3 -52 -35.5 -87t-81.5 -38q-36 -3 -60 5.5t-36.5 28t-17.5 38.5t-8 47zM352 530 q0 -12 6 -14t33 -2q6 0 15.5 -0.5t13 -0.5t8.5 1.5t6.5 4.5t1.5 9q-2 54 -5 102t-8 115.5t-9 128.5q0 17 -6 53t-15 36q-8 0 -13 -45t-3 -54q-4 -73 -13 -172t-12 -162zM453 1614q-6 59 31 105t91 40q62 -8 89.5 -27.5t28 -47t-0.5 -64.5q-3 -52 -35.5 -87t-81.5 -38 q-36 -3 -60 5.5t-36.5 28t-17.5 38.5t-8 47z" />
<glyph unicode="&#xc5;" horiz-adv-x="802" d="M18 18q159 972 220 1387q4 31 155 31q144 0 150 -37q117 -695 239 -1379q2 -13 -42 -17q-26 -3 -119 -3h-19.5h-20.5h-19t-19 1t-16.5 2t-15 3t-11 4.5t-8 6t-3.5 8.5q-7 51 -18 134t-20 144q0 4 -1.5 7t-4.5 5t-5.5 3t-8 1h-9.5h-12h-13h-12h-11h-9.5h-8.5t-6.5 -1 t-5.5 -2t-4 -3t-3 -4.5t-1 -5.5q-27 -257 -29 -283q-1 -7 -9.5 -11.5t-30 -6.5t-34 -2h-44.5h-21q-150 0 -150 18zM229 1645q5 57 19.5 89.5t36.5 42.5t50 12t60 -3q62 -3 104 -42t46 -99q3 -43 -7 -72.5t-33 -44.5t-45.5 -21t-56.5 -10q-71 -8 -128.5 38t-45.5 110z M319 1645q-4 -28 21.5 -48.5t56.5 -17.5q15 2 24.5 4.5t20 9t14.5 19.5t3 33q-1 24 -19 41t-45 20h-8q-17 0 -25 -1t-18.5 -6t-16 -18.5t-8.5 -35.5zM352 530q0 -12 6 -14t33 -2q6 0 15.5 -0.5t13 -0.5t8.5 1.5t6.5 4.5t1.5 9q-2 54 -5 102t-8 115.5t-9 128.5q0 17 -6 53 t-15 36q-8 0 -13 -45t-3 -54q-4 -73 -13 -172t-12 -162z" />
<glyph unicode="&#xc6;" horiz-adv-x="1132" d="M6 12q289 1372 291 1377q18 45 55 45h717q16 0 19.5 -22.5t3.5 -93.5v-20q0 -100 -4.5 -125.5t-24.5 -25.5h-203q-40 0 -47 -10q-8 -11 -9 -15t-1 -24v-150q0 -3 -0.5 -11t0 -12.5t1.5 -10.5t3.5 -11t7.5 -8q11 -8 45 -8h94q19 0 24 -22t5 -109v-48q1 -67 -2.5 -86.5 t-19.5 -19.5h-93q-39 0 -51 -6q-5 -3 -8.5 -7.5t-4.5 -11.5l-1.5 -10.5t0 -14.5t0.5 -15v-170q0 -66 10 -72q13 -8 61 -8h195q18 0 22.5 -25t4.5 -115q0 -95 -4 -121t-21 -26h-481q-7 0 -19.5 -0.5t-20 -0.5t-16.5 1t-15.5 3t-10.5 5q-5 4 -7.5 9.5t-3.5 14.5t-1.5 14.5 t0 16.5t0.5 15v217q0 8 -4 12t-20.5 7t-49.5 3q-36 0 -55 -3.5t-23 -8t-4 -12.5q-8 -47 -55 -279q-1 -7 -71.5 -12t-140 -3t-67.5 13zM360 565q-4 -18 62 -18q74 0 74 16v473q0 71 -2 93t-11 22q-14 0 -34 -115q-71 -370 -89 -471z" />
<glyph unicode="&#xc7;" horiz-adv-x="792" d="M51 336v762q0 151 101 243.5t258 92.5q161 0 251.5 -89t90.5 -247v-131q0 -11 -6.5 -16t-41.5 -9t-108 -4h-48q-52 -1 -69.5 2t-17.5 18v119q0 10 -2.5 21.5t-15 25t-33.5 13.5q-13 0 -22 -3t-15 -12t-9.5 -15t-4.5 -21t-1.5 -22t0 -26t0.5 -24v-594q0 -5 -0.5 -24t0 -26 t1.5 -22t4.5 -21t9.5 -15t15 -12t22 -3q22 0 34.5 14t14.5 24.5t2 20.5v93q0 25 16 29.5t96 4.5h13.5h14h15.5q29 0 50 -1t36.5 -1.5t24.5 -4.5t15 -5t8 -8.5t2.5 -9.5t0 -13.5t-0.5 -15.5v-88q0 -66 -18.5 -122.5t-47.5 -93t-64 -63t-67 -38t-59 -11.5q-5 0 -7.5 -5 t-3.5 -14t-1 -16.5t0.5 -19.5t0.5 -16q0 -93 -64.5 -160.5t-156.5 -67.5q-10 0 -10 60q0 92 6 92q31 0 59.5 18.5t28.5 52.5q0 4 0.5 14t1 18.5t0 17.5t-2.5 14.5t-5 5.5q-15 0 -45 8.5t-73.5 32t-81 58.5t-64.5 97t-27 138z" />
<glyph unicode="&#xc8;" horiz-adv-x="718" d="M81.5 46.5q-0.5 5.5 0 16.5t0.5 15v1294q0 19 2 25.5t12 19.5q13 17 47 17h510q18 0 21.5 -18t3.5 -113q0 -113 -3.5 -134.5t-23.5 -21.5h-205q-40 0 -47 -10q-8 -11 -9 -15t-1 -24v-150q0 -3 -0.5 -11t0 -12.5t1.5 -10.5t3.5 -11t7.5 -8q11 -8 45 -8h101q16 0 19 -15 t3 -91v-40v-52q1 -62 -2 -74.5t-20 -12.5h-92q-40 0 -52 -6q-5 -3 -8.5 -7.5t-4.5 -11.5l-1.5 -10.5t0 -14.5t0.5 -15v-170q0 -66 10 -72q13 -8 62 -8h194q19 0 23 -19.5t4 -117.5q0 -108 -3.5 -129t-21.5 -21h-481q-7 0 -19.5 -0.5t-20 -0.5t-16.5 1t-15.5 3t-10.5 5 q-5 4 -7.5 9.5t-3.5 14.5t-1.5 14.5zM186 1671q14 29 43 111q4 18 20 19t48 -11q6 -2 110 -41t142 -49q41 -15 62.5 -32t15.5 -32q-35 -102 -37 -120q-4 -35 -47 -19q-68 24 -170.5 63t-155.5 58q-12 2 -26.5 18.5t-4.5 34.5z" />
<glyph unicode="&#xc9;" horiz-adv-x="718" d="M81.5 46.5q-0.5 5.5 0 16.5t0.5 15v1294q0 19 2 25.5t12 19.5q13 17 47 17h510q18 0 21.5 -18t3.5 -113q0 -113 -3.5 -134.5t-23.5 -21.5h-205q-40 0 -47 -10q-8 -11 -9 -15t-1 -24v-150q0 -3 -0.5 -11t0 -12.5t1.5 -10.5t3.5 -11t7.5 -8q11 -8 45 -8h101q16 0 19 -15 t3 -91v-40v-52q1 -62 -2 -74.5t-20 -12.5h-92q-40 0 -52 -6q-5 -3 -8.5 -7.5t-4.5 -11.5l-1.5 -10.5t0 -14.5t0.5 -15v-170q0 -66 10 -72q13 -8 62 -8h194q19 0 23 -19.5t4 -117.5q0 -108 -3.5 -129t-21.5 -21h-481q-7 0 -19.5 -0.5t-20 -0.5t-16.5 1t-15.5 3t-10.5 5 q-5 4 -7.5 9.5t-3.5 14.5t-1.5 14.5zM231 1638q-6 15 15.5 32t62.5 32q38 10 142 49t110 41q32 12 48 11t20 -19q29 -82 43 -111q10 -18 -4.5 -34.5t-26.5 -18.5q-53 -19 -155.5 -58t-170.5 -63q-43 -16 -47 19q-2 18 -37 120z" />
<glyph unicode="&#xca;" horiz-adv-x="718" d="M81.5 46.5q-0.5 5.5 0 16.5t0.5 15v1294q0 19 2 25.5t12 19.5q13 17 47 17h510q18 0 21.5 -18t3.5 -113q0 -113 -3.5 -134.5t-23.5 -21.5h-205q-40 0 -47 -10q-8 -11 -9 -15t-1 -24v-150q0 -3 -0.5 -11t0 -12.5t1.5 -10.5t3.5 -11t7.5 -8q11 -8 45 -8h101q16 0 19 -15 t3 -91v-40v-52q1 -62 -2 -74.5t-20 -12.5h-92q-40 0 -52 -6q-5 -3 -8.5 -7.5t-4.5 -11.5l-1.5 -10.5t0 -14.5t0.5 -15v-170q0 -66 10 -72q13 -8 62 -8h194q19 0 23 -19.5t4 -117.5q0 -108 -3.5 -129t-21.5 -21h-481q-7 0 -19.5 -0.5t-20 -0.5t-16.5 1t-15.5 3t-10.5 5 q-5 4 -7.5 9.5t-3.5 14.5t-1.5 14.5zM121 1651q14 22 133 102q22 15 56.5 42.5t53 38.5t33.5 11q12 0 31 -13t61 -48t60 -49q15 -11 35 -26.5t30.5 -23.5t23 -18t19.5 -18t11 -15q5 -9 -6 -32.5t-26.5 -49t-17.5 -32.5q-4 -17 -15 -23t-34 12l-44 44t-44.5 44t-36.5 36 t-29.5 27t-15.5 9t-14.5 -7.5t-30.5 -26t-35 -32.5t-47 -44.5t-47 -45.5q-24 -18 -34.5 -12.5t-14.5 23.5q-2 6 -19 35.5t-29 56t-7 35.5z" />
<glyph unicode="&#xcb;" horiz-adv-x="718" d="M81.5 46.5q-0.5 5.5 0 16.5t0.5 15v1294q0 19 2 25.5t12 19.5q13 17 47 17h510q18 0 21.5 -18t3.5 -113q0 -113 -3.5 -134.5t-23.5 -21.5h-205q-40 0 -47 -10q-8 -11 -9 -15t-1 -24v-150q0 -3 -0.5 -11t0 -12.5t1.5 -10.5t3.5 -11t7.5 -8q11 -8 45 -8h101q16 0 19 -15 t3 -91v-40v-52q1 -62 -2 -74.5t-20 -12.5h-92q-40 0 -52 -6q-5 -3 -8.5 -7.5t-4.5 -11.5l-1.5 -10.5t0 -14.5t0.5 -15v-170q0 -66 10 -72q13 -8 62 -8h194q19 0 23 -19.5t4 -117.5q0 -108 -3.5 -129t-21.5 -21h-481q-7 0 -19.5 -0.5t-20 -0.5t-16.5 1t-15.5 3t-10.5 5 q-5 4 -7.5 9.5t-3.5 14.5t-1.5 14.5zM98 1612q-6 58 31.5 104.5t91.5 40.5q62 -8 89.5 -27.5t28 -47t-0.5 -64.5q-3 -52 -35.5 -87t-81.5 -38q-36 -3 -60.5 5.5t-37 28t-17.5 38.5t-8 47zM440 1612q-6 58 31.5 104.5t91.5 40.5q62 -8 89.5 -27.5t28 -47t-0.5 -64.5 q-3 -52 -35.5 -87t-81.5 -38q-36 -3 -60.5 5.5t-37 28t-17.5 38.5t-8 47z" />
<glyph unicode="&#xcc;" horiz-adv-x="471" d="M82 31v1364q0 28 19 32.5t128 4.5q118 0 139 -5.5t21 -33.5v-1358q0 -25 -21.5 -30t-138.5 -5q-108 0 -127.5 4.5t-19.5 26.5zM84 1671q14 29 43 111q4 18 20 19t48 -11q8 -3 111 -41.5t140 -48.5q41 -15 62.5 -32t15.5 -32q-35 -102 -37 -120q-4 -35 -47 -19 q-68 24 -170.5 63t-154.5 58q-12 2 -26.5 18.5t-4.5 34.5z" />
<glyph unicode="&#xcd;" horiz-adv-x="471" d="M82 31v1364q0 28 19 32.5t128 4.5q118 0 139 -5.5t21 -33.5v-1358q0 -25 -21.5 -30t-138.5 -5q-108 0 -127.5 4.5t-19.5 26.5zM88 1636q-6 15 15.5 32t62.5 32q38 10 142 49t110 41q32 12 47.5 11t19.5 -19q29 -82 43 -111q10 -18 -4 -34.5t-26 -18.5q-53 -19 -155.5 -58 t-170.5 -63q-43 -16 -47 19q-2 18 -37 120z" />
<glyph unicode="&#xce;" horiz-adv-x="471" d="M82 31v1364q0 28 19 32.5t128 4.5q118 0 139 -5.5t21 -33.5v-1358q0 -25 -21.5 -30t-138.5 -5q-108 0 -127.5 4.5t-19.5 26.5zM82 1632q15 24 133 103q22 15 56.5 42.5t53 38.5t33.5 11q12 0 31.5 -13.5t60 -47.5t60.5 -50q17 -13 42 -32t37 -28t23.5 -20t16.5 -20 t-5.5 -32.5t-26 -49.5t-17.5 -33q-4 -17 -15.5 -22.5t-34.5 12.5l-44 44t-44.5 44t-36.5 36t-29.5 27t-15.5 9t-14.5 -7.5t-30.5 -26t-35 -32.5t-47 -44.5t-47 -45.5q-24 -18 -34.5 -12.5t-14.5 22.5q-2 6 -19 35.5t-29 56t-7 35.5z" />
<glyph unicode="&#xcf;" horiz-adv-x="471" d="M80 1612q-6 58 31.5 104.5t91.5 40.5q62 -8 89.5 -27.5t27.5 -47t-1 -64.5q-3 -52 -35 -87t-81 -38q-36 -3 -60.5 5.5t-37 28t-17.5 38.5t-8 47zM82 31v1364q0 28 19 32.5t128 4.5q118 0 139 -5.5t21 -33.5v-1358q0 -25 -21.5 -30t-138.5 -5q-108 0 -127.5 4.5 t-19.5 26.5zM422 1612q-6 58 31.5 104.5t91.5 40.5q62 -8 89.5 -27.5t28 -47t-0.5 -64.5q-3 -52 -35.5 -87t-81.5 -38q-36 -3 -60.5 5.5t-37 28t-17.5 38.5t-8 47z" />
<glyph unicode="&#xd0;" horiz-adv-x="870" d="M20 627v200q0 19 13 25t51 6q18 0 18 10v504q0 45 8.5 53.5t53.5 8.5h297q163 0 260.5 -89.5t97.5 -246.5v-762q0 -157 -97.5 -246.5t-260.5 -89.5h-297q-47 0 -54.5 7t-7.5 54v512q0 15 -34 15q-29 0 -38.5 8t-9.5 31zM401 322q0 -19 8.5 -22t51.5 -3q20 0 32 9 t16.5 28.5t5.5 33.5t1 42v10v594v10q0 28 -1 42t-5.5 33.5t-16.5 28.5t-32 9h-10q-35 0 -42.5 -3.5t-7.5 -21.5v-256q0 -4 10.5 -5t22.5 -1.5t22.5 -6.5t10.5 -18q0 -4 -1 -45t-1 -85t2 -77q0 -15 -7.5 -23.5t-31.5 -8.5q-10 0 -18.5 -5.5t-8.5 -11.5v-247z" />
<glyph unicode="&#xd1;" horiz-adv-x="946" d="M82 27v2v2v1364v4q0 25 17.5 29t121.5 4q88 0 108 -5.5t27 -33.5q88 -307 164 -533q16 -55 29 -55q16 0 16 75v9v506q0 28 19.5 32.5t128.5 4.5q128 0 143 -9q8 -9 8 -30v-1358v-4q0 -22 -20 -26.5t-131 -4.5h-21q-35 0 -47.5 1t-23 7.5t-15.5 22.5q-27 76 -48.5 142.5 t-34 110.5t-38 131.5t-47.5 162.5q-26 90 -43 90q-4 0 -6.5 -3.5t-4 -10t-2.5 -13.5t-1 -18v-19v-20.5v-18.5v-530q0 -25 -21.5 -30t-138.5 -5q-102 0 -120.5 4t-18.5 23zM242 1614q-13 19 90 90q61 41 88 41h11.5h12.5t11 -1.5t13 -3.5t11.5 -6.5t14.5 -11.5q11 -11 23 -26 t19.5 -20t20.5 -5q5 0 9.5 1.5t10 5t9.5 6.5t10.5 10.5t10.5 11.5t12.5 14t13.5 15q16 18 29.5 11.5t17.5 -22.5q4 -12 28 -55t25 -45q3 -5 -1 -12.5t-15 -17.5t-22.5 -19t-27.5 -22t-26 -21q-31 -25 -46.5 -31t-37.5 -6q-49 0 -74 25q-8 8 -17.5 19t-13.5 14.5t-11.5 6.5 t-18.5 3q-10 0 -16.5 -3.5t-11.5 -9.5t-19.5 -20t-32.5 -29q-15 -11 -30.5 -7.5t-18.5 17.5q-3 9 -13 29t-23 45t-15 29z" />
<glyph unicode="&#xd2;" d="M51 336v762q0 151 101 243.5t258 92.5q163 0 260.5 -89.5t97.5 -246.5v-762q0 -157 -97.5 -246.5t-260.5 -89.5q-157 0 -258 92.5t-101 243.5zM195 1671q14 29 43 111q4 18 19.5 19t47.5 -11q6 -2 110 -41t142 -49q41 -15 62.5 -32t15.5 -32q-35 -102 -37 -120 q-4 -35 -47 -19q-68 24 -170.5 63t-155.5 58q-12 2 -26 18.5t-4 34.5zM357.5 370q0.5 -7 1.5 -22t4.5 -21t9.5 -15t15 -12t22 -3q10 0 17.5 2t13 7t9 10t6 14t4 15t1.5 18v18.5v19.5v19q-1 25 -0.5 297t0.5 297v19v19.5v18.5t-1.5 18t-4 15t-6 14t-9 10t-13 7t-17.5 2 q-13 0 -22 -3t-15 -12t-9.5 -15t-4.5 -21t-1.5 -22t0 -26t0.5 -24v-594q0 -5 -0.5 -24t0 -26z" />
<glyph unicode="&#xd3;" horiz-adv-x="819" d="M51 336v762q0 151 101 243.5t258 92.5q163 0 260.5 -89.5t97.5 -246.5v-762q0 -157 -97.5 -246.5t-260.5 -89.5q-157 0 -258 92.5t-101 243.5zM176 1636q-6 15 15.5 32t62.5 32q38 10 142 49t110 41q32 12 47.5 11t19.5 -19q29 -82 43 -111q10 -18 -4 -34.5t-26 -18.5 q-53 -19 -155.5 -58t-170.5 -63q-43 -16 -47 19q-2 18 -37 120zM357.5 370q0.5 -7 1.5 -22t4.5 -21t9.5 -15t15 -12t22 -3q10 0 17.5 2t13 7t9 10t6 14t4 15t1.5 18v18.5v19.5v19q-1 25 -0.5 297t0.5 297v19v19.5v18.5t-1.5 18t-4 15t-6 14t-9 10t-13 7t-17.5 2 q-13 0 -22 -3t-15 -12t-9.5 -15t-4.5 -21t-1.5 -22t0 -26t0.5 -24v-594q0 -5 -0.5 -24t0 -26z" />
<glyph unicode="&#xd4;" horiz-adv-x="819" d="M51 336v762q0 151 101 243.5t258 92.5q163 0 260.5 -89.5t97.5 -246.5v-762q0 -157 -97.5 -246.5t-260.5 -89.5q-157 0 -258 92.5t-101 243.5zM143 1630q15 24 133 103q21 15 56.5 42.5t54 38.5t33.5 11q12 0 31.5 -13.5t59 -47t60.5 -50.5q17 -13 42 -32t37 -28 t23.5 -20t16.5 -20t-5.5 -32.5t-26 -49.5t-17.5 -33q-2 -10 -7.5 -17t-17 -6.5t-24.5 13.5l-44 44t-44.5 44t-36.5 36t-29.5 27t-15.5 9t-14.5 -7.5t-30.5 -26t-35 -32.5t-47 -44.5t-47 -45.5q-24 -18 -34.5 -12.5t-14.5 22.5q-2 7 -19 36t-29.5 55.5t-7.5 35.5zM357.5 370 q0.5 -7 1.5 -22t4.5 -21t9.5 -15t15 -12t22 -3q10 0 17.5 2t13 7t9 10t6 14t4 15t1.5 18v18.5v19.5v19q-1 25 -0.5 297t0.5 297v19v19.5v18.5t-1.5 18t-4 15t-6 14t-9 10t-13 7t-17.5 2q-13 0 -22 -3t-15 -12t-9.5 -15t-4.5 -21t-1.5 -22t0 -26t0.5 -24v-594q0 -5 -0.5 -24 t0 -26z" />
<glyph unicode="&#xd5;" horiz-adv-x="819" d="M51 336v762q0 151 101 243.5t258 92.5q163 0 260.5 -89.5t97.5 -246.5v-762q0 -157 -97.5 -246.5t-260.5 -89.5q-157 0 -258 92.5t-101 243.5zM178 1614q-13 19 90 90q61 41 88 41h11.5h12.5t11 -1.5t13 -3.5t11.5 -6.5t14.5 -11.5q10 -9 19.5 -20.5t14 -17t12.5 -9.5 t18 -4q6 0 11.5 2.5t10.5 5.5t12 10.5t11.5 12t14.5 16t15 17.5q16 18 29.5 11.5t17.5 -22.5q4 -12 28 -54.5t26 -45.5q3 -5 -1 -12.5t-15 -17.5t-22.5 -19t-27.5 -22t-26 -21q-31 -25 -46.5 -31t-37.5 -6q-49 0 -74 25q-8 8 -18 19t-13.5 14.5t-11.5 6.5t-19 3 q-10 0 -16.5 -3.5t-11.5 -9.5t-19 -20t-32 -29q-15 -12 -31 -8t-19 18q-3 9 -13 29t-23 45t-15 29zM357.5 370q0.5 -7 1.5 -22t4.5 -21t9.5 -15t15 -12t22 -3q10 0 17.5 2t13 7t9 10t6 14t4 15t1.5 18v18.5v19.5v19q-1 25 -0.5 297t0.5 297v19v19.5v18.5t-1.5 18t-4 15 t-6 14t-9 10t-13 7t-17.5 2q-13 0 -22 -3t-15 -12t-9.5 -15t-4.5 -21t-1.5 -22t0 -26t0.5 -24v-594q0 -5 -0.5 -24t0 -26z" />
<glyph unicode="&#xd6;" horiz-adv-x="819" d="M51 336v762q0 151 101 243.5t258 92.5q163 0 260.5 -89.5t97.5 -246.5v-762q0 -157 -97.5 -246.5t-260.5 -89.5q-157 0 -258 92.5t-101 243.5zM121 1614q-6 58 31.5 104.5t91.5 40.5q62 -8 89.5 -27.5t27.5 -47t-1 -64.5q-3 -52 -35 -87t-81 -38q-36 -3 -60.5 5.5t-37 28 t-17.5 38.5t-8 47zM357.5 370q0.5 -7 1.5 -22t4.5 -21t9.5 -15t15 -12t22 -3q10 0 17.5 2t13 7t9 10t6 14t4 15t1.5 18v18.5v19.5v19q-1 25 -0.5 297t0.5 297v19v19.5v18.5t-1.5 18t-4 15t-6 14t-9 10t-13 7t-17.5 2q-13 0 -22 -3t-15 -12t-9.5 -15t-4.5 -21t-1.5 -22t0 -26 t0.5 -24v-594q0 -5 -0.5 -24t0 -26zM463 1614q-6 58 31.5 104.5t91.5 40.5q62 -8 89.5 -27.5t27.5 -47t-1 -64.5q-3 -52 -35 -87t-81 -38q-36 -3 -60.5 5.5t-37 28t-17.5 38.5t-8 47z" />
<glyph unicode="&#xd7;" horiz-adv-x="890" d="M31 735q0 -61 5 -77.5t25 -16.5h86q19 0 23 -5t4 -22v-340q0 -19 16.5 -34t40.5 -15h103q8 0 10 -2.5t2 -11.5v-184q0 -21 14 -24t89 -3q69 0 82.5 4t13.5 27v176q0 18 14 18h115q18 0 30.5 19.5t12.5 52.5v317q0 12 1 16.5t6.5 7.5t18.5 3h91q19 0 22.5 11.5t3.5 61.5 v21q0 74 -4 89.5t-27 15.5h-88q-7 0 -12 1.5t-7.5 2.5t-3.5 5.5t-1 6.5v10v279q0 27 -15.5 45t-35.5 18h-101q-20 0 -20 17v176q0 15 -12 22.5t-30 9t-54 1.5q-103 0 -103 -31v-180q0 -15 -16 -15h-101q-16 0 -35.5 -17t-19.5 -36v-283v-5q0 -11 -0.5 -15.5t-6 -8 t-17.5 -3.5h-87q-23 0 -27.5 -16.5t-4.5 -88.5zM373 459v520q0 19 4.5 25t17.5 6h101q13 0 17.5 -6t4.5 -25v-520q0 -20 -8.5 -27.5t-26.5 -7.5h-75q-18 0 -26.5 7.5t-8.5 27.5z" />
<glyph unicode="&#xd8;" horiz-adv-x="819" d="M51 336v762q0 151 101 243.5t258 92.5q76 0 141 -21q22 -6 25 -5t8 13q11 27 26.5 75t16.5 52q9 27 63 27q25 0 46.5 -11t15.5 -28q-9 -28 -29.5 -87t-30.5 -91q-8 -29 0 -37q76 -79 76 -223v-762q0 -157 -97.5 -246.5t-260.5 -89.5q-74 0 -144 25q-20 8 -28 -13 q-8 -22 -43 -125q-10 -30 -66 -30q-15 0 -31.5 3t-29 9.5t-9.5 13.5q18 51 70 199q5 12 4 21.5t-14 25.5q-68 87 -68 207zM357.5 1038q0.5 -19 0.5 -24v-668q0 -17 14 -33t38 -16q10 0 17.5 2t13 7t9 10t6 14t4 15t1.5 18v18.5v19.5v19v667q0 22 -13.5 36t-37.5 14 q-13 0 -22 -3t-15 -12t-9.5 -15t-4.5 -21t-1.5 -22t0 -26z" />
<glyph unicode="&#xd9;" d="M61 336v1057q0 31 21.5 36t144.5 5q96 0 119 -6t23 -35v-973q0 -7 -0.5 -24.5t0 -25.5t1.5 -22t4.5 -21t9 -15t14.5 -11.5t22 -3.5q10 0 17.5 2t13 7t9 10t6 14t4 15t1.5 18v18.5v19.5v19q-1 103 -1 285.5t0.5 401.5t0.5 286q0 30 19 35.5t122 5.5q80 0 115.5 -4.5 t43 -11.5t7.5 -25v-1057q0 -157 -97.5 -246.5t-260.5 -89.5q-157 0 -258 92.5t-101 243.5zM213 1673q14 29 43 111q4 18 20 19t48 -11q8 -3 111 -41.5t140 -48.5q41 -15 62.5 -32t15.5 -32q-35 -102 -37 -120q-4 -35 -47 -19q-68 24 -170.5 63t-154.5 58q-12 2 -26.5 18.5 t-4.5 34.5z" />
<glyph unicode="&#xda;" d="M61 336v1057q0 31 21.5 36t144.5 5q96 0 119 -6t23 -35v-973q0 -7 -0.5 -24.5t0 -25.5t1.5 -22t4.5 -21t9 -15t14.5 -11.5t22 -3.5q10 0 17.5 2t13 7t9 10t6 14t4 15t1.5 18v18.5v19.5v19q-1 103 -1 285.5t0.5 401.5t0.5 286q0 30 19 35.5t122 5.5q80 0 115.5 -4.5 t43 -11.5t7.5 -25v-1057q0 -157 -97.5 -246.5t-260.5 -89.5q-157 0 -258 92.5t-101 243.5zM219 1636q-6 15 15.5 32t62.5 32q38 10 142 49t110 41q32 12 47.5 11t19.5 -19q29 -82 43 -111q10 -18 -4 -34.5t-26 -18.5q-53 -19 -155.5 -58t-170.5 -63q-43 -16 -47 19 q-2 18 -37 120z" />
<glyph unicode="&#xdb;" d="M61 336v1057q0 31 21.5 36t144.5 5q96 0 119 -6t23 -35v-973q0 -7 -0.5 -24.5t0 -25.5t1.5 -22t4.5 -21t9 -15t14.5 -11.5t22 -3.5q10 0 17.5 2t13 7t9 10t6 14t4 15t1.5 18v18.5v19.5v19q-1 103 -1 285.5t0.5 401.5t0.5 286q0 30 19 35.5t122 5.5q80 0 115.5 -4.5 t43 -11.5t7.5 -25v-1057q0 -157 -97.5 -246.5t-260.5 -89.5q-157 0 -258 92.5t-101 243.5zM143 1626q15 24 133 103q21 15 56.5 42.5t54 38.5t33.5 11q12 0 31.5 -13.5t59 -47t60.5 -50.5q17 -13 42 -32t37 -28t23.5 -20t16.5 -20t-5.5 -32.5t-26 -49.5t-17.5 -33 q-2 -10 -7.5 -17t-17 -6.5t-24.5 13.5l-44 44t-44.5 44t-36.5 36t-29.5 27t-15.5 9t-14.5 -7.5t-30.5 -26t-35 -32.5t-47 -44.5t-47 -45.5q-24 -18 -34.5 -12.5t-14.5 22.5q-2 7 -19 36t-29.5 55.5t-7.5 35.5z" />
<glyph unicode="&#xdc;" d="M61 336v1057q0 31 21.5 36t144.5 5q96 0 119 -6t23 -35v-973q0 -7 -0.5 -24.5t0 -25.5t1.5 -22t4.5 -21t9 -15t14.5 -11.5t22 -3.5q10 0 17.5 2t13 7t9 10t6 14t4 15t1.5 18v18.5v19.5v19q-1 103 -1 285.5t0.5 401.5t0.5 286q0 30 19 35.5t122 5.5q80 0 115.5 -4.5 t43 -11.5t7.5 -25v-1057q0 -157 -97.5 -246.5t-260.5 -89.5q-157 0 -258 92.5t-101 243.5zM137 1612q-6 58 31.5 104.5t91.5 40.5q62 -8 89.5 -27.5t28 -47t-0.5 -64.5q-3 -52 -35.5 -87t-81.5 -38q-36 -3 -60.5 5.5t-37 28t-17.5 38.5t-8 47zM479 1612q-6 58 31.5 104.5 t91.5 40.5q62 -8 89.5 -27.5t28 -47t-0.5 -64.5q-3 -52 -35.5 -87t-81.5 -38q-36 -3 -60.5 5.5t-37 28t-17.5 38.5t-8 47z" />
<glyph unicode="&#xdd;" horiz-adv-x="835" d="M41 1403q-2 9 13 15.5t41 9t45 3.5t38 1q162 0 166 -33q12 -87 36 -246t36 -244q0 -18 12 -18q10 0 10 20q15 103 35 262t29 226q5 33 153 33q26 0 46.5 -1t45.5 -3.5t37.5 -8.5t10.5 -16q-104 -411 -181 -662q-6 -21 -14.5 -61.5t-13.5 -56.5q-11 -33 -11 -119v-488 q0 -16 -153 -16q-154 0 -154 23q0 81 1 231.5t1 243.5q0 88 -2 100q-2 15 -14 58t-16 63q-20 71 -90.5 308t-106.5 376zM297 1636q-6 15 15.5 32t62.5 32q38 10 142 49t110 41q32 12 47.5 11t19.5 -19q29 -82 43 -111q10 -18 -4 -34.5t-26 -18.5q-53 -19 -155.5 -58 t-170.5 -63q-43 -16 -47 19q-2 18 -37 120z" />
<glyph unicode="&#xde;" d="M82 61v1311q0 46 8 54t53 8h215q31 0 31 -121q0 -37 4 -60.5t12.5 -33.5t15.5 -12.5t19 -2.5q163 0 261 -89.5t98 -246.5v-270q0 -157 -98 -246.5t-261 -89.5q-27 0 -39 -16.5t-12 -69.5v-141q0 -25 -21 -30t-104 -5h-33q-104 0 -126.5 8t-22.5 53zM389 563q0 -20 5 -22 t46 -2q10 0 17.5 2t13 7t9.5 10t6 14t3.5 15t2 18t0.5 18v20v19v122v19v20t-0.5 18t-2 18t-3.5 15t-6 14t-9.5 10t-13 7t-17.5 2q-41 0 -46 -2t-5 -22v-320z" />
<glyph unicode="&#xdf;" horiz-adv-x="872" d="M82 25v1073q0 151 100.5 243.5t257.5 92.5q163 0 261 -89.5t98 -246.5v-176q0 -78 -45 -123q-14 -14 -32.5 -23t-31 -13.5t-14.5 -6.5q1 0 15 -3.5t32 -13.5t33 -26q43 -47 43 -135v-242q0 -158 -93 -247t-255 -89q-6 0 -10 5t-6.5 21t-3.5 45t-1 79q0 66 3.5 100.5 t7.5 40.5t10 6q21 0 34 10t18.5 31t7 38t1.5 44v110q0 123 -72 123q-5 0 -7 4t-3.5 25.5t-1.5 65.5q0 42 1.5 62t3.5 24t7 4q72 0 72 123v53q0 65 -12.5 94t-53.5 29q-20 0 -32 -8t-17 -27t-6.5 -36.5t-1.5 -51.5v-991q0 -10 -42.5 -17.5t-100.5 -9.5q-68 -3 -116 3.5 t-48 25.5z" />
<glyph unicode="&#xe0;" horiz-adv-x="819" d="M41 336v311q0 92 24.5 160t66.5 105t89.5 54t102.5 17q46 0 87 -28t58 -60q11 -17 12 6v37q0 34 16 40.5t79 5.5q12 0 19 -0.5t20 -0.5h24q22 0 54 1h31t20 -1.5t11 -5.5t3 -12v-947q0 -14 -12 -17t-53 -2q-10 0 -16 0.5t-17 0.5h-21q-25 0 -63 -1h-48.5t-28.5 4.5 t-14 13.5t-4 28q0 44 -5 44q-3 0 -9 -9q-17 -31 -56 -55.5t-85 -24.5q-43 0 -82.5 10t-77 34.5t-65 62t-44 96.5t-16.5 133zM164 1268q16 31 43 110q4 18 19.5 19t47.5 -11q6 -2 110 -41t142 -49q41 -16 62.5 -32t15.5 -31q-35 -101 -37 -121q-4 -34 -47 -18 q-67 24 -169.5 62.5t-155.5 57.5q-12 2 -26.5 19t-4.5 35zM337.5 385.5q0.5 -8.5 2 -26t5.5 -25.5t10.5 -17.5t17.5 -13.5t26 -4t26.5 4t18 13.5t11 17.5t5.5 25t1.5 26.5t0 31t-0.5 29.5v91q0 8 0.5 29.5t0 31t-1.5 26.5t-5.5 25t-11 17.5t-18 13.5t-26.5 4t-26 -4 t-17.5 -13.5t-10.5 -17.5t-5.5 -25.5t-2 -26t0 -31t0.5 -29.5v-91q0 -7 -0.5 -29.5t0 -31z" />
<glyph unicode="&#xe1;" horiz-adv-x="819" d="M41 336v311q0 92 24.5 160t66.5 105t89.5 54t102.5 17q46 0 87 -28t58 -60q11 -17 12 6v37q0 34 16 40.5t79 5.5q12 0 19 -0.5t20 -0.5h24q22 0 54 1h31t20 -1.5t11 -5.5t3 -12v-947q0 -14 -12 -17t-53 -2q-10 0 -16 0.5t-17 0.5h-21q-25 0 -63 -1h-48.5t-28.5 4.5 t-14 13.5t-4 28q0 44 -5 44q-3 0 -9 -9q-17 -31 -56 -55.5t-85 -24.5q-43 0 -82.5 10t-77 34.5t-65 62t-44 96.5t-16.5 133zM236 1231q-6 15 15 31t62 32q38 10 142 49t110 41q32 12 48 11t20 -19q27 -79 43 -110q10 -18 -4.5 -35t-26.5 -19q-53 -19 -156 -57.5t-170 -62.5 q-43 -16 -47 18q-2 23 -36 121zM337.5 385.5q0.5 -8.5 2 -26t5.5 -25.5t10.5 -17.5t17.5 -13.5t26 -4t26.5 4t18 13.5t11 17.5t5.5 25t1.5 26.5t0 31t-0.5 29.5v91q0 8 0.5 29.5t0 31t-1.5 26.5t-5.5 25t-11 17.5t-18 13.5t-26.5 4t-26 -4t-17.5 -13.5t-10.5 -17.5 t-5.5 -25.5t-2 -26t0 -31t0.5 -29.5v-91q0 -7 -0.5 -29.5t0 -31z" />
<glyph unicode="&#xe2;" horiz-adv-x="819" d="M41 336v311q0 92 24.5 160t66.5 105t89.5 54t102.5 17q46 0 87 -28t58 -60q11 -17 12 6v37q0 34 16 40.5t79 5.5q12 0 19 -0.5t20 -0.5h24q22 0 54 1h31t20 -1.5t11 -5.5t3 -12v-947q0 -14 -12 -17t-53 -2q-10 0 -16 0.5t-17 0.5h-21q-25 0 -63 -1h-48.5t-28.5 4.5 t-14 13.5t-4 28q0 44 -5 44q-3 0 -9 -9q-17 -31 -56 -55.5t-85 -24.5q-43 0 -82.5 10t-77 34.5t-65 62t-44 96.5t-16.5 133zM139 1214q15 24 133 103q21 15 56.5 42.5t54 38.5t33.5 11q12 0 31.5 -13.5t59 -47t60.5 -50.5q17 -13 42 -32t37 -28t23.5 -20t16.5 -20 t-5.5 -32.5t-26 -49.5t-17.5 -33q-2 -10 -7.5 -17t-17 -6.5t-24.5 13.5l-44 44t-44.5 44t-36.5 36t-29.5 27t-15.5 9t-14.5 -7.5t-30.5 -26t-35 -32.5t-47 -44.5t-47 -45.5q-24 -18 -34.5 -12.5t-14.5 22.5q-2 7 -19 36t-29.5 55.5t-7.5 35.5zM337.5 385.5q0.5 -8.5 2 -26 t5.5 -25.5t10.5 -17.5t17.5 -13.5t26 -4t26.5 4t18 13.5t11 17.5t5.5 25t1.5 26.5t0 31t-0.5 29.5v91q0 8 0.5 29.5t0 31t-1.5 26.5t-5.5 25t-11 17.5t-18 13.5t-26.5 4t-26 -4t-17.5 -13.5t-10.5 -17.5t-5.5 -25.5t-2 -26t0 -31t0.5 -29.5v-91q0 -7 -0.5 -29.5t0 -31z" />
<glyph unicode="&#xe3;" horiz-adv-x="819" d="M41 336v311q0 92 24.5 160t66.5 105t89.5 54t102.5 17q46 0 87 -28t58 -60q11 -17 12 6v37q0 34 16 40.5t79 5.5q12 0 19 -0.5t20 -0.5h24q22 0 54 1h31t20 -1.5t11 -5.5t3 -12v-947q0 -14 -12 -17t-53 -2q-10 0 -16 0.5t-17 0.5h-21q-25 0 -63 -1h-48.5t-28.5 4.5 t-14 13.5t-4 28q0 44 -5 44q-3 0 -9 -9q-17 -31 -56 -55.5t-85 -24.5q-43 0 -82.5 10t-77 34.5t-65 62t-44 96.5t-16.5 133zM180 1208q-13 19 90 90q61 41 88 41h12h12.5t11 -1t12.5 -3.5t12 -6.5t14 -11q10 -9 19.5 -20.5t14 -17t12.5 -9.5t18 -4q5 0 9.5 1.5t10 5t9.5 6.5 t10.5 10t10 11t12 14t13.5 15q16 18 29.5 12t17.5 -22q4 -12 28 -54.5t26 -45.5q3 -5 -1 -13t-15 -18t-22 -19t-27.5 -22t-26.5 -21q-21 -18 -37 -26t-23.5 -9t-23.5 -1q-50 0 -74 24q-8 8 -18 19t-13.5 14.5t-11.5 6.5t-19 3q-10 0 -16.5 -3.5t-11.5 -9t-19 -19.5t-32 -29 q-15 -12 -31 -8t-19 18q-3 9 -13 29t-22.5 44t-15.5 29zM337.5 385.5q0.5 -8.5 2 -26t5.5 -25.5t10.5 -17.5t17.5 -13.5t26 -4t26.5 4t18 13.5t11 17.5t5.5 25t1.5 26.5t0 31t-0.5 29.5v91q0 8 0.5 29.5t0 31t-1.5 26.5t-5.5 25t-11 17.5t-18 13.5t-26.5 4t-26 -4 t-17.5 -13.5t-10.5 -17.5t-5.5 -25.5t-2 -26t0 -31t0.5 -29.5v-91q0 -7 -0.5 -29.5t0 -31z" />
<glyph unicode="&#xe4;" horiz-adv-x="819" d="M41 336v311q0 92 24.5 160t66.5 105t89.5 54t102.5 17q46 0 87 -28t58 -60q11 -17 12 6v37q0 34 16 40.5t79 5.5q12 0 19 -0.5t20 -0.5h24q22 0 54 1h31t20 -1.5t11 -5.5t3 -12v-947q0 -14 -12 -17t-53 -2q-10 0 -16 0.5t-17 0.5h-21q-25 0 -63 -1h-48.5t-28.5 4.5 t-14 13.5t-4 28q0 44 -5 44q-3 0 -9 -9q-17 -31 -56 -55.5t-85 -24.5q-43 0 -82.5 10t-77 34.5t-65 62t-44 96.5t-16.5 133zM141 1208q-6 59 31.5 105.5t91.5 40.5q62 -8 89.5 -27.5t28 -47.5t-0.5 -65q-3 -51 -35.5 -86t-81.5 -38q-68 -5 -92.5 27t-30.5 91zM337.5 385.5 q0.5 -8.5 2 -26t5.5 -25.5t10.5 -17.5t17.5 -13.5t26 -4t26.5 4t18 13.5t11 17.5t5.5 25t1.5 26.5t0 31t-0.5 29.5v91q0 8 0.5 29.5t0 31t-1.5 26.5t-5.5 25t-11 17.5t-18 13.5t-26.5 4t-26 -4t-17.5 -13.5t-10.5 -17.5t-5.5 -25.5t-2 -26t0 -31t0.5 -29.5v-91 q0 -7 -0.5 -29.5t0 -31zM483 1208q-6 59 31.5 105.5t91.5 40.5q62 -8 89.5 -27.5t28 -47.5t-0.5 -65q-3 -51 -35.5 -86t-81.5 -38q-68 -5 -92.5 27t-30.5 91z" />
<glyph unicode="&#xe5;" horiz-adv-x="819" d="M41 336v311q0 92 24.5 160t66.5 105t89.5 54t102.5 17q46 0 87 -28t58 -60q11 -17 12 6v37q0 34 16 40.5t79 5.5q12 0 19 -0.5t20 -0.5h24q22 0 54 1h31t20 -1.5t11 -5.5t3 -12v-947q0 -14 -12 -17t-53 -2q-10 0 -16 0.5t-17 0.5h-21q-25 0 -63 -1h-48.5t-28.5 4.5 t-14 13.5t-4 28q0 44 -5 44q-3 0 -9 -9q-17 -31 -56 -55.5t-85 -24.5q-43 0 -82.5 10t-77 34.5t-65 62t-44 96.5t-16.5 133zM250 1239q5 57 19.5 89.5t36.5 42.5t50 12t60 -3q62 -3 103.5 -42t45.5 -99q3 -43 -7 -72.5t-33 -44t-45 -20.5t-56 -10q-71 -8 -128.5 37.5 t-45.5 109.5zM337.5 385.5q0.5 -8.5 2 -26t5.5 -25.5t10.5 -17.5t17.5 -13.5t26 -4t26.5 4t18 13.5t11 17.5t5.5 25t1.5 26.5t0 31t-0.5 29.5v91q0 8 0.5 29.5t0 31t-1.5 26.5t-5.5 25t-11 17.5t-18 13.5t-26.5 4t-26 -4t-17.5 -13.5t-10.5 -17.5t-5.5 -25.5t-2 -26t0 -31 t0.5 -29.5v-91q0 -7 -0.5 -29.5t0 -31zM340 1239q-4 -28 21.5 -48t56.5 -17q21 3 32.5 6.5t21 18t7.5 40.5q-1 25 -19 41.5t-44 19.5h-8q-17 0 -25 -1t-18.5 -6t-16 -18.5t-8.5 -35.5z" />
<glyph unicode="&#xe6;" horiz-adv-x="1214" d="M41 311q0 41 15 85t44 86t83 69t122 27q35 0 63.5 -5.5t42.5 -12.5t26 -14t12.5 -9.5t3.5 0.5v49q0 129 -70 129q-32 0 -46.5 -24.5t-14.5 -47.5q0 -11 -69 -15t-137.5 1.5t-68.5 17.5q0 135 90.5 235.5t241.5 100.5q65 0 112.5 -16t66 -35t31.5 -35t17 -16q7 0 20 16 t31 35t65 35t114 16q161 0 249.5 -88.5t88.5 -247.5v-174q0 -21 -6 -25t-38 -4h-329q-19 0 -23 -9.5t-4 -39.5q0 -46 2 -69q3 -24 16.5 -35.5t43.5 -11.5q61 0 61 77q0 12 17 14.5t96 2.5h32q86 0 109 -5t23 -32q0 -159 -88.5 -247.5t-249.5 -88.5q-54 0 -96.5 9.5t-65 22.5 t-37 26t-22.5 22.5t-13 9.5q-4 0 -11.5 -9.5t-22.5 -22.5t-38 -26t-65.5 -22.5t-97.5 -9.5q-157 0 -241.5 88t-84.5 223zM313 301q0 -45 19 -71.5t47 -26.5q34 0 53 12.5t19 32.5v96q0 20 -20 37.5t-52 17.5q-30 0 -48 -25t-18 -73zM774 641q0 -48 10 -61t52 -13t51.5 13 t9.5 65q0 57 -15.5 77.5t-45.5 20.5q-32 0 -47 -22t-15 -80z" />
<glyph unicode="&#xe7;" horiz-adv-x="788" d="M41 336v311q0 151 100.5 243.5t257.5 92.5q163 0 261 -89.5t98 -246.5q0 -24 -23 -28.5t-151 -4.5q-94 0 -113.5 3t-19.5 18q0 7 -3 17t-16 22t-33 12q-13 0 -22 -3.5t-14.5 -11.5t-9 -15t-4.5 -21t-1.5 -22t0 -25.5t0.5 -24.5v-143q0 -7 -0.5 -24.5t0 -25.5t1.5 -22 t4.5 -21t9 -15t14.5 -11.5t22 -3.5q26 0 39 18.5t13 32.5t6 19.5t39 9.5t106 4q40 0 63 -0.5t42.5 -2.5t28 -4t14.5 -8t7 -12t1 -18q0 -67 -20.5 -124t-51.5 -93.5t-69 -62.5t-71.5 -37t-60.5 -11q-5 0 -7.5 -5t-3 -14t-0.5 -17t0.5 -19t0.5 -16q0 -93 -64.5 -160.5 t-156.5 -67.5q-10 0 -10 60q0 92 6 92q31 0 59.5 18.5t28.5 52.5q0 4 0.5 14t1 18.5t0 17.5t-2.5 14.5t-5 5.5q-15 0 -45 8.5t-73.5 32t-81 58.5t-64.5 97t-27 138z" />
<glyph unicode="&#xe8;" horiz-adv-x="798" d="M41 336v311q0 151 100.5 243.5t257.5 92.5q163 0 261 -89.5t98 -246.5v-174q0 -21 -5.5 -25t-37.5 -4h-344h-8.5h-8t-6 -1t-5 -2.5t-2.5 -5t-2.5 -9t-0.5 -12.5v-22.5v-23t0.5 -20.5t2 -19.5t4 -16t7.5 -14.5t11 -10t15.5 -7t20.5 -2q62 0 62 81q0 10 22 11.5t111 1.5h32 q86 0 109 -5t23 -32q0 -157 -98 -246.5t-261 -89.5q-157 0 -257.5 92.5t-100.5 243.5zM170 1251q14 29 43 111q4 18 20 19t48 -11q8 -3 111 -41.5t140 -48.5q41 -16 62.5 -32t15.5 -31q-35 -101 -37 -121q-4 -35 -47 -19q-68 24 -170.5 63t-154.5 58q-12 2 -26.5 18.5 t-4.5 34.5zM338 641q0 -49 9.5 -61.5t51.5 -12.5t52 13t10 65q0 57 -16 77.5t-46 20.5q-31 0 -46 -22t-15 -80z" />
<glyph unicode="&#xe9;" horiz-adv-x="798" d="M41 336v311q0 151 100.5 243.5t257.5 92.5q163 0 261 -89.5t98 -246.5v-174q0 -21 -5.5 -25t-37.5 -4h-344h-8.5h-8t-6 -1t-5 -2.5t-2.5 -5t-2.5 -9t-0.5 -12.5v-22.5v-23t0.5 -20.5t2 -19.5t4 -16t7.5 -14.5t11 -10t15.5 -7t20.5 -2q62 0 62 81q0 10 22 11.5t111 1.5h32 q86 0 109 -5t23 -32q0 -157 -98 -246.5t-261 -89.5q-157 0 -257.5 92.5t-100.5 243.5zM213 1214q-6 15 15.5 32t62.5 32q38 10 142 49t110 41q32 12 47.5 11t19.5 -19q29 -82 43 -111q10 -18 -4 -34.5t-26 -18.5q-53 -19 -155.5 -58t-170.5 -63q-43 -16 -47 19 q-2 18 -37 120zM338 641q0 -49 9.5 -61.5t51.5 -12.5t52 13t10 65q0 57 -16 77.5t-46 20.5q-31 0 -46 -22t-15 -80z" />
<glyph unicode="&#xea;" horiz-adv-x="798" d="M41 336v311q0 151 100.5 243.5t257.5 92.5q163 0 261 -89.5t98 -246.5v-174q0 -21 -5.5 -25t-37.5 -4h-344h-8.5h-8t-6 -1t-5 -2.5t-2.5 -5t-2.5 -9t-0.5 -12.5v-22.5v-23t0.5 -20.5t2 -19.5t4 -16t7.5 -14.5t11 -10t15.5 -7t20.5 -2q62 0 62 81q0 10 22 11.5t111 1.5h32 q86 0 109 -5t23 -32q0 -157 -98 -246.5t-261 -89.5q-157 0 -257.5 92.5t-100.5 243.5zM111 1204q15 24 133 103q22 15 56.5 42.5t53 38.5t33.5 11q12 0 31.5 -13.5t60 -47.5t60.5 -50l42 -31.5t36.5 -28t22.5 -20t17 -20.5t-5.5 -32.5t-26 -49.5t-17.5 -33q-2 -10 -7.5 -17 t-17 -6.5t-24.5 13.5l-44 44t-44.5 44t-36.5 36t-29.5 27t-15.5 9t-14.5 -7.5t-30.5 -26t-35 -32.5t-47 -44.5t-47 -45.5q-24 -18 -34.5 -12.5t-14.5 22.5q-2 6 -19 35.5t-29 56t-7 35.5zM338 641q0 -49 9.5 -61.5t51.5 -12.5t52 13t10 65q0 57 -16 77.5t-46 20.5 q-31 0 -46 -22t-15 -80z" />
<glyph unicode="&#xeb;" horiz-adv-x="798" d="M41 336v311q0 151 100.5 243.5t257.5 92.5q163 0 261 -89.5t98 -246.5v-174q0 -21 -5.5 -25t-37.5 -4h-344h-8.5h-8t-6 -1t-5 -2.5t-2.5 -5t-2.5 -9t-0.5 -12.5v-22.5v-23t0.5 -20.5t2 -19.5t4 -16t7.5 -14.5t11 -10t15.5 -7t20.5 -2q62 0 62 81q0 10 22 11.5t111 1.5h32 q86 0 109 -5t23 -32q0 -157 -98 -246.5t-261 -89.5q-157 0 -257.5 92.5t-100.5 243.5zM104 1208q-6 59 31.5 105.5t91.5 40.5q62 -8 89.5 -27.5t28 -47.5t-0.5 -65q-3 -51 -35.5 -86t-81.5 -38q-68 -5 -92.5 27t-30.5 91zM338 641q0 -49 9.5 -61.5t51.5 -12.5t52 13t10 65 q0 57 -16 77.5t-46 20.5q-31 0 -46 -22t-15 -80zM446 1208q-6 59 31.5 105.5t91.5 40.5q62 -8 89.5 -27.5t28 -47.5t-0.5 -65q-3 -51 -35.5 -86t-81.5 -38q-68 -5 -92.5 27t-30.5 91z" />
<glyph unicode="&#xec;" horiz-adv-x="430" d="M61 31v915q0 28 19.5 32.5t128.5 4.5q118 0 139 -5.5t21 -33.5v-909q0 -25 -21.5 -30t-138.5 -5q-108 0 -128 4.5t-20 26.5zM63 1266q16 31 43 110q4 18 20 19t48 -11q6 -2 110 -41t142 -49q41 -16 62.5 -32t15.5 -31q-35 -101 -37 -121q-4 -34 -47 -18q-67 24 -170 62.5 t-156 57.5q-12 2 -26.5 19t-4.5 35z" />
<glyph unicode="&#xed;" horiz-adv-x="430" d="M61 31v915q0 28 19.5 32.5t128.5 4.5q118 0 139 -5.5t21 -33.5v-909q0 -25 -21.5 -30t-138.5 -5q-108 0 -128 4.5t-20 26.5zM61 1231q-6 15 15.5 31t62.5 32q38 10 142 49t110 41q32 12 48 11t20 -19q27 -79 43 -110q10 -18 -4.5 -35t-26.5 -19q-53 -19 -156 -57.5 t-170 -62.5q-43 -16 -47 18q-2 20 -37 121z" />
<glyph unicode="&#xee;" horiz-adv-x="430" d="M61 31v915q0 28 19.5 32.5t128.5 4.5q118 0 139 -5.5t21 -33.5v-909q0 -25 -21.5 -30t-138.5 -5q-108 0 -128 4.5t-20 26.5zM61 1210q14 22 134 103q22 15 56.5 42.5t53 38.5t33.5 11q12 0 31.5 -13.5t59 -47t60.5 -50.5q17 -13 42 -32t37 -28t23.5 -20t16.5 -20 t-5.5 -32.5t-26 -49.5t-17.5 -33q-2 -10 -7.5 -17t-17 -6.5t-24.5 13.5l-44 44t-44.5 44t-36.5 36t-29.5 27t-15.5 9t-14.5 -7.5t-30.5 -26t-35 -32.5t-47 -44.5t-47 -45.5q-24 -18 -34.5 -12.5t-14.5 22.5q-2 7 -19 36t-29.5 55.5t-7.5 35.5z" />
<glyph unicode="&#xef;" horiz-adv-x="430" d="M59 1208q-6 59 31.5 105.5t91.5 40.5q62 -8 89.5 -27.5t28 -47.5t-0.5 -65q-3 -51 -35.5 -86t-81.5 -38q-68 -5 -92.5 27t-30.5 91zM61 31v915q0 28 19.5 32.5t128.5 4.5q118 0 139 -5.5t21 -33.5v-909q0 -25 -21.5 -30t-138.5 -5q-108 0 -128 4.5t-20 26.5zM401 1208 q-6 59 31.5 105.5t91.5 40.5q62 -8 89.5 -27.5t28 -47.5t-0.5 -65q-3 -51 -35.5 -86t-81.5 -38q-68 -5 -92.5 27t-30.5 91z" />
<glyph unicode="&#xf0;" horiz-adv-x="819" d="M41 336v311q0 92 23 160t63 105t86.5 54t101.5 17q27 0 82 -20t68 -45q13 -21 15 -7l1 27v117q0 10 -67 10q-14 0 -32.5 9.5t-14.5 29.5q3 19 2.5 78t-2.5 82q-1 18 13 24t50 6q51 0 51 9v112q0 4 2 7t6.5 5.5t10 3.5t14 2t16.5 1.5t20.5 0.5t22.5 -0.5t25 -0.5h27h28.5 t25.5 0.5t21 0.5h18t14.5 -1t11.5 -2t7.5 -3.5t5 -6t1.5 -7.5v-121q0 -4 27.5 -3.5t55 -4.5t27.5 -22q0 -153 4 -168t-3 -24t-35 -9q-76 0 -76 -10v-1035q0 -14 -12 -17t-53 -2q-10 0 -16 0.5t-17 0.5h-21q-25 0 -63 -1h-48.5t-28.5 4.5t-14 13.5t-4 28q0 33 -5 34 q-4 -2 -11 -13q-13 -25 -68 -45.5t-82 -20.5q-55 0 -101.5 17t-86.5 54t-63 105t-23 160zM337.5 385.5q0.5 -8.5 2 -26t5.5 -25.5t10.5 -17.5t17.5 -13.5t26 -4t26.5 4t18 13.5t11 17.5t5.5 25t1.5 26.5t0 31t-0.5 29.5v91q0 8 0.5 29.5t0 31t-1.5 26.5t-5.5 25t-11 17.5 t-18 13.5t-26.5 4t-26 -4t-17.5 -13.5t-10.5 -17.5t-5.5 -25.5t-2 -26t0 -31t0.5 -29.5v-91q0 -7 -0.5 -29.5t0 -31z" />
<glyph unicode="&#xf1;" d="M61 18v947q0 14 12 17t53 2q32 -1 54 -1q25 0 63 1h48.5t28.5 -4.5t14 -13.5t4 -28q0 -32 4 -33t12 13q13 25 68 45t82 20q55 0 101.5 -17t86.5 -54t63 -105t23 -160v-624q0 -15 -27 -19t-116 -4q-109 0 -136.5 2.5t-27.5 13.5v547v19v19.5v18.5t-1.5 18t-4 15t-6 14 t-9 10t-13 7t-17.5 2q-13 0 -22 -3.5t-14.5 -11.5t-9 -15t-4.5 -21t-1.5 -22t0 -25.5t0.5 -24.5v-538q0 -19 -18.5 -22t-115.5 -3h-30q-103 0 -123.5 2.5t-20.5 15.5zM184 1208q-13 19 90 90q61 41 88 41h12h12.5t11 -1t12.5 -3.5t12 -6.5t14 -11q10 -9 19.5 -20.5t14 -17 t12.5 -9.5t18 -4q5 0 9.5 1.5t10 5t9.5 6.5t10.5 10t10 11t12 14t13.5 15q16 18 30 12t18 -22q4 -12 28 -55t25 -45q3 -5 -1 -13t-15 -18t-22 -19t-27.5 -22t-26.5 -21q-21 -18 -37 -26t-23.5 -9t-23.5 -1q-50 0 -74 24q-8 8 -17.5 19t-13.5 14.5t-11.5 6.5t-18.5 3 q-10 0 -16.5 -3.5t-11.5 -9t-19.5 -19.5t-32.5 -29q-15 -11 -30.5 -7.5t-18.5 17.5q-3 9 -13 29.5t-23 43.5t-16 29z" />
<glyph unicode="&#xf2;" horiz-adv-x="798" d="M41 336v311q0 151 100.5 243.5t257.5 92.5q163 0 261 -89.5t98 -246.5v-311q0 -157 -98 -246.5t-261 -89.5q-157 0 -257.5 92.5t-100.5 243.5zM201 1245q14 29 43 111q4 18 19.5 19t47.5 -11q6 -2 110 -41t142 -49q41 -15 62.5 -32t15.5 -32q-35 -102 -37 -120 q-4 -35 -47 -19q-68 24 -170.5 63t-155.5 58q-12 2 -26 18.5t-4 34.5zM337.5 385.5q0.5 -8.5 2 -26t5.5 -25.5t10.5 -17.5t17.5 -13.5t26 -4t26.5 4t18 13.5t11 17.5t5.5 25t1.5 26.5t0 31t-0.5 29.5v91q0 8 0.5 29.5t0 31t-1.5 26.5t-5.5 25t-11 17.5t-18 13.5t-26.5 4 t-26 -4t-17.5 -13.5t-10.5 -17.5t-5.5 -25.5t-2 -26t0 -31t0.5 -29.5v-91q0 -7 -0.5 -29.5t0 -31z" />
<glyph unicode="&#xf3;" horiz-adv-x="798" d="M41 336v311q0 151 100.5 243.5t257.5 92.5q163 0 261 -89.5t98 -246.5v-311q0 -157 -98 -246.5t-261 -89.5q-157 0 -257.5 92.5t-100.5 243.5zM201 1206q-6 15 15.5 32t62.5 32q37 10 140 48.5t111 41.5q32 12 48 11t20 -19q29 -82 43 -111q10 -18 -4.5 -34.5 t-26.5 -18.5q-52 -19 -154.5 -58t-170.5 -63q-43 -16 -47 18q-2 19 -37 121zM337.5 385.5q0.5 -8.5 2 -26t5.5 -25.5t10.5 -17.5t17.5 -13.5t26 -4t26.5 4t18 13.5t11 17.5t5.5 25t1.5 26.5t0 31t-0.5 29.5v91q0 8 0.5 29.5t0 31t-1.5 26.5t-5.5 25t-11 17.5t-18 13.5 t-26.5 4t-26 -4t-17.5 -13.5t-10.5 -17.5t-5.5 -25.5t-2 -26t0 -31t0.5 -29.5v-91q0 -7 -0.5 -29.5t0 -31z" />
<glyph unicode="&#xf4;" horiz-adv-x="798" d="M41 336v311q0 151 100.5 243.5t257.5 92.5q163 0 261 -89.5t98 -246.5v-311q0 -157 -98 -246.5t-261 -89.5q-157 0 -257.5 92.5t-100.5 243.5zM123 1204q15 24 133 103q22 15 56.5 42.5t53 38.5t33.5 11q12 0 31.5 -13.5t60 -47.5t60.5 -50q17 -13 42 -32t37 -28 t23.5 -20t16.5 -20t-5.5 -32.5t-26 -49.5t-17.5 -33q-4 -17 -15.5 -22.5t-34.5 12.5l-44 44t-44.5 44t-36.5 36t-29.5 27t-15.5 9t-14.5 -7.5t-30.5 -26t-35 -32.5t-47 -44.5t-47 -45.5q-24 -18 -34.5 -12.5t-14.5 22.5q-2 6 -19 35.5t-29 56t-7 35.5zM337.5 385.5 q0.5 -8.5 2 -26t5.5 -25.5t10.5 -17.5t17.5 -13.5t26 -4t26.5 4t18 13.5t11 17.5t5.5 25t1.5 26.5t0 31t-0.5 29.5v91q0 8 0.5 29.5t0 31t-1.5 26.5t-5.5 25t-11 17.5t-18 13.5t-26.5 4t-26 -4t-17.5 -13.5t-10.5 -17.5t-5.5 -25.5t-2 -26t0 -31t0.5 -29.5v-91 q0 -7 -0.5 -29.5t0 -31z" />
<glyph unicode="&#xf5;" horiz-adv-x="798" d="M41 336v311q0 151 100.5 243.5t257.5 92.5q163 0 261 -89.5t98 -246.5v-311q0 -157 -98 -246.5t-261 -89.5q-157 0 -257.5 92.5t-100.5 243.5zM164 1208q-13 19 90 90q61 41 88 41h12h12.5t11 -1t12.5 -3.5t12 -6.5t14 -11q11 -11 23 -26t19.5 -20t20.5 -5q4 0 7.5 1 t7.5 3t7.5 4t8 6t7.5 7t8.5 9t9 10t10 11.5t10.5 11.5q16 18 29.5 12t17.5 -22q4 -12 28 -55t25 -45q3 -5 -1 -13t-15 -18t-22 -19t-27.5 -22t-26.5 -21q-21 -18 -37 -26t-23.5 -9t-23.5 -1q-49 0 -73 24q-8 8 -18 19t-13.5 14.5t-11.5 6.5t-19 3q-10 0 -16.5 -3.5t-11.5 -9 t-19.5 -19.5t-32.5 -29q-15 -11 -30.5 -7.5t-18.5 17.5q-3 9 -13 29t-22.5 44t-15.5 29zM337.5 385.5q0.5 -8.5 2 -26t5.5 -25.5t10.5 -17.5t17.5 -13.5t26 -4t26.5 4t18 13.5t11 17.5t5.5 25t1.5 26.5t0 31t-0.5 29.5v91q0 8 0.5 29.5t0 31t-1.5 26.5t-5.5 25t-11 17.5 t-18 13.5t-26.5 4t-26 -4t-17.5 -13.5t-10.5 -17.5t-5.5 -25.5t-2 -26t0 -31t0.5 -29.5v-91q0 -7 -0.5 -29.5t0 -31z" />
<glyph unicode="&#xf6;" horiz-adv-x="798" d="M41 336v311q0 151 100.5 243.5t257.5 92.5q163 0 261 -89.5t98 -246.5v-311q0 -157 -98 -246.5t-261 -89.5q-157 0 -257.5 92.5t-100.5 243.5zM115 1208q-6 59 31.5 105.5t91.5 40.5q47 -6 74 -18.5t35 -30.5t9 -41t-2 -50q-3 -52 -35 -86.5t-81 -37.5q-68 -5 -92.5 27 t-30.5 91zM337.5 385.5q0.5 -8.5 2 -26t5.5 -25.5t10.5 -17.5t17.5 -13.5t26 -4t26.5 4t18 13.5t11 17.5t5.5 25t1.5 26.5t0 31t-0.5 29.5v91q0 8 0.5 29.5t0 31t-1.5 26.5t-5.5 25t-11 17.5t-18 13.5t-26.5 4t-26 -4t-17.5 -13.5t-10.5 -17.5t-5.5 -25.5t-2 -26t0 -31 t0.5 -29.5v-91q0 -7 -0.5 -29.5t0 -31zM457 1208q-6 59 31.5 105.5t91.5 40.5q47 -6 74 -18.5t35 -30.5t9 -41t-2 -50q-3 -52 -35 -86.5t-81 -37.5q-68 -5 -92.5 27t-30.5 91z" />
<glyph unicode="&#xf7;" horiz-adv-x="890" d="M31 735q0 -61 5 -77.5t25 -16.5h86q19 0 23 -5t4 -22v-340q0 -19 16.5 -34t40.5 -15h103q8 0 10 -2.5t2 -11.5v-184q0 -21 14 -24t89 -3q69 0 82.5 4t13.5 27v176q0 18 14 18h115q18 0 30.5 19.5t12.5 52.5v317q0 12 1 16.5t6.5 7.5t18.5 3h91q19 0 22.5 11.5t3.5 61.5 v21q0 74 -4 89.5t-27 15.5h-88q-7 0 -12 1.5t-7.5 2.5t-3.5 5.5t-1 6.5v10v279q0 27 -15.5 45t-35.5 18h-101q-20 0 -20 17v176q0 15 -12 22.5t-30 9t-54 1.5q-103 0 -103 -31v-180q0 -15 -16 -15h-101q-16 0 -35.5 -17t-19.5 -36v-283v-5q0 -11 -0.5 -15.5t-6 -8 t-17.5 -3.5h-87q-23 0 -27.5 -16.5t-4.5 -88.5zM373 459v520q0 19 4.5 25t17.5 6h101q13 0 17.5 -6t4.5 -25v-520q0 -20 -8.5 -27.5t-26.5 -7.5h-75q-18 0 -26.5 7.5t-8.5 27.5z" />
<glyph unicode="&#xf8;" horiz-adv-x="798" d="M41 336v311q0 151 100.5 243.5t257.5 92.5q30 0 88 -8q10 -1 13.5 3t7.5 15q12 35 23.5 68.5t17 49.5t6.5 19q9 27 63 27q25 0 46.5 -11t15.5 -28q0 -1 -8 -25.5t-21 -64t-28 -82.5q-6 -20 4 -26q61 -37 96 -109.5t35 -163.5v-311q0 -157 -98 -246.5t-261 -89.5 q-31 0 -71 6q-27 4 -33 -22q-6 -19 -12 -37.5t-10 -29.5t-7.5 -20t-3.5 -10q-10 -30 -65 -30q-15 0 -31.5 3t-29 9.5t-9.5 13.5q0 1 8 23t19 54.5t22 68.5q1 3 4 10.5t3 11t-3.5 10t-13.5 13.5q-59 43 -92 110.5t-33 151.5zM337.5 385.5q0.5 -8.5 2 -26t5.5 -25.5 t10.5 -17.5t17.5 -13.5t26 -4t26.5 4t18 13.5t11 17.5t5.5 25t1.5 26.5t0 31t-0.5 29.5v91q0 8 0.5 29.5t0 31t-1.5 26.5t-5.5 25t-11 17.5t-18 13.5t-26.5 4t-26 -4t-17.5 -13.5t-10.5 -17.5t-5.5 -25.5t-2 -26t0 -31t0.5 -29.5v-91q0 -7 -0.5 -29.5t0 -31z" />
<glyph unicode="&#xf9;" d="M61 336v625q0 15 26.5 18.5t117.5 3.5q53 0 82 -1t45.5 -3.5t21 -6.5t4.5 -11v-515q0 -7 -0.5 -22.5t0 -23.5t1 -22t2 -21.5t4 -18t7.5 -16.5t11.5 -12t15.5 -8.5t21 -2.5q15 0 26.5 4t18 13.5t10.5 18.5t5.5 25.5t1.5 26.5t-0.5 30t-0.5 29v504v1q0 23 20.5 27.5 t133.5 4.5q102 0 122.5 -2.5t20.5 -15.5v-947q0 -14 -12 -17t-53 -2q-10 0 -16 0.5t-17 0.5h-21q-25 0 -63 -1h-47.5t-29 4.5t-14 13.5t-3.5 28q0 44 -8 44q-3 0 -9 -9q-17 -32 -54.5 -56t-84.5 -24q-43 0 -82.5 10t-77 34.5t-65 62t-44 96.5t-16.5 133zM215 1266 q16 31 43 110q4 18 20 19t48 -11q6 -2 110 -41t142 -49q41 -16 62 -32t15 -31q-35 -101 -37 -121q-4 -34 -47 -18q-67 24 -169.5 62.5t-155.5 57.5q-12 2 -26.5 19t-4.5 35z" />
<glyph unicode="&#xfa;" d="M61 336v625q0 15 26.5 18.5t117.5 3.5q53 0 82 -1t45.5 -3.5t21 -6.5t4.5 -11v-515q0 -7 -0.5 -22.5t0 -23.5t1 -22t2 -21.5t4 -18t7.5 -16.5t11.5 -12t15.5 -8.5t21 -2.5q15 0 26.5 4t18 13.5t10.5 18.5t5.5 25.5t1.5 26.5t-0.5 30t-0.5 29v504v1q0 23 20.5 27.5 t133.5 4.5q102 0 122.5 -2.5t20.5 -15.5v-947q0 -14 -12 -17t-53 -2q-10 0 -16 0.5t-17 0.5h-21q-25 0 -63 -1h-47.5t-29 4.5t-14 13.5t-3.5 28q0 44 -8 44q-3 0 -9 -9q-17 -32 -54.5 -56t-84.5 -24q-43 0 -82.5 10t-77 34.5t-65 62t-44 96.5t-16.5 133zM217 1231 q-6 15 15.5 31t62.5 32q38 10 142 49t110 41q32 12 47.5 11t19.5 -19q27 -79 43 -110q10 -18 -4 -35t-26 -19q-53 -19 -156 -57.5t-170 -62.5q-43 -16 -47 18q-2 20 -37 121z" />
<glyph unicode="&#xfb;" d="M61 336v625q0 15 26.5 18.5t117.5 3.5q53 0 82 -1t45.5 -3.5t21 -6.5t4.5 -11v-515q0 -7 -0.5 -22.5t0 -23.5t1 -22t2 -21.5t4 -18t7.5 -16.5t11.5 -12t15.5 -8.5t21 -2.5q15 0 26.5 4t18 13.5t10.5 18.5t5.5 25.5t1.5 26.5t-0.5 30t-0.5 29v504v1q0 23 20.5 27.5 t133.5 4.5q102 0 122.5 -2.5t20.5 -15.5v-947q0 -14 -12 -17t-53 -2q-10 0 -16 0.5t-17 0.5h-21q-25 0 -63 -1h-47.5t-29 4.5t-14 13.5t-3.5 28q0 44 -8 44q-3 0 -9 -9q-17 -32 -54.5 -56t-84.5 -24q-43 0 -82.5 10t-77 34.5t-65 62t-44 96.5t-16.5 133zM156 1243 q15 24 133 103q22 15 56.5 42.5t53 38.5t33.5 11q12 0 31.5 -13.5t60 -47.5t60.5 -50l42 -31.5t36.5 -28t22.5 -20t17 -20.5t-5.5 -32.5t-26 -49.5t-17.5 -33q-2 -10 -7.5 -17t-17 -6.5t-24.5 13.5l-44 44t-44.5 44t-36.5 36t-29.5 27t-15.5 9t-14.5 -7.5t-30.5 -26 t-35 -32.5t-47 -44.5t-47 -45.5q-24 -18 -34.5 -12.5t-14.5 22.5q-2 6 -19 35.5t-29 56t-7 35.5z" />
<glyph unicode="&#xfc;" d="M61 336v625q0 15 26.5 18.5t117.5 3.5q53 0 82 -1t45.5 -3.5t21 -6.5t4.5 -11v-515q0 -7 -0.5 -22.5t0 -23.5t1 -22t2 -21.5t4 -18t7.5 -16.5t11.5 -12t15.5 -8.5t21 -2.5q15 0 26.5 4t18 13.5t10.5 18.5t5.5 25.5t1.5 26.5t-0.5 30t-0.5 29v504v1q0 23 20.5 27.5 t133.5 4.5q102 0 122.5 -2.5t20.5 -15.5v-947q0 -14 -12 -17t-53 -2q-10 0 -16 0.5t-17 0.5h-21q-25 0 -63 -1h-47.5t-29 4.5t-14 13.5t-3.5 28q0 44 -8 44q-3 0 -9 -9q-17 -32 -54.5 -56t-84.5 -24q-43 0 -82.5 10t-77 34.5t-65 62t-44 96.5t-16.5 133zM131 1206 q-6 59 31.5 105.5t91.5 40.5q62 -8 89.5 -27.5t28 -47.5t-0.5 -65q-3 -52 -35.5 -87t-81.5 -38q-36 -3 -60.5 5.5t-37 28t-17.5 38.5t-8 47zM473 1206q-6 59 31.5 105.5t91.5 40.5q62 -8 89.5 -27.5t28 -47.5t-0.5 -65q-3 -52 -35.5 -87t-81.5 -38q-36 -3 -60.5 5.5t-37 28 t-17.5 38.5t-8 47z" />
<glyph unicode="&#xfd;" horiz-adv-x="763" d="M31 961q-3 13 42 17.5t105 4.5q142 0 144 -29q9 -93 16.5 -173.5t16 -173.5t14.5 -163q0 -20 12 -20q14 0 14 22q10 104 24.5 256.5t24.5 255.5q2 25 154 25q49 0 94 -7t41 -22q-264 -1039 -338 -1337q-6 -27 -129 -27q-22 0 -40.5 1t-43 4t-38 10t-11.5 18 q32 151 80 383q8 36 8 62q0 43 -4 57q-31 134 -61 269t-65.5 296.5t-59.5 270.5zM231 1229q-6 15 15.5 31t62.5 32q38 10 142 49t110 41q32 12 48 11t20 -19q27 -79 43 -110q10 -18 -4.5 -35t-26.5 -19q-53 -19 -156 -57.5t-170 -62.5q-43 -16 -47 18q-2 20 -37 121z" />
<glyph unicode="&#xfe;" horiz-adv-x="819" d="M61 -391v1806q0 4 1.5 7.5t5 6t7.5 3.5t11.5 2t14.5 1h18.5t21.5 -0.5t25.5 -0.5h28.5h27t25 0.5t22 0.5t20 -0.5t16.5 -1.5t14 -2t10 -3.5t6.5 -5.5t2 -7v-477q0 -32 4 -33t12 13q13 25 68 45t82 20q55 0 101.5 -17t86.5 -54t63 -105t23 -160v-311q0 -92 -24.5 -160 t-66.5 -105t-90 -54t-103 -17q-25 0 -75.5 21t-64.5 45q-13 21 -15 5q-1 -7 -1 -26v-438q0 -2 1 -6q1 -8 -8 -9q-12 -2 -103 -2h-1h-1h-1h-1h-1h-1h-1h-1h-1h-1h-1h-1h-1h-10q-101 0 -122.5 3t-21.5 16zM357.5 399q0.5 -8 1 -22t2 -21.5t4 -18t7.5 -16t11.5 -11.5t15.5 -8.5 t21 -2.5q15 0 26.5 4t18 13.5t10.5 18t5.5 25t1.5 26.5t-0.5 30.5t-0.5 29.5v91q0 9 0.5 29.5t0.5 30.5t-1.5 26.5t-5.5 25t-10.5 18t-18 13.5t-26.5 4q-12 0 -21 -2.5t-15.5 -8.5t-11.5 -11.5t-7.5 -16t-4 -18t-2 -21.5t-1 -22t0 -23.5t0.5 -23.5v-91q0 -8 -0.5 -23.5 t0 -23.5z" />
<glyph unicode="&#xff;" horiz-adv-x="763" d="M31 961q-3 13 42 17.5t105 4.5q142 0 144 -29q9 -93 16.5 -173.5t16 -173.5t14.5 -163q0 -20 12 -20q14 0 14 22q10 104 24.5 256.5t24.5 255.5q2 25 154 25q49 0 94 -7t41 -22q-264 -1039 -338 -1337q-6 -27 -129 -27q-22 0 -40.5 1t-43 4t-38 10t-11.5 18 q32 151 80 383q8 36 8 62q0 43 -4 57q-31 134 -61 269t-65.5 296.5t-59.5 270.5zM111 1208q-6 59 31 105.5t91 40.5q62 -8 89.5 -27.5t28 -47.5t-0.5 -65q-3 -51 -35.5 -86t-81.5 -38q-36 -3 -60 5.5t-36.5 27.5t-17.5 38t-8 47zM453 1208q-6 59 31 105.5t91 40.5 q62 -8 89.5 -27.5t28 -47.5t-0.5 -65q-3 -51 -35.5 -86t-81.5 -38q-36 -3 -60 5.5t-36.5 27.5t-17.5 38t-8 47z" />
<glyph unicode="&#x152;" horiz-adv-x="1097" d="M51 336v762q0 155 82.5 245.5t235.5 90.5q22 0 32 -0.5t31.5 -8t40.5 -22.5q34 -27 42 -26q13 0 13 34q0 13 5.5 18t21.5 5h477q18 0 21.5 -18t3.5 -113q0 -113 -3.5 -134.5t-23.5 -21.5h-205q-47 0 -47 -10q-8 -11 -9 -15t-1 -24v-150q0 -3 -0.5 -11t0 -12.5t1.5 -10.5 t3.5 -11t7.5 -8q11 -8 45 -8h101q16 0 19 -15t3 -91v-40v-52q1 -62 -2 -74.5t-20 -12.5h-92q-12 0 -31 -3t-21 -3q-5 -3 -8.5 -7.5t-4.5 -11.5l-1.5 -10.5t0 -14.5t0.5 -15v-170q0 -60 8 -68q12 -12 64 -12h194q19 0 23 -19.5t4 -117.5q0 -108 -3.5 -129t-21.5 -21h-481 q-16 0 -21.5 5t-5.5 18q0 25 -7 31t-16.5 0.5t-24.5 -17.5l-3.5 -3.5t-3.5 -2.5q-19 -15 -40.5 -22.5t-31.5 -8t-32 -0.5q-153 0 -235.5 90.5t-82.5 245.5zM357.5 1038q0.5 -19 0.5 -24v-594v-29.5t1.5 -27t4.5 -27t8.5 -19.5t15 -15.5t22.5 -4.5q18 0 29.5 10t15.5 31.5 t5 37t1 44.5v594v19v19.5v18.5t-1.5 18t-4 15t-6 14t-9 10t-13 7t-17.5 2q-13 0 -22 -3t-15 -12t-9.5 -15t-4.5 -21t-1.5 -22t0 -26z" />
<glyph unicode="&#x153;" horiz-adv-x="1208" d="M41 336v311q0 153 91.5 244.5t246.5 91.5q53 0 95 -9.5t65 -23t38 -27t22 -23t9 -9.5t9 9.5t21.5 23t37 27t63 23t90.5 9.5q161 0 249.5 -88.5t88.5 -247.5v-174q0 -21 -5.5 -25t-37.5 -4h-327q-19 0 -24 -10t-5 -39v-24.5v-23.5t1 -19t3.5 -17.5t6.5 -12.5t11 -11 t16.5 -5.5t22.5 -2.5q36 0 49 25t13 54q0 10 17.5 12.5t95.5 2.5h32q86 0 108.5 -5t22.5 -32q0 -159 -88.5 -247.5t-249.5 -88.5q-49 0 -89 9.5t-62.5 22.5t-38 26t-23.5 22.5t-10 9.5t-9 -9.5t-22 -22.5t-38 -26t-64.5 -22.5t-93.5 -9.5q-155 0 -246.5 91.5t-91.5 244.5z M316.5 399q0.5 -8 1 -22t2 -21.5t4 -18t7.5 -16t11.5 -11.5t15.5 -8.5t21 -2.5q15 0 26.5 4t18 13.5t10.5 18t5.5 25t1.5 26.5t-0.5 30.5t-0.5 29.5v91q0 9 0.5 29.5t0.5 30.5t-1.5 26.5t-5.5 25t-10.5 18t-18 13.5t-26.5 4q-12 0 -21 -2.5t-15.5 -8.5t-11.5 -11.5t-7.5 -16 t-4 -18t-2 -21.5t-1 -22t0 -23.5t0.5 -23.5v-91q0 -8 -0.5 -23.5t0 -23.5zM768 641q0 -49 9.5 -61.5t51.5 -12.5t52 13t10 65q0 57 -16 77.5t-46 20.5q-31 0 -46 -22t-15 -80z" />
<glyph unicode="&#x178;" horiz-adv-x="835" d="M41 1403q-2 9 13 15.5t41 9t45 3.5t38 1q162 0 166 -33q12 -87 36 -246t36 -244q0 -18 12 -18q10 0 10 20q15 103 35 262t29 226q5 33 153 33q26 0 46.5 -1t45.5 -3.5t37.5 -8.5t10.5 -16q-104 -411 -181 -662q-6 -21 -14.5 -61.5t-13.5 -56.5q-11 -33 -11 -119v-488 q0 -16 -153 -16q-154 0 -154 23q0 81 1 231.5t1 243.5q0 88 -2 100q-2 15 -14 58t-16 63q-20 71 -90.5 308t-106.5 376zM143 1612q-6 58 31.5 104.5t91.5 40.5q62 -8 89.5 -27.5t28 -47t-0.5 -64.5q-3 -52 -35.5 -87t-81.5 -38q-36 -3 -60.5 5.5t-37 28t-17.5 38.5t-8 47z M485 1612q-6 58 31.5 104.5t91.5 40.5q62 -8 89.5 -27.5t28 -47t-0.5 -64.5q-3 -52 -35.5 -87t-81.5 -38q-36 -3 -60.5 5.5t-37 28t-17.5 38.5t-8 47z" />
<glyph unicode="&#x2c6;" d="M143 1192q14 22 133 102q21 15 56.5 42.5t54 38.5t33.5 11q12 0 31.5 -13t59.5 -47t60 -50q17 -13 42 -32t37 -28t23.5 -20t16.5 -20t-5.5 -32.5t-26 -49.5t-17.5 -33q-2 -10 -7.5 -17t-17 -6.5t-24.5 13.5q-18 17 -44 43.5t-44 44t-36.5 35.5t-30 27t-15.5 9 q-3 0 -9.5 -4t-17.5 -13.5t-21 -18.5t-27.5 -25.5t-30 -28t-34.5 -32.5t-34 -33q-24 -18 -34.5 -12.5t-14.5 22.5q-2 7 -19 36t-29.5 55.5t-7.5 35.5z" />
<glyph unicode="&#x2dc;" d="M180 1229q-13 19 90 90q61 41 88 41h11.5h12.5t11 -1.5t13 -3.5t11.5 -6.5t14.5 -11.5q10 -9 19.5 -20.5t14 -17t12.5 -9.5t18 -4q6 0 11.5 2.5t10.5 5.5t12 10.5t11.5 12t14.5 16t15 17.5q16 18 29.5 11.5t17.5 -22.5q4 -12 28 -54.5t26 -45.5q3 -5 -1 -12.5t-15 -17.5 t-22.5 -19t-27.5 -22t-26 -21q-31 -25 -46.5 -31t-37.5 -6q-49 0 -74 25q-8 8 -18 19t-13.5 14.5t-11.5 6.5t-19 3q-10 0 -16.5 -3.5t-11.5 -9.5t-19 -20t-32 -29q-15 -12 -31 -8t-19 18q-3 9 -13 29t-23 45t-15 29z" />
<glyph unicode="&#x2000;" horiz-adv-x="922" />
<glyph unicode="&#x2001;" horiz-adv-x="1845" />
<glyph unicode="&#x2002;" horiz-adv-x="922" />
<glyph unicode="&#x2003;" horiz-adv-x="1845" />
<glyph unicode="&#x2004;" horiz-adv-x="615" />
<glyph unicode="&#x2005;" horiz-adv-x="461" />
<glyph unicode="&#x2006;" horiz-adv-x="307" />
<glyph unicode="&#x2007;" horiz-adv-x="307" />
<glyph unicode="&#x2008;" horiz-adv-x="230" />
<glyph unicode="&#x2009;" horiz-adv-x="369" />
<glyph unicode="&#x200a;" horiz-adv-x="102" />
<glyph unicode="&#x2010;" horiz-adv-x="559" d="M61 463q7 34 0 119q-1 18 13.5 24t50.5 6h268q94 3 94 -32q0 -98 7 -125q4 -15 -3.5 -24t-35.5 -9q-74 0 -183 1t-163 1q-15 0 -33.5 9.5t-14.5 29.5z" />
<glyph unicode="&#x2011;" horiz-adv-x="559" d="M61 463q7 34 0 119q-1 18 13.5 24t50.5 6h268q94 3 94 -32q0 -98 7 -125q4 -15 -3.5 -24t-35.5 -9q-74 0 -183 1t-163 1q-15 0 -33.5 9.5t-14.5 29.5z" />
<glyph unicode="&#x2012;" horiz-adv-x="559" d="M61 463q7 34 0 119q-1 18 13.5 24t50.5 6h268q94 3 94 -32q0 -98 7 -125q4 -15 -3.5 -24t-35.5 -9q-74 0 -183 1t-163 1q-15 0 -33.5 9.5t-14.5 29.5z" />
<glyph unicode="&#x2013;" horiz-adv-x="1126" d="M61 463q7 34 0 119q-1 18 13.5 24t50.5 6q772 0 840 2q94 3 94 -32q0 -102 6 -125q4 -15 -3.5 -24t-35.5 -9h-917q-15 0 -33.5 9.5t-14.5 29.5z" />
<glyph unicode="&#x2014;" horiz-adv-x="1703" d="M61 463q7 34 0 119q-1 18 13.5 24t50.5 6q1349 0 1417 2q94 3 94 -32q0 -102 6 -125q4 -15 -3 -24t-35 -9h-1495q-15 0 -33.5 9.5t-14.5 29.5z" />
<glyph unicode="&#x2018;" horiz-adv-x="419" d="M61 1018q0 48 1 70.5t7.5 54t20.5 65.5q11 26 21.5 48.5t33 60.5t44 63t51.5 42t59 12q16 -3 19 -22t-5 -47.5t-18 -55.5t-20.5 -53t-12.5 -33q-4 -16 5 -25.5t26 -16t22 -10.5q20 -16 31.5 -46.5t11.5 -57.5q0 -82 -35.5 -139.5t-97.5 -57.5q-78 0 -121 41t-43 107z" />
<glyph unicode="&#x2019;" horiz-adv-x="419" d="M61 1239q0 82 36 139.5t98 57.5q78 0 120.5 -41t42.5 -107q0 -50 -1 -71t-7 -53.5t-20 -65.5q-11 -26 -21.5 -48.5t-33 -60.5t-44 -63t-51.5 -42t-59 -12q-16 3 -19 22t5 47.5t18 55.5t20.5 53t12.5 33q4 16 -5 25.5t-26.5 16t-22.5 10.5q-20 16 -31.5 46.5t-11.5 57.5z " />
<glyph unicode="&#x201a;" horiz-adv-x="419" d="M61 125q0 82 36 139.5t98 57.5q78 0 120.5 -41t42.5 -107q0 -50 -1 -71t-7 -53.5t-20 -65.5q-11 -26 -21.5 -48.5t-33 -60.5t-44 -63t-51.5 -42t-59 -12q-16 3 -19 22t5 47.5t18 55.5t20.5 53t12.5 33q4 16 -5 25.5t-26.5 15.5t-22.5 10q-20 16 -31.5 46.5t-11.5 58.5z " />
<glyph unicode="&#x201c;" horiz-adv-x="770" d="M61 1018q0 48 1 70.5t7.5 54t20.5 65.5q11 26 21.5 48.5t33 60.5t44 63t51.5 42t59 12q16 -3 19 -22t-5 -47.5t-18 -55.5t-20.5 -53t-12.5 -33q-4 -16 5 -25.5t26 -16t22 -10.5q20 -16 31.5 -46.5t11.5 -57.5q0 -82 -35.5 -139.5t-97.5 -57.5q-78 0 -121 41t-43 107z M410 1018q0 50 1 71t7 53.5t20 65.5q11 26 21.5 48.5t33 60.5t44 63t51.5 42t59 12q16 -3 19 -22t-5 -47.5t-18 -55.5t-20.5 -53t-12.5 -33q-4 -16 5 -25.5t26.5 -16t22.5 -10.5q20 -16 31.5 -46.5t11.5 -57.5q0 -82 -36 -139.5t-98 -57.5q-78 0 -120.5 41t-42.5 107z" />
<glyph unicode="&#x201d;" horiz-adv-x="768" d="M61 1239q0 82 36 139.5t98 57.5q78 0 120.5 -41t42.5 -107q0 -50 -1 -71t-7 -53.5t-20 -65.5q-11 -26 -21.5 -48.5t-33 -60.5t-44 -63t-51.5 -42t-59 -12q-16 3 -19 22t5 47.5t18 55.5t20.5 53t12.5 33q4 16 -5 25.5t-26.5 16t-22.5 10.5q-20 16 -31.5 46.5t-11.5 57.5z M410 1239q0 82 35.5 139.5t97.5 57.5q78 0 121 -41t43 -107q0 -48 -1 -70.5t-7.5 -54t-20.5 -65.5q-11 -26 -21.5 -48.5t-33 -60.5t-44 -63t-51.5 -42t-59 -12q-16 3 -19 22t5 47.5t18 55.5t20.5 53t12.5 33q4 16 -5 25.5t-26 16t-22 10.5q-20 16 -31.5 46.5t-11.5 57.5z " />
<glyph unicode="&#x201e;" horiz-adv-x="768" d="M61 125q0 82 36 139.5t98 57.5q78 0 120.5 -41t42.5 -107q0 -50 -1 -71t-7 -53.5t-20 -65.5q-11 -26 -21.5 -48.5t-33 -60.5t-44 -63t-51.5 -42t-59 -12q-16 3 -19 22t5 47.5t18 55.5t20.5 53t12.5 33q4 16 -5 25.5t-26.5 15.5t-22.5 10q-20 16 -31.5 46.5t-11.5 58.5z M410 125q0 82 35.5 139.5t97.5 57.5q78 0 121 -41t43 -107q0 -48 -1 -70.5t-7.5 -54t-20.5 -65.5q-11 -26 -21.5 -48.5t-33 -60.5t-44 -63t-51.5 -42t-59 -12q-16 3 -19 22t5 47.5t18 55.5t20.5 53t12.5 33q4 16 -5 25.5t-26 15.5t-22 10q-20 16 -31.5 46.5t-11.5 58.5z" />
<glyph unicode="&#x2022;" horiz-adv-x="595" d="M63 549q5 55 16 93t35.5 74.5t72.5 54t118 13.5q98 -4 164 -75.5t66 -171.5q0 -44 -2.5 -72.5t-15 -67t-36 -62.5t-68 -44.5t-108.5 -28.5q-69 -8 -128.5 33t-90.5 110.5t-23 143.5z" />
<glyph unicode="&#x2026;" horiz-adv-x="1183" d="M61 139q4 -34 10.5 -57t22 -46.5t45.5 -34t74 -7.5q61 4 100.5 48t42.5 108q5 33 3 61.5t-11.5 50.5t-43 38t-91.5 22q-66 7 -113 -51t-39 -132zM442 139q4 -34 10.5 -57t22 -46.5t45.5 -34t74 -7.5q61 4 100.5 48t42.5 108q5 33 3 61.5t-11.5 50.5t-43 38t-91.5 22 q-66 7 -113 -51t-39 -132zM823 139q4 -34 10.5 -57t22 -46.5t45.5 -34t74 -7.5q61 4 100.5 48t42.5 108q5 33 3 61.5t-11.5 50.5t-43 38t-91.5 22q-66 7 -113 -51t-39 -132z" />
<glyph unicode="&#x202f;" horiz-adv-x="369" />
<glyph unicode="&#x2039;" horiz-adv-x="452" d="M20 506q0 20 131 206t144 177q6 -3 44.5 -24.5t49.5 -26.5q37 -8 10 -47q-178 -267 -178 -283q0 -10 60.5 -109.5t113.5 -177.5q27 -41 -10 -49q-9 -3 -30.5 -14t-45.5 -24.5t-30 -16.5q-13 -8 -136 180t-123 209z" />
<glyph unicode="&#x203a;" horiz-adv-x="452" d="M63 217q179 268 179 283q0 10 -60.5 108.5t-113.5 177.5q-27 42 10 50q9 3 30.5 14t45.5 24.5t30 16.5q13 8 135.5 -180t122.5 -209q0 -20 -130.5 -205.5t-143.5 -177.5q-6 3 -44.5 24.5t-49.5 26.5q-38 8 -11 47z" />
<glyph unicode="&#x205f;" horiz-adv-x="461" />
<glyph unicode="&#x2122;" horiz-adv-x="675" d="M41 1399q0 23 4 30t16 7h199q8 0 8 -39t-6 -39q-8 0 -18.5 0.5t-16 0.5h-12t-10 -1t-7 -3.5t-4.5 -6t-1 -9.5v-393q0 -12 -41 -12q-37 0 -37 10v391q0 6 -1 10.5t-4 7t-5.5 4t-8 2t-10 0t-13 -0.5h-14.5q-13 0 -15.5 7t-2.5 34zM317 944v469q0 11 6.5 16t13 6t21.5 1 q21 0 27.5 -6t11.5 -23q63 -207 70 -207q8 0 70 213q7 23 38 23q23 0 31 -6t8 -23v-461q0 -12 -39 -12q-38 0 -38 10v252q0 39 -18 -18q-7 -20 -20 -69q-7 -25 -10 -34q-5 -15 -22.5 -14t-22.5 16q-37 125 -44 125q-3 1 -3 -14v-242q0 -12 -41 -12q-39 0 -39 10z" />
<glyph unicode="&#xe000;" horiz-adv-x="983" d="M0 0v983h983v-983h-983z" />
<glyph unicode="&#xfb01;" horiz-adv-x="1036" d="M41 813q0 107 3 129.5t22 22.5q5 0 15.5 -0.5t17 -0.5t14 1t10.5 4q4 4 5 22.5t1 106.5q0 151 100.5 243.5t257.5 92.5h74q19 0 22 -22.5t3 -129.5q0 -69 -4 -101.5t-9.5 -38t-17.5 -5.5h-68q-19 0 -30 -9.5t-15.5 -32.5t-5 -36t-0.5 -45q0 -39 6 -45q3 -2 14 -3.5 t27 -1.5h30t29 0.5t19 0.5q19 0 22 -22.5t3 -129.5q0 -35 -1 -58t-2.5 -35.5t-5 -17.5t-5.5 -6t-8 0.5t-9 1.5q-60 0 -83 -3t-29.5 -10.5t-6.5 -27.5v-620q0 -27 -22 -32t-129 -5h-22q-96 0 -115 4.5t-19 28.5v624q0 30 -7.5 35.5t-49.5 5.5q-3 0 -9 -1.5t-8 -0.5t-5.5 6 t-5 17.5t-2.5 35.5t-1 58zM653 1270q4 37 10.5 62t23 50.5t48.5 37.5t80 10q66 -3 108.5 -51t47.5 -117q5 -36 2.5 -67.5t-13.5 -55t-47 -40.5t-100 -24q-72 -7 -121.5 55t-38.5 140zM668 31v915q0 28 19 32.5t128 4.5q118 0 139 -5.5t21 -33.5v-909q0 -25 -21.5 -30 t-138.5 -5q-108 0 -127.5 4.5t-19.5 26.5z" />
<glyph unicode="&#xfb02;" horiz-adv-x="1036" d="M41 813q0 107 3 129.5t22 22.5q5 0 15.5 -0.5t17 -0.5t14 1t10.5 4q4 4 5 22.5t1 106.5q0 151 100.5 243.5t257.5 92.5h74q19 0 22 -22.5t3 -129.5q0 -69 -4 -101.5t-9.5 -38t-17.5 -5.5h-68q-19 0 -30 -9.5t-15.5 -32.5t-5 -36t-0.5 -45q0 -39 6 -45q3 -2 14 -3.5 t27 -1.5h30t29 0.5t19 0.5q19 0 22 -22.5t3 -129.5q0 -35 -1 -58t-2.5 -35.5t-5 -17.5t-5.5 -6t-8 0.5t-9 1.5q-60 0 -83 -3t-29.5 -10.5t-6.5 -27.5v-620q0 -27 -22 -32t-129 -5h-22q-96 0 -115 4.5t-19 28.5v624q0 30 -7.5 35.5t-49.5 5.5q-3 0 -9 -1.5t-8 -0.5t-5.5 6 t-5 17.5t-2.5 35.5t-1 58zM668 31v1366q0 28 19 32.5t128 4.5q118 0 139 -5.5t21 -33.5v-1360q0 -25 -21.5 -30t-138.5 -5q-108 0 -127.5 4.5t-19.5 26.5z" />
</font>
</defs>
</svg>
